<svg width="62" height="40" viewBox="0 0 62 40" fill="none" xmlns="http://www.w3.org/2000/svg">
<g clip-path="url(#clip0_1_16)">
<mask id="mask0_1_16" style="mask-type:luminance" maskUnits="userSpaceOnUse" x="0" y="0" width="62" height="40">
<path d="M0 0H62V40H0V0Z" fill="white"/>
</mask>
<g mask="url(#mask0_1_16)">
<path d="M0 0H62V40H0V0Z" fill="white"/>
<path fill-rule="evenodd" clip-rule="evenodd" d="M0 0V40H62V0H0Z" fill="#2E42A5"/>
<mask id="mask1_1_16" style="mask-type:luminance" maskUnits="userSpaceOnUse" x="0" y="0" width="62" height="40">
<path fill-rule="evenodd" clip-rule="evenodd" d="M0 0V40H62V0H0Z" fill="white"/>
</mask>
<g mask="url(#mask1_1_16)">
<path d="M-6.90331 37.1417L6.74056 42.1067L62.3081 5.39666L69.5059 -1.98L54.9165 -3.63834L32.2516 12.18L14.0081 22.84L-6.90331 37.1417Z" fill="white"/>
<path d="M-5.0375 40.62L1.91619 43.5L66.9212 -2.66501H57.1621L-5.03556 40.6183L-5.0375 40.62Z" fill="#F50100"/>
<path d="M68.9033 37.1417L55.2594 42.1067L-0.308062 5.39666L-7.50587 -1.98L7.0835 -3.63834L29.7484 12.18L47.9919 22.84L68.9033 37.1417Z" fill="white"/>
<path d="M68.4383 39.6383L61.4866 42.5183L33.8074 22.7517L25.6002 20.545L-8.1995 -1.955H1.56162L35.34 20.0117L44.3126 22.6583L68.4383 39.6383Z" fill="#F50100"/>
<path fill-rule="evenodd" clip-rule="evenodd" d="M38.3199 -3.33334H23.6801V13.3333H-3.82075V26.6667H23.6801V43.3333H38.3199V26.6667H65.9292V13.3333H38.3199V-3.33334Z" fill="#F50100"/>
<mask id="mask2_1_16" style="mask-type:luminance" maskUnits="userSpaceOnUse" x="-4" y="-4" width="70" height="48">
<path fill-rule="evenodd" clip-rule="evenodd" d="M38.3199 -3.33334H23.6801V13.3333H-3.82075V26.6667H23.6801V43.3333H38.3199V26.6667H65.9292V13.3333H38.3199V-3.33334Z" fill="white"/>
</mask>
<g mask="url(#mask2_1_16)">
<path d="M23.6801 -3.33334V-6.66667H19.8051V-3.33334H23.6801ZM38.3199 -3.33334H42.1949V-6.66667H38.3199V-3.33334ZM23.6801 13.3333V16.6667H27.5551V13.3333H23.6801ZM-3.82075 13.3333V9.99999H-7.69575V13.3333H-3.82075ZM-3.82075 26.6667H-7.69575V30H-3.82075V26.6667ZM23.6801 26.6667H27.5551V23.3333H23.6801V26.6667ZM23.6801 43.3333H19.8051V46.6667H23.6801V43.3333ZM38.3199 43.3333V46.6667H42.1949V43.3333H38.3199ZM38.3199 26.6667V23.3333H34.4449V26.6667H38.3199ZM65.9292 26.6667V30H69.8042V26.6667H65.9292ZM65.9292 13.3333H69.8042V9.99999H65.9292V13.3333ZM38.3199 13.3333H34.4449V16.6667H38.3199V13.3333ZM23.6801 -5.24521e-06H38.3199V-6.66667H23.6801V-5.24521e-06ZM27.5551 13.3333V-3.33334H19.8051V13.3333H27.5551ZM-3.82075 16.6667H23.6801V9.99999H-3.82075V16.6667ZM0.0542498 26.6667V13.3333H-7.69575V26.6667H0.0542498ZM23.6801 23.3333H-3.82075V30H23.6801V23.3333ZM27.5551 43.3333V26.6667H19.8051V43.3333H27.5551ZM38.3199 40H23.6801V46.6667H38.3199V40ZM34.4449 26.6667V43.3333H42.1949V26.6667H34.4449ZM65.9292 23.3333H38.3199V30H65.9292V23.3333ZM62.0542 13.3333V26.6667H69.8042V13.3333H62.0542ZM38.3199 16.6667H65.9292V9.99999H38.3199V16.6667ZM34.4449 -3.33334V13.3333H42.1949V-3.33334H34.4449Z" fill="white"/>
</g>
</g>
</g>
</g>
<defs>
<clipPath id="clip0_1_16">
<rect width="62" height="40" fill="white"/>
</clipPath>
</defs>
</svg>
