<svg width="1429" height="1351" viewBox="0 0 1429 1351" fill="none" xmlns="http://www.w3.org/2000/svg">
<path d="M714.506 0C319.947 0 0 309.953 0 692.315C0 998.198 204.728 1257.71 488.623 1349.25C524.331 1355.66 537.441 1334.23 537.441 1315.95C537.441 1299.44 536.779 1244.9 536.471 1187.05C337.695 1228.93 295.751 1105.37 295.751 1105.37C263.248 1025.35 216.418 1004.07 216.418 1004.07C151.591 961.099 221.304 961.982 221.304 961.982C293.053 966.865 330.832 1033.32 330.832 1033.32C394.559 1139.16 497.982 1108.57 538.755 1090.88C545.167 1046.13 563.684 1015.59 584.118 998.301C425.417 980.795 258.587 921.432 258.587 656.156C258.587 580.571 286.498 518.812 332.205 470.329C324.786 452.891 300.33 382.477 339.126 287.116C339.126 287.116 399.126 268.509 535.666 358.08C592.661 342.741 653.784 335.048 714.506 334.785C775.227 335.048 836.398 342.741 893.499 358.08C1029.87 268.509 1089.79 287.116 1089.79 287.116C1128.68 382.477 1104.21 452.891 1096.8 470.329C1142.61 518.812 1170.33 580.571 1170.33 656.156C1170.33 922.062 1003.18 980.611 844.077 997.751C869.705 1019.23 892.541 1061.37 892.541 1125.96C892.541 1218.59 891.713 1293.14 891.713 1315.95C891.713 1334.37 904.574 1355.96 940.791 1349.16C1224.53 1257.51 1429 998.095 1429 692.315C1429 309.953 1109.1 0 714.506 0ZM267.606 986.217C266.032 989.656 260.447 990.688 255.36 988.327C250.177 986.068 247.267 981.379 248.947 977.928C250.485 974.386 256.081 973.4 261.252 975.773C266.446 978.032 269.404 982.766 267.606 986.217ZM302.751 1016.6C299.344 1019.66 292.682 1018.24 288.163 1013.4C283.489 1008.58 282.614 1002.12 286.068 999.017C289.583 995.956 296.043 997.389 300.728 1002.22C305.402 1007.1 306.313 1013.51 302.751 1016.6ZM326.863 1055.48C322.485 1058.43 315.327 1055.66 310.902 1049.51C306.524 1043.35 306.524 1035.97 310.996 1033.01C315.433 1030.05 322.485 1032.71 326.969 1038.82C331.335 1045.08 331.335 1052.47 326.863 1055.48ZM367.64 1100.51C363.724 1104.69 355.382 1103.57 349.277 1097.86C343.03 1092.28 341.29 1084.35 345.219 1080.17C349.182 1075.97 357.571 1077.15 363.724 1082.82C369.924 1088.39 371.817 1096.37 367.64 1100.51ZM420.341 1115.71C418.614 1121.13 410.58 1123.6 402.487 1121.29C394.405 1118.92 389.117 1112.57 390.749 1107.09C392.43 1101.63 400.499 1099.06 408.651 1101.53C416.72 1103.89 422.021 1110.19 420.341 1115.71ZM480.317 1122.16C480.518 1127.86 473.655 1132.6 465.16 1132.7C456.617 1132.89 449.708 1128.27 449.613 1122.65C449.613 1116.88 456.322 1112.19 464.864 1112.06C473.36 1111.89 480.317 1116.48 480.317 1122.16ZM539.236 1119.97C540.254 1125.54 534.35 1131.26 525.913 1132.78C517.619 1134.25 509.94 1130.81 508.887 1125.29C507.858 1119.58 513.869 1113.86 522.151 1112.38C530.599 1110.96 538.16 1114.3 539.236 1119.97Z" fill="#3660D3" fill-opacity="0.67"/>
</svg>
