<svg width="1430" height="1350" viewBox="0 0 1430 1350" fill="none" xmlns="http://www.w3.org/2000/svg">
<g clip-path="url(#clip0_46_29)">
<path fill-rule="evenodd" clip-rule="evenodd" d="M715 0C320.117 0 0 302.209 0 675C0 1047.79 320.117 1350 715 1350C1109.88 1350 1430 1047.79 1430 675C1430 302.209 1109.88 0 715 0ZM343.248 559.063H505.282V1018.68H343.248V559.063ZM515.956 416.888C514.904 371.824 480.769 337.5 425.336 337.5C369.905 337.5 333.667 371.824 333.667 416.888C333.667 461.019 368.836 496.33 423.232 496.33H424.269C480.769 496.33 515.956 461.019 515.956 416.888ZM903.078 548.272C1009.71 548.272 1089.64 613.977 1089.64 755.148L1089.64 1018.68H927.608V772.782C927.608 711.02 904.159 668.874 845.502 668.874C800.737 668.874 774.074 697.286 762.363 724.731C758.079 734.563 757.027 748.266 757.027 762.002V1018.69H594.972C594.972 1018.69 597.108 602.204 594.972 559.077H757.027V624.175C778.531 592.881 817.048 548.272 903.078 548.272Z" fill="#3660D3" fill-opacity="0.67"/>
</g>
<defs>
<clipPath id="clip0_46_29">
<rect width="1430" height="1350" fill="white"/>
</clipPath>
</defs>
</svg>
