<svg width="1179" height="1132" viewBox="0 0 1179 1132" fill="none" xmlns="http://www.w3.org/2000/svg">
<g clip-path="url(#clip0_46_29)">
<path fill-rule="evenodd" clip-rule="evenodd" d="M589.5 0C263.929 0 0 253.408 0 566C0 878.592 263.929 1132 589.5 1132C915.071 1132 1179 878.592 1179 566C1179 253.408 915.071 0 589.5 0ZM282.999 468.785H416.592V854.179H282.999V468.785ZM425.393 349.569C424.526 311.781 396.382 283 350.679 283C304.978 283 275.1 311.781 275.1 349.569C275.1 386.573 304.096 416.182 348.945 416.182H349.799C396.382 416.182 425.393 386.573 425.393 349.569ZM744.566 459.736C832.477 459.736 898.383 514.831 898.383 633.205L898.378 854.179H764.79V647.992C764.79 596.203 745.457 560.864 697.096 560.864C660.188 560.864 638.205 584.687 628.549 607.7C625.017 615.945 624.15 627.435 624.15 638.953V854.188H490.54C490.54 854.188 492.301 504.959 490.54 468.797H624.15V523.383C641.88 497.141 673.636 459.736 744.566 459.736Z" fill="#3660D3" fill-opacity="0.67"/>
</g>
<defs>
<clipPath id="clip0_46_29">
<rect width="1179" height="1132" fill="white"/>
</clipPath>
</defs>
</svg>
