<svg width="245" height="127" viewBox="0 0 245 127" fill="none" xmlns="http://www.w3.org/2000/svg">
<mask id="mask0_510_39" style="mask-type:alpha" maskUnits="userSpaceOnUse" x="0" y="0" width="245" height="127">
<rect x="2" y="2" width="241" height="123" rx="50" fill="#4C70EF" fill-opacity="0.84" stroke="#4C70EF" stroke-opacity="0.9" stroke-width="3"/>
</mask>
<g mask="url(#mask0_510_39)">
<g filter="url(#filter0_d_510_39)">
<path d="M74.2179 117.419C74.2179 117.1 74.1688 116.9 74.1087 116.974C74.0486 117.049 73.9245 116.749 73.8329 116.307C73.7362 115.84 73.5872 115.503 73.4778 115.503C73.3289 115.503 73.3168 115.436 73.4205 115.184C73.5212 114.94 73.5179 114.843 73.4061 114.767C73.2917 114.689 73.2967 114.58 73.4296 114.254C73.5583 113.938 73.565 113.817 73.4577 113.744C73.3803 113.691 73.3169 113.549 73.3169 113.427C73.3169 113.305 73.367 113.268 73.4283 113.344C73.4921 113.424 73.511 113.333 73.4725 113.13C73.4356 112.937 73.4633 112.778 73.5341 112.778C73.6278 112.778 73.63 112.655 73.5422 112.324C73.4453 111.959 73.4565 111.87 73.599 111.87C73.7423 111.87 73.7492 111.811 73.6353 111.565C73.4895 111.251 73.2063 111.532 73.2432 111.955C73.2528 112.064 73.2012 112.198 73.1287 112.252C73.0419 112.316 73.0191 112.178 73.062 111.847C73.0978 111.571 73.0812 111.399 73.0249 111.465C72.9687 111.532 72.8214 111.511 72.6975 111.419C72.5189 111.287 72.5713 111.218 72.9509 111.087C73.2494 110.984 73.4295 110.801 73.4295 110.601C73.4295 110.425 73.528 110.281 73.6484 110.281C73.7688 110.281 73.9366 110.081 74.0213 109.837C74.1732 109.4 74.7469 108.803 74.9329 108.889C74.9854 108.913 75.3148 108.787 75.6649 108.609C76.015 108.431 76.6183 108.213 77.0056 108.125C77.3928 108.037 77.7379 107.873 77.7724 107.761C77.807 107.648 77.9462 107.554 78.082 107.551C78.2177 107.548 78.6328 107.244 79.0045 106.875C79.3761 106.506 79.7659 106.201 79.8707 106.199C79.9754 106.196 80.0924 106.091 80.1307 105.966C80.169 105.842 80.1431 105.739 80.0732 105.739C79.9171 105.739 79.9734 104.724 80.1307 104.702C80.1927 104.693 80.4655 104.558 80.7371 104.401C81.0087 104.244 81.3546 104.179 81.5057 104.255C81.6569 104.332 81.9415 104.294 82.1382 104.172C82.3349 104.05 82.7786 103.838 83.1243 103.701C84.0728 103.327 84.5794 103.015 84.5794 102.803C84.5794 102.585 78.8018 102.737 77.3714 102.994C76.6178 103.129 76.3302 103.092 76.0199 102.82C75.8031 102.63 75.6004 102.46 75.5694 102.442C75.5384 102.424 75.365 102.286 75.184 102.135C75.0029 101.984 74.7749 101.924 74.6772 102C74.5794 102.077 73.0804 102.177 71.346 102.221C69.6116 102.266 67.9644 102.405 67.6857 102.529C67.4069 102.653 66.5716 102.874 65.8293 103.019C65.0871 103.164 64.3829 103.387 64.2643 103.515C64.1458 103.643 63.8013 103.699 63.4988 103.641C63.1962 103.582 62.9214 103.623 62.888 103.732C62.8546 103.841 62.7801 103.872 62.7224 103.8C62.6648 103.728 62.6176 103.777 62.6176 103.91C62.6176 104.042 62.5796 104.13 62.5331 104.105C62.3458 104.005 61.3787 104.418 61.3787 104.598C61.3787 104.82 60.5279 105.188 60.2063 105.106C60.0879 105.075 59.8959 105.257 59.7795 105.509C59.6631 105.76 59.4812 105.979 59.3752 105.993C59.2692 106.008 58.8784 106.042 58.5068 106.069C58.1351 106.096 57.6283 106.236 57.3805 106.38C57.1327 106.524 56.7386 106.7 56.5046 106.77C56.2705 106.84 56.1066 106.987 56.1402 107.097C56.245 107.439 55.9947 107.528 54.038 107.849C53.934 107.866 53.858 107.977 53.869 108.095C53.8801 108.214 53.7878 108.37 53.6639 108.444C53.54 108.517 53.3107 108.753 53.1543 108.968C52.9497 109.248 52.5232 109.398 51.6339 109.504C50.954 109.584 50.2806 109.639 50.1375 109.626C49.9943 109.613 49.7215 109.764 49.5312 109.963C49.3348 110.168 49.1553 110.233 49.1158 110.115C49.0189 109.825 48.6224 109.546 48.7092 109.829C48.8008 110.128 48.6912 110.112 48.3913 109.785C47.7861 109.123 44.9208 109.626 44.6219 110.446C44.5293 110.7 44.5192 110.871 44.5937 110.921C44.6578 110.964 44.7102 111.09 44.7102 111.201C44.7102 111.311 44.6393 111.347 44.5527 111.28C44.466 111.213 44.3617 111.267 44.3208 111.4C44.2116 111.757 44.8865 111.705 45.2508 111.329C45.4181 111.157 45.783 110.94 46.0617 110.848C46.3405 110.756 46.6572 110.648 46.7656 110.607C46.874 110.567 46.9627 110.667 46.9627 110.831C46.9627 111.041 47.1028 111.106 47.4414 111.053C47.8114 110.994 47.8748 111.03 47.7206 111.21C47.6109 111.339 47.5465 111.526 47.5775 111.628C47.6443 111.846 47.0147 112.065 45.7956 112.248C45.1111 112.351 44.8877 112.31 44.8118 112.069C44.7407 111.842 44.7132 111.834 44.712 112.04C44.7094 112.458 44.0325 112.391 43.79 111.948C43.6767 111.742 43.584 111.669 43.584 111.787C43.584 111.918 43.2184 111.941 42.6548 111.846C42.1438 111.76 41.3456 111.634 40.881 111.565C40.4164 111.496 39.8698 111.321 39.6664 111.176C39.4629 111.031 39.1703 110.96 39.0161 111.02C38.8619 111.079 38.7038 111.023 38.6647 110.896C38.6211 110.754 38.6505 110.735 38.7411 110.848C38.8328 110.962 38.8612 110.943 38.8162 110.796C38.7314 110.519 38.1943 110.269 37.5586 110.209C37.1836 110.174 37.106 110.085 37.0958 109.679C37.0849 109.243 37.1626 109.173 37.8279 109.017C38.2373 108.922 38.6989 108.866 38.8538 108.893L39.1353 108.942L38.8365 108.614C38.3183 108.046 37.813 107.807 36.8265 107.661C36.3 107.583 35.5398 107.353 35.1371 107.149C34.2111 106.68 30.9978 106.644 30.8577 107.101C30.8094 107.258 30.7103 107.313 30.6375 107.222C30.4493 106.987 28.3767 106.909 28.4472 107.138C28.5132 107.354 28.4964 107.357 27.0231 107.447C25.9832 107.511 25.5443 107.589 23.9873 107.984C23.2773 108.164 22.8622 108.061 22.4565 107.603C22.2865 107.411 22.3232 107.302 22.7324 106.782C23.0625 106.361 23.4658 106.114 24.0744 105.959C25.1132 105.694 26.1043 105.361 26.8184 105.036C27.2455 104.841 27.3307 104.721 27.2859 104.376C27.2538 104.129 27.166 104.005 27.0734 104.076C26.9866 104.144 26.9155 104.086 26.9155 103.947C26.9155 103.809 27.0042 103.694 27.1126 103.692C27.2811 103.69 27.2852 103.657 27.1408 103.469C27.0339 103.33 27.0223 103.247 27.1091 103.245C27.1848 103.243 27.2172 103.089 27.1813 102.9C27.136 102.662 27.2484 102.44 27.5508 102.169L27.9855 101.779L26.8851 101.642C26.2798 101.567 25.4816 101.516 25.1112 101.529C24.7408 101.541 24.4378 101.539 24.4378 101.523C24.4378 101.508 24.5392 101.259 24.663 100.971C24.7869 100.683 24.8883 100.517 24.8883 100.601C24.8883 100.686 25.0024 100.604 25.1419 100.42C25.2814 100.235 25.7712 99.9671 26.2305 99.8234C26.6897 99.6798 27.2661 99.4195 27.5114 99.245C27.7568 99.0705 28.1412 98.9241 28.3657 98.9196C28.9929 98.9072 30.5728 98.079 30.116 98.0021C30.0592 97.9926 29.9114 97.9377 29.7875 97.8803C29.6636 97.8228 29.5003 97.7484 29.4247 97.715C29.167 97.6011 29.1506 97.3801 29.3884 97.2279C29.519 97.1444 29.7583 96.8285 29.9202 96.526C30.0821 96.2235 30.3276 95.976 30.4659 95.976C30.6041 95.976 30.775 95.8356 30.8457 95.6639C30.9513 95.4074 30.8584 95.3252 30.3245 95.2026C29.9672 95.1205 29.5228 95.0039 29.337 94.9434C28.8949 94.7995 27.1356 94.8203 27.0148 94.9709C26.8518 95.174 25.564 95.2698 25.564 95.0788C25.564 94.9784 25.6401 94.7691 25.733 94.6137C25.8259 94.4582 25.9019 94.2243 25.9019 94.0939C25.9019 93.9635 25.8686 93.924 25.8278 94.0062C25.7871 94.0884 25.6857 94.0418 25.6026 93.9027C25.5189 93.7627 25.4514 93.7467 25.4514 93.8669C25.4514 93.9862 25.3754 94.0839 25.2825 94.0839C25.012 94.0839 25.0862 93.8407 25.4579 93.509C25.8759 93.136 25.816 92.9795 25.1422 92.6837C24.5274 92.4138 24.4102 91.9908 24.851 91.6327C25.3071 91.2621 27.4501 90.781 28.6751 90.7742C29.2493 90.771 29.8535 90.7005 30.0179 90.6173L30.3166 90.4661L29.9957 89.9369C29.8192 89.6459 29.5891 89.4041 29.4844 89.3996C29.2174 89.3881 29.1363 89.027 29.2795 88.4876C29.4307 87.918 30.4104 86.8938 30.804 86.8938C30.9699 86.8938 31.0659 86.7958 31.0263 86.6667C30.9881 86.5419 30.8638 86.4397 30.7502 86.4397C30.5594 86.4397 30.3472 85.8728 30.389 85.4747C30.4315 85.07 28.6446 85.5226 28.4951 85.9544C28.3808 86.2842 25.5049 87.1461 25.2222 86.9353L24.953 86.7345L25.2148 86.4519C25.3589 86.2965 26.2946 85.8945 27.2942 85.5585C29.1234 84.9437 29.5686 84.5097 28.37 84.5097C28.0017 84.5097 27.6629 84.38 27.5527 84.1969C27.3963 83.9367 27.1797 83.9296 26.2672 84.1542C24.5894 84.5673 23.6143 84.851 23.3857 84.9927C23.2342 85.0865 23.1886 85.0193 23.2167 84.7432C23.2577 84.3408 23.6062 83.8686 24.1524 83.4753C24.6226 83.1368 24.3303 82.8383 23.7291 83.0431C23.4685 83.1319 23.0272 83.2765 22.7484 83.3644L22.2416 83.5244L22.664 82.7084C22.8962 82.2597 23.0863 81.856 23.0863 81.8113C23.0863 81.7667 22.772 81.6585 22.3879 81.5709C21.4797 81.3637 20.9938 80.8505 21.0001 80.105C21.0034 79.7118 21.732 79.1844 22.4099 79.0844C22.689 79.0432 23.3228 78.8472 23.8184 78.6488C24.3139 78.4504 25.0742 78.2421 25.5079 78.1859C25.9416 78.1297 26.6004 77.9761 26.972 77.8445C29.2797 77.0276 29.7991 76.8265 29.8986 76.7115C29.9597 76.6409 29.7824 76.4714 29.5044 76.335C29.2247 76.1977 28.9991 75.9538 28.9991 75.7888C28.9991 75.4067 30.1342 74.5767 31.1645 74.2055C31.6656 74.025 32.0364 73.7564 32.1578 73.4859C32.2665 73.2438 32.6435 72.9386 33.0165 72.7906C33.8628 72.455 33.8399 72.1366 32.9204 71.4516C32.7232 71.3047 32.5848 71.0664 32.6127 70.9219C32.6762 70.5932 33.1982 70.0917 33.4769 70.0917C33.5921 70.0917 33.655 69.9895 33.6167 69.8646C33.5784 69.7398 33.17 69.6376 32.7091 69.6376C31.9496 69.6376 31.6447 69.4054 32.0118 69.1068C32.3398 68.84 30.6962 68.9844 29.8844 69.2938C28.8734 69.6791 28.3233 69.5178 28.3233 68.8362C28.3233 68.5219 28.6175 68.1093 29.4288 67.2857C30.1931 66.5098 30.4886 66.1039 30.3861 65.9705C30.1916 65.7172 30.3836 65.4583 31.139 64.9553C32.2052 64.2453 33.051 63.0552 32.9399 62.4213C32.8641 61.9883 33.2797 61.7522 34.9965 61.2526C35.8499 61.0042 36.7046 60.6437 36.8957 60.4515C37.0869 60.2592 37.4916 60.0419 37.7951 59.9685C38.632 59.7663 40.2333 58.9497 40.4837 58.5973C40.6059 58.4255 40.8593 58.2776 41.0468 58.2689C41.2344 58.2601 41.4892 58.1651 41.6131 58.0578C41.7924 57.9024 41.7465 57.8558 41.3878 57.8292C40.4278 57.7579 39.9185 57.5671 39.7912 57.2311C39.7043 57.0017 39.5686 56.9312 39.397 57.0263C39.1718 57.151 39.1631 57.1362 39.3344 56.9198C39.444 56.7814 39.6214 56.6974 39.7286 56.733C39.8359 56.7685 39.9919 56.7115 40.0752 56.6062C40.1649 56.493 40.3402 56.5372 40.5045 56.7145C40.721 56.9481 40.8293 56.955 40.9954 56.746C41.1302 56.5763 41.2335 56.5594 41.2766 56.7001C41.3141 56.8224 41.6332 56.9261 41.9857 56.9306C42.3383 56.935 42.7534 57.0846 42.9082 57.2631C43.2456 57.6519 43.3587 57.6804 43.3587 57.3766C43.3587 57.2518 43.2797 57.1496 43.1832 57.1496C43.0866 57.1496 43.0353 57.059 43.0693 56.9483C43.1032 56.8377 43.0248 56.6911 42.8951 56.6228C42.7654 56.5544 42.6813 56.3639 42.7082 56.1996C42.7579 55.8963 43.2623 55.7186 44.8229 55.4547C46.2327 55.2163 46.6249 55.088 46.6249 54.8651C46.6249 54.7479 46.5488 54.652 46.4559 54.652C46.3621 54.652 46.287 54.4501 46.287 54.1979C46.287 53.8648 46.3621 53.7438 46.5686 53.7438C46.8925 53.7438 46.9478 53.3941 46.6487 53.2364C46.5379 53.178 45.9678 53.1848 45.3817 53.2515C43.6747 53.4457 42.9919 53.3811 42.6348 52.9915C42.4534 52.7936 42.2725 52.6722 42.2328 52.7216C42.1931 52.7711 42.1816 52.5239 42.2072 52.1723C42.263 51.4053 42.1046 51.2856 40.9482 51.2215C40.2561 51.1831 40.2024 51.1486 40.4429 50.8973C40.8386 50.4839 42.2901 49.8905 43.1557 49.7884C43.598 49.7362 44.0159 49.5497 44.1662 49.3375C44.4861 48.8857 44.6789 48.88 44.8953 49.3161C44.9926 49.5123 45.2637 49.6547 45.5348 49.6518C46.3696 49.6432 49.484 49.0046 49.9068 48.7554C50.3017 48.5227 50.3137 48.4852 50.2304 47.7405C50.1779 47.2712 50.1897 46.8748 50.2604 46.7322C50.3407 46.5702 50.3373 46.4008 50.2493 46.187C49.9802 45.5334 50.3225 45.3981 51.9661 45.5083C53.2432 45.5938 53.6416 45.547 53.9007 45.2805C54.1749 44.9987 55.411 44.6099 56.2543 44.5403C56.3782 44.5301 56.7329 44.4303 57.0427 44.3187L57.6058 44.1157L57.099 43.9505C56.8202 43.8597 55.984 43.8375 55.2407 43.9012C54.4973 43.9649 53.433 44.0034 52.8755 43.9867C52.318 43.9701 51.2284 44.123 50.4541 44.3264C48.922 44.7289 47.3421 45.0104 46.6619 45.0021C46.4247 44.9992 46.1988 45.0861 46.1599 45.1952C46.121 45.3042 45.931 45.4065 45.7376 45.4224C45.5442 45.4384 45.386 45.536 45.386 45.6394C45.386 45.7428 45.272 45.7627 45.1326 45.6837C44.9342 45.5712 44.9159 45.5918 45.0481 45.7784C45.1938 45.984 45.1899 46.0174 45.02 46.0204C44.9116 46.0224 44.8229 46.1378 44.8229 46.277C44.8229 46.4325 44.7158 46.3887 44.5453 46.1635C44.237 45.7562 44.1018 45.6923 44.1955 45.998C44.2295 46.1087 44.1564 46.2524 44.0332 46.3174C43.905 46.3849 43.8092 46.3231 43.8092 46.1729C43.8092 46.0208 43.6314 45.9103 43.3869 45.9103C43.1184 45.9103 42.9742 46.0098 42.9909 46.1833C43.0091 46.3711 42.8877 46.4228 42.6016 46.349C42.1328 46.2279 41.6702 45.6989 41.6677 45.2807C41.6664 45.1019 41.6268 45.1241 41.5568 45.3427C41.472 45.607 41.4472 45.5401 41.4459 45.0439C41.4437 44.225 41.6292 43.5262 41.8489 43.5262C41.9433 43.5262 41.9892 43.4241 41.9509 43.2992C41.9127 43.1743 41.973 43.0643 42.0851 43.0547C42.4562 43.0231 42.6919 42.8855 42.9429 42.554C43.1679 42.2568 43.6966 42.3712 43.6966 42.7171C43.6966 42.7797 43.6287 42.7783 43.5457 42.7138C43.4627 42.6496 43.3234 42.7746 43.236 42.9916C43.0991 43.3316 43.0993 43.3592 43.2372 43.1917C43.3602 43.0422 43.3789 43.0935 43.3179 43.4138C43.2705 43.6629 43.2967 43.9046 43.3832 44.0152C43.5987 44.2908 43.7801 44.239 43.5841 43.9578C43.457 43.7754 43.5223 43.7455 43.8477 43.8368C44.087 43.904 44.3723 43.8424 44.4862 43.699C44.642 43.5028 44.7322 43.5068 44.857 43.7157C44.99 43.9383 45.0389 43.9136 45.1093 43.5885C45.1573 43.3668 45.1886 43.1088 45.1788 43.0151C45.1689 42.9214 45.2327 42.8448 45.3204 42.8448C45.4082 42.8448 45.4993 42.728 45.5229 42.5851C45.5465 42.4423 45.7145 42.2935 45.8963 42.2544C46.078 42.2154 46.2833 42.0273 46.3525 41.8365C46.4217 41.6457 46.5194 41.5646 46.5696 41.6563C46.6198 41.748 46.6291 41.6443 46.5902 41.4257C46.5031 40.9366 46.7185 40.8909 46.8114 41.3788C46.8704 41.6889 46.9024 41.6848 47.0894 41.3436C47.2891 40.9793 47.3008 40.9819 47.3025 41.3905C47.3039 41.7529 47.3219 41.7678 47.4134 41.4825C47.5761 40.9747 47.5529 40.8641 47.2515 40.7116C47.0603 40.6149 46.9823 40.4276 46.9948 40.0947C47.0146 39.5643 47.4069 39.1679 47.8589 39.2214C48.2803 39.2714 48.6522 38.9792 48.6522 38.5983C48.6522 38.3531 48.7642 38.2811 49.0746 38.3268C49.5285 38.3936 50.2921 38.138 50.5669 37.8274C50.7033 37.6731 50.6924 37.6329 50.5105 37.6187C50.3867 37.609 50.0319 37.5531 49.7222 37.4946C48.7645 37.3136 47.4906 37.3193 47.0311 37.5066C46.7156 37.6352 46.6145 37.6136 46.6709 37.4296C46.7193 37.2715 46.6889 37.2204 46.5912 37.296C46.4985 37.3677 46.349 37.1598 46.2302 36.7941C46.0851 36.3477 46.066 36.1439 46.1632 36.0786C46.2544 36.0173 46.2324 35.8819 46.096 35.6662C45.9109 35.3735 45.9228 35.3555 46.2308 35.4634C46.4166 35.5285 46.5053 35.5216 46.4279 35.448C46.1427 35.1769 46.2998 34.8979 46.7376 34.8979C47.022 34.8979 47.1887 35.0025 47.1898 35.1817C47.191 35.3905 47.2171 35.3841 47.2884 35.1575C47.3492 34.9639 47.4115 34.9353 47.456 35.0805C47.5316 35.3271 47.675 35.3079 48.027 35.0041C48.1477 34.8999 48.4131 34.8079 48.6167 34.7995C49.0834 34.7804 49.235 34.2167 48.7733 34.2167C48.5908 34.2167 48.423 34.0691 48.3862 33.8761C48.3425 33.6463 48.3917 33.5356 48.5375 33.5356C48.6564 33.5356 48.7942 33.4078 48.8437 33.2517C48.9729 32.8447 49.4318 32.3626 49.55 32.5098C49.6051 32.5785 49.6821 32.531 49.721 32.404C49.7599 32.2771 49.9316 32.1732 50.1025 32.1732C50.2735 32.1732 50.6886 32.0073 51.025 31.8045C51.5561 31.4844 51.6038 31.4108 51.3869 31.2468C51.2494 31.1429 50.309 31.0717 49.2971 31.0886C48.2852 31.1057 47.391 31.0369 47.3101 30.9361C47.2263 30.8317 47.1297 30.8609 47.0858 31.0041C46.9953 31.2993 43.4943 31.5231 43.4072 31.2392C43.3767 31.1394 43.273 31.1186 43.1769 31.193C43.0585 31.2846 43.0429 31.3791 43.1286 31.4858C43.1982 31.5725 43.101 31.6434 42.9128 31.6434C42.7245 31.6434 42.5705 31.5458 42.5705 31.4264C42.5705 31.307 42.4932 31.3387 42.3988 31.4966C42.3044 31.6546 42.1911 31.7112 42.1471 31.6224C42.1031 31.5336 42.193 31.2677 42.3469 31.0315L42.6268 30.602L42.3452 30.7111C42.0985 30.8067 42.0915 30.7935 42.2889 30.6044C42.6137 30.2933 43.1475 30.3255 43.4604 30.6751C43.7654 31.0159 44.1472 30.9036 44.1472 30.4732C44.1472 30.2749 44.3696 30.1858 44.8793 30.18C45.3386 30.1748 45.6113 30.2646 45.6113 30.4212C45.6113 30.5584 45.6747 30.5032 45.7521 30.2986C45.8538 30.0298 46.1587 29.886 46.8502 29.7808C47.3767 29.7007 48.1274 29.4909 48.5184 29.3148C48.9094 29.1386 49.3909 28.9846 49.5883 28.9727C49.7858 28.9606 50.2008 28.8113 50.5105 28.6408C51.0386 28.3501 50.9789 28.3385 49.5532 28.4547C48.717 28.5228 47.9567 28.5802 47.8638 28.5823C47.7709 28.5843 46.6052 28.8255 45.2735 29.1182C43.9417 29.4109 42.4897 29.6817 42.0469 29.7198C41.6041 29.758 41.265 29.8658 41.2933 29.9594C41.3217 30.0531 41.1265 30.1301 40.8596 30.1306C40.5927 30.1306 39.9182 30.2796 39.3607 30.4605C38.4047 30.7707 36.1559 31.0906 36.4613 30.8729C36.5391 30.8175 36.5741 30.6787 36.5391 30.5644C36.5041 30.4502 36.6178 30.3519 36.7918 30.3459C36.9658 30.34 37.2856 30.1411 37.5024 29.9041C37.7192 29.6672 37.9979 29.378 38.1218 29.2615C38.529 28.8787 45.1715 26.6633 46.7376 26.388C47.2022 26.3063 48.5452 26.0371 49.7221 25.7897C50.8991 25.5424 52.4525 25.2409 53.1741 25.1197C53.8958 24.9985 54.7301 24.7514 55.0282 24.5706C55.4197 24.333 55.5916 24.312 55.6477 24.4951C55.7189 24.7271 56.9038 24.6636 58.3379 24.3508C58.5547 24.3035 59.2389 24.201 59.8584 24.123C60.9699 23.983 62.6633 23.512 63.6111 23.0793C63.8788 22.9571 64.1452 22.9162 64.2032 22.9884C64.2612 23.0607 65.0459 22.8946 65.9469 22.6194C67.2801 22.2123 67.6332 22.1709 67.843 22.3972C68.0539 22.6247 68.3239 22.5865 69.3292 22.1871C71.0026 21.5223 73.1862 20.658 74.2743 20.2298C74.7699 20.0347 75.4898 19.7302 75.8742 19.5531C76.2586 19.376 76.7401 19.2316 76.9442 19.2322C77.1482 19.2322 77.5433 19.0862 77.822 18.9063C78.2918 18.6032 79.2536 18.2668 81.8202 17.5077C83.1387 17.1177 83.4043 17.0277 84.7484 16.5155C85.3679 16.2794 86.3815 15.9177 87.0009 15.7116C87.6204 15.5054 88.2792 15.2861 88.465 15.2242C89.7801 14.7861 90.0305 14.7942 90.292 15.2836C90.4331 15.5477 90.5486 15.8798 90.5486 16.0216C90.5486 16.1634 90.5866 16.2672 90.6331 16.2525C90.6795 16.2378 90.8334 16.2378 90.9749 16.2525C91.1901 16.2749 91.2138 16.3488 91.1196 16.7036C90.9818 17.223 91.0921 17.5031 91.2985 17.1578C91.5307 16.7693 91.4778 17.1187 91.2106 17.7382C91.0705 18.0632 90.789 18.3545 90.53 18.4427C90.1518 18.5715 90.1086 18.6425 90.2297 18.9367C90.4115 19.3782 90.258 19.4056 97.475 17.6451C97.9706 17.5242 98.8575 17.3763 99.4459 17.3164C100.034 17.2565 101.099 17.1 101.811 16.9685C102.523 16.8371 103.461 16.6891 103.895 16.6396C104.328 16.5901 104.883 16.4438 105.128 16.3144C105.373 16.185 106.345 16.0729 107.288 16.0652C108.231 16.0576 109.069 16.0057 109.151 15.9501C109.354 15.8127 111.993 15.534 112.621 15.5836C112.899 15.6056 113.203 15.7649 113.298 15.9377C113.51 16.325 114.051 16.3638 116.565 16.1723C117.72 16.0843 118.782 15.8842 119.13 15.6885C119.585 15.4333 120.339 15.3634 122.34 15.3911C123.778 15.4112 126.172 15.3503 127.658 15.2561C130.671 15.0651 130.51 15.063 133.628 15.3358C135.646 15.5124 136.81 15.5198 138.583 15.367C138.893 15.3403 139.057 15.2717 138.949 15.2146C138.841 15.1575 138.752 15.004 138.752 14.8735C138.752 14.7169 139.068 14.6811 139.681 14.7684C140.192 14.8411 141.725 15.0042 143.088 15.1307C144.451 15.2573 146.199 15.4657 146.974 15.5938C150.084 16.1085 151.271 16.2899 152.886 16.4978C156.927 17.0179 159.057 17.2251 161.277 17.3141C162.299 17.3551 163.566 17.4583 164.093 17.5434C164.619 17.6284 165.405 17.6889 165.838 17.6777C166.272 17.6666 167.133 17.7578 167.753 17.8806C168.372 18.0035 170.378 18.1489 172.211 18.2039C174.043 18.259 175.767 18.4035 176.04 18.5253C176.314 18.647 176.936 18.8019 177.422 18.8695C177.909 18.9372 178.467 19.0451 178.661 19.1093C179.327 19.329 180.367 19.4783 181.887 19.5727C183.226 19.6559 184.527 19.8554 186.449 20.2723C186.758 20.3395 187.189 20.423 187.406 20.4578C187.623 20.4927 188.18 20.5868 188.645 20.667C189.109 20.7471 189.895 20.8752 190.39 20.9516C190.886 21.028 191.317 21.122 191.348 21.1604C191.379 21.1989 191.692 21.2921 192.045 21.3676C192.397 21.4431 192.759 21.5623 192.85 21.6325C192.941 21.7027 193.463 21.7906 194.011 21.8278C195.517 21.93 195.515 21.9293 195.515 22.2963C195.515 22.4836 195.569 22.6369 195.634 22.6369C195.7 22.6369 195.717 22.5174 195.672 22.3713C195.616 22.1901 195.653 22.154 195.787 22.2577C195.895 22.3414 196.096 22.4099 196.232 22.4099C196.4 22.4099 196.486 22.5575 196.497 22.864C196.518 23.4068 196.457 23.4328 196.231 22.9775C195.995 22.5022 195.731 22.5379 195.811 23.0343C195.85 23.2788 195.837 23.334 195.779 23.1779C195.714 23.0049 195.397 22.9725 194.783 23.0759C193.726 23.254 192.928 23.205 191.46 22.8718C190.872 22.7382 190.112 22.574 189.771 22.5068C189.43 22.4397 189.092 22.3458 189.02 22.2981C188.948 22.2504 188.859 22.3664 188.823 22.5558C188.775 22.8108 188.668 22.8603 188.411 22.7466C188.007 22.5679 187.748 22.5 186.674 22.2916C186.24 22.2074 185.855 22.101 185.818 22.0551C185.739 21.9572 184.233 21.9411 182.169 22.0161C180.859 22.0637 179.936 21.9337 179.247 21.6048C178.859 21.4195 176.143 21.3394 176.143 21.5132C176.143 21.6026 176.485 21.7496 176.904 21.8398C177.322 21.9301 177.765 22.0442 177.889 22.0935C178.758 22.439 181.086 22.8263 182.957 22.9368C183.391 22.9625 183.799 23.0526 183.865 23.1371C183.974 23.2777 187.422 23.8199 187.607 23.7255C187.651 23.703 188.068 23.7561 188.532 23.8435C189.25 23.9785 191.085 24.2503 191.545 24.2899C191.711 24.3042 191.731 24.5973 191.578 24.7875C191.469 24.9241 190.62 24.9556 189.851 24.8517C189.617 24.8199 189.384 24.6595 189.333 24.4951C189.265 24.2727 189.072 24.2356 188.577 24.3501C188.212 24.4347 187.879 24.5446 187.837 24.5942C187.796 24.644 187.685 24.5296 187.591 24.3402C187.497 24.1508 187.393 24.0833 187.361 24.1902C187.297 24.3977 185.024 24.3093 184.365 24.0737C184.148 23.9962 183.766 23.9117 183.516 23.886C183.265 23.8602 182.949 23.7183 182.812 23.5706C182.613 23.3559 182.563 23.3629 182.563 23.6053C182.563 23.7837 182.412 23.933 182.197 23.968C181.306 24.1129 180.06 24.0991 179.072 23.9336C178.361 23.8145 178.057 23.8294 178.167 23.978C178.611 24.5773 177.778 24.8729 176.481 24.5763C175.331 24.3134 175.126 24.2996 174.629 24.4516C174.372 24.5301 174.013 24.5134 173.83 24.4144C173.347 24.1539 170.84 23.6925 169.724 23.6588C169.197 23.6429 168.437 23.56 168.034 23.4747C167.632 23.3893 166.821 23.267 166.232 23.2029C165.644 23.1388 164.25 22.9361 163.135 22.7525C162.02 22.5689 160.362 22.35 159.45 22.2661C157.964 22.1294 157.784 22.1528 157.72 22.4917C157.658 22.814 157.463 22.8684 156.393 22.8602C155.703 22.8549 154.911 22.9334 154.632 23.0347L154.125 23.2189L154.97 23.472C155.435 23.6113 155.992 23.7224 156.209 23.719C156.426 23.7153 157.313 23.871 158.18 24.0644C159.047 24.2577 160.694 24.53 161.84 24.6695C162.986 24.8089 164.036 24.9718 164.174 25.0316C164.312 25.0914 165.452 25.2398 166.708 25.3613C168.965 25.5799 170.547 25.7582 171.751 25.9299C172.092 25.9785 173.26 26.1217 174.348 26.2482C175.436 26.3747 176.399 26.5237 176.488 26.5793C176.577 26.6349 176.752 26.7577 176.875 26.8521C176.999 26.9465 177.296 27.0522 177.534 27.0869C177.772 27.1216 178.025 27.3119 178.097 27.5099C178.201 27.7958 178.494 27.882 179.523 27.9286C180.235 27.9609 180.868 28.0502 180.93 28.1269C180.992 28.2037 181.423 28.3265 181.887 28.3998C184.108 28.7501 186.328 29.0346 187.35 29.0998C187.969 29.1394 189.287 29.3502 190.278 29.5682C191.269 29.7863 192.536 29.9986 193.093 30.0401C196.952 30.327 200.034 30.6883 201.653 31.0436C202.21 31.1659 203.188 31.3317 203.824 31.412C204.461 31.4923 205.009 31.6454 205.042 31.7521C205.074 31.8589 204.934 31.9545 204.729 31.9647C204.524 31.9749 204.213 32.004 204.038 32.0297C203.863 32.0553 203.698 32.0043 203.671 31.9165C203.644 31.8286 203.435 31.861 203.206 31.9884C202.974 32.1177 202.464 32.1538 202.052 32.0702C201.647 31.9877 199.49 31.8803 197.261 31.8314C195.031 31.7825 192.37 31.6765 191.348 31.5959C189.526 31.4522 189.01 31.5401 190.205 31.7905C190.536 31.86 190.832 31.9663 190.862 32.0267C190.942 32.1886 190.531 32.5893 190.189 32.6815C189.791 32.7889 189.665 33.0766 190.006 33.1012C190.155 33.1121 190.937 33.2161 191.742 33.3325C192.547 33.4489 194.131 33.6045 195.261 33.6783C197.12 33.7996 197.317 33.8506 197.317 34.2104C197.317 34.7098 197.77 34.8279 200.503 35.0402C201.605 35.1259 202.532 35.2821 202.565 35.3875C202.597 35.4929 202.846 35.5791 203.117 35.5791C204.042 35.5791 203.783 36.2061 202.646 36.7169C202.326 36.861 201.895 36.9602 201.689 36.9372C200.317 36.784 200.677 37.231 202.216 37.592C202.835 37.7373 203.697 37.9057 204.131 37.9661C204.564 38.0266 205.35 38.178 205.876 38.3024C206.403 38.4269 207.467 38.5961 208.241 38.6785C209.195 38.7799 209.686 38.9242 209.762 39.1257C209.824 39.2906 210.226 39.4892 210.663 39.5711C211.096 39.6524 211.502 39.8437 211.564 39.9962C211.626 40.1486 212.047 40.3423 212.499 40.4266C212.951 40.5108 213.435 40.7298 213.574 40.9132C213.733 41.1234 214.22 41.2837 214.891 41.3466C216.338 41.4824 217.472 41.7382 217.535 41.9432C217.601 42.1587 216.615 42.4664 216.463 42.2777C216.401 42.2002 216.35 42.2338 216.35 42.3521C216.35 42.4705 216.528 42.6344 216.745 42.7164C217.173 42.8783 217.254 43.1607 216.942 43.4044C216.574 43.6921 217.089 44.1476 218.247 44.5586C219.219 44.9038 219.834 45.3305 219.386 45.3494C218.965 45.3672 219.615 45.7674 220.291 45.907C220.693 45.9899 221.081 46.1562 221.153 46.2767C221.224 46.3971 221.604 46.5998 221.996 46.727C223.084 47.0804 223.072 47.3643 221.962 47.5403C221.547 47.606 221.168 47.8008 221.054 48.0067C220.894 48.2955 220.698 48.33 219.984 48.1956C218.532 47.9221 218.244 47.9753 218.026 48.5579C217.919 48.8429 217.854 49.1477 217.881 49.235C217.908 49.3224 218.271 49.4654 218.689 49.5528C219.106 49.6402 219.498 49.7919 219.56 49.8899C219.622 49.988 219.914 50.1404 220.208 50.2287C221.015 50.4711 220.85 50.7918 219.917 50.7918C219.463 50.7918 219.053 50.8685 219.006 50.9621C218.959 51.0558 218.486 51.1324 217.956 51.1324C217.285 51.1324 216.977 51.2188 216.943 51.4162C216.91 51.6107 217.031 51.7004 217.326 51.7013C217.564 51.7017 217.936 51.7963 218.152 51.9109C218.369 52.0254 218.976 52.1838 219.5 52.2628C220.024 52.3418 220.51 52.5021 220.58 52.6189C220.65 52.7358 220.737 52.7719 220.773 52.6991C220.809 52.6263 220.956 52.6517 221.1 52.7554C221.303 52.9011 221.183 52.977 220.574 53.0887C219.856 53.2205 219.036 53.5518 218.603 53.8859C218.328 54.0979 218.756 54.3309 220.039 54.6681C220.674 54.835 221.193 55.0322 221.193 55.1062C221.193 55.1803 221.523 55.1986 221.925 55.147C222.514 55.0714 222.657 55.1181 222.657 55.3848C222.657 55.7964 222.301 56.4694 222.085 56.4647C221.953 56.4619 221.955 56.4232 222.094 56.2412C222.238 56.0539 222.233 56.0205 222.062 56.0176C221.952 56.0155 221.832 56.1727 221.795 56.3665C221.738 56.6667 221.534 56.7013 220.419 56.6001C219.021 56.4733 218.677 56.6236 218.935 57.2491C219.366 58.2967 221.125 59.4199 222.334 59.4199C223.064 59.4199 223.446 59.6953 223.446 60.2226C223.446 60.4866 223.265 60.5541 222.573 60.5498C222.093 60.5469 221.497 60.4368 221.249 60.3052C221.002 60.1737 219.834 60.0198 218.655 59.9632C216.57 59.8632 216.511 59.8729 216.494 60.3168C216.478 60.7535 216.615 61.068 216.857 61.1468C216.919 61.167 217.405 61.3489 217.937 61.5509C219.678 62.2122 221.223 62.615 222.805 62.8197C224.271 63.0093 224.771 63.2694 224.619 63.7634C224.585 63.8762 224.508 63.9081 224.449 63.8343C224.39 63.7606 224.355 63.8356 224.372 64.0009C224.389 64.1672 224.315 64.2877 224.207 64.2705C224.099 64.2534 224.036 64.3188 224.065 64.4159C224.095 64.513 223.947 64.6575 223.737 64.737C223.283 64.9089 223.175 65.3182 223.408 65.9882C223.532 66.3453 223.545 66.5582 223.456 66.7731C223.311 67.1256 223.406 67.3669 223.69 67.3669C223.803 67.3669 223.896 67.4096 223.896 67.4618C223.896 67.5141 223.93 67.7335 223.971 67.9495C224.04 68.3104 223.964 68.3301 223.042 68.1918C222.49 68.1089 221.848 67.9805 221.616 67.9062C221.279 67.7988 221.193 67.8436 221.193 68.1254C221.193 68.3202 221.111 68.5718 221.012 68.6844C220.754 68.9753 220.909 70.2835 221.232 70.5465C221.463 70.7345 221.464 70.7454 221.249 70.7743C221.024 70.8046 221.024 70.8046 221.249 70.9998C221.469 71.1901 221.162 71.2715 220.011 71.3282C219.53 71.3518 219.166 71.6574 219.166 72.0368C219.166 72.2395 219.049 72.3633 218.856 72.3652C218.686 72.3673 218.431 72.4305 218.29 72.5066C218.05 72.6363 218.047 72.6638 218.234 72.9504C218.344 73.1184 218.573 73.2591 218.742 73.2631C218.911 73.2672 219.384 73.6279 219.793 74.065C220.205 74.5058 220.7 74.8597 220.904 74.8597C221.587 74.8597 222.652 75.1488 222.599 75.3199C222.571 75.4132 222.633 75.4756 222.739 75.4585C222.844 75.4414 222.948 75.6034 222.97 75.8186C223.022 76.3182 222.357 77.1795 222.014 77.0577C221.876 77.009 221.746 77.0807 221.723 77.2169C221.67 77.5381 220.356 77.6289 219.83 77.3477C219.607 77.2283 218.454 77.1029 217.268 77.069C215.263 77.0118 214.671 77.1277 215.421 77.4311C215.592 77.5 215.959 77.6604 216.238 77.7876C216.516 77.9147 216.96 78.0231 217.223 78.0286C217.486 78.0341 217.702 78.1407 217.702 78.2655C217.702 78.3904 217.781 78.4926 217.878 78.4926C217.975 78.4926 218.159 78.6048 218.286 78.742C218.514 78.9888 218.514 78.9944 218.25 79.2596C217.788 79.724 217.931 80.1621 218.708 80.6598C219.106 80.9152 219.456 81.2728 219.485 81.4545C219.514 81.6362 219.582 81.8441 219.637 81.9166C219.809 82.1444 219.603 82.845 219.408 82.6942C219.31 82.6179 219.26 82.6183 219.298 82.695C219.336 82.7716 219.24 83.0918 219.083 83.4066C218.878 83.8207 218.666 83.9893 218.318 84.0165C218.052 84.0372 217.856 84.121 217.881 84.2026C217.906 84.2843 217.441 84.301 216.849 84.2399C215.987 84.1509 215.733 84.1976 215.582 84.4728C215.372 84.855 214.266 85.0125 213.689 84.7424C213.469 84.6393 213.308 84.6711 213.26 84.8274C213.218 84.9648 213.064 85.0773 212.918 85.0773C212.579 85.0773 212.296 85.2951 212.296 85.5557C212.296 85.6672 212.369 85.7585 212.459 85.7585C212.549 85.7585 212.665 85.9134 212.718 86.1027C212.777 86.3164 213.218 86.6055 213.878 86.8645C215.179 87.3749 216.137 88.1552 216.047 88.6311C216.012 88.8138 215.911 88.9076 215.823 88.8394C215.735 88.7712 215.691 88.8078 215.726 88.9206C215.76 89.0335 215.656 89.4442 215.493 89.8333C215.276 90.354 215.138 90.5024 214.972 90.3958C214.846 90.3155 214.774 90.3431 214.809 90.4577C214.844 90.5714 214.696 90.6746 214.48 90.6869C214.265 90.6992 213.733 90.885 213.298 91.0998L212.508 91.4904L212.759 92.0302C212.898 92.3272 213.058 92.5701 213.115 92.5701C213.172 92.5701 213.393 92.7365 213.606 92.9399C213.976 93.2945 213.985 93.3313 213.821 93.8363C213.713 94.1681 213.692 94.4151 213.763 94.5039C213.825 94.5815 213.844 94.751 213.804 94.8806C213.757 95.0326 213.697 95.0069 213.633 94.8081C213.569 94.6083 213.505 94.5815 213.45 94.7318C213.404 94.8592 213.214 95.1113 213.028 95.2919L212.69 95.6205L213.046 95.6976C213.432 95.7812 213.639 96.3638 213.359 96.5802C213.264 96.6534 213.159 96.6568 213.125 96.5877C213.091 96.5187 212.894 96.6533 212.688 96.8868C212.482 97.1202 212.12 97.3841 211.885 97.4732C211.649 97.5622 211.389 97.7726 211.305 97.9408C211.108 98.3391 211.03 98.3303 209.984 97.7907C209.045 97.3064 208.78 97.3516 208.394 98.0617C208.177 98.4622 208.089 98.4819 207.501 98.2626C206.729 97.9749 205.275 97.9381 205.358 98.2083C205.39 98.3122 205.785 98.5243 206.237 98.6796C207.388 99.0754 207.518 99.1604 207.329 99.396C207.001 99.8043 208.469 100.768 209.903 101.087C210.29 101.173 210.631 101.323 210.661 101.421C210.691 101.519 210.61 101.871 210.48 102.204C210.262 102.764 210.257 102.841 210.425 103.214C210.525 103.436 210.606 103.674 210.606 103.742C210.606 104.023 208.699 103.619 208.072 103.206C207.171 102.611 205.345 102.178 205.177 102.518C205.088 102.697 205.087 102.852 205.174 103.064C205.292 103.35 205.472 103.472 206.974 104.284C207.443 104.537 207.678 104.778 207.678 105.006C207.678 105.293 207.545 105.324 206.843 105.195C206.307 105.097 205.981 105.127 205.935 105.277C205.895 105.407 205.925 105.512 206.001 105.512C206.077 105.512 206.113 105.565 206.081 105.63C206.005 105.782 204.41 105.107 204.252 104.856C204.127 104.658 202.482 104.148 202.131 104.198C202.023 104.213 201.934 104.353 201.934 104.51C201.934 104.666 201.908 104.932 201.876 105.1C201.821 105.391 203.196 105.979 205.566 106.677C205.922 106.782 206.397 107.023 206.622 107.212C206.846 107.401 207.188 107.556 207.382 107.557C207.892 107.559 208.625 108.009 208.507 108.247C208.452 108.358 207.766 108.477 206.982 108.513C206.199 108.548 205.566 108.595 205.577 108.616C205.587 108.637 205.846 108.853 206.152 109.095C206.685 109.517 206.698 109.548 206.454 109.81C206.263 110.016 206.059 110.024 205.638 109.842C204.953 109.546 204.863 109.542 204.863 109.808C204.863 109.923 205.014 110.084 205.199 110.166C205.815 110.439 205.681 110.735 204.943 110.735C204.513 110.735 204.078 110.879 203.867 111.091C203.653 111.306 203.414 111.384 203.263 111.288C202.942 111.082 197.654 111.004 197.716 111.206C197.847 111.633 196.37 111.631 195.109 111.201C192.556 110.333 190.384 109.839 188.982 109.808C188.208 109.792 187.042 109.638 186.392 109.466C185.742 109.295 184.583 109.049 183.817 108.92C183.051 108.791 182.393 108.647 182.353 108.599C182.314 108.551 181.901 108.446 181.437 108.366C180.972 108.287 180.415 108.178 180.198 108.125C179.746 108.015 177.692 107.784 176.2 107.676C175.12 107.597 173.48 107.389 172.37 107.188C171.999 107.121 170.554 107.023 169.161 106.969C167.767 106.916 166.12 106.789 165.5 106.687C164.881 106.584 163.168 106.511 161.693 106.523C159.463 106.542 158.994 106.602 158.906 106.88C158.815 107.164 158.784 107.167 158.698 106.898C158.63 106.687 158.485 106.626 158.264 106.716C158.08 106.79 157.876 106.738 157.808 106.601C157.74 106.465 157.517 106.331 157.313 106.305C157.108 106.278 156.839 106.196 156.715 106.122C156.041 105.72 155.337 105.602 155.054 105.846C154.827 106.041 154.259 105.81 154.337 105.554C154.366 105.46 153.824 105.356 153.131 105.322C151.267 105.232 151.074 105.19 150.863 104.837C150.691 104.55 150.674 104.564 150.708 104.957C150.734 105.256 150.692 105.372 150.577 105.318C150.485 105.273 150.294 105.235 150.155 105.233C150.016 105.23 149.902 105.15 149.902 105.054C149.902 104.958 149.82 104.816 149.72 104.739C149.588 104.637 149.557 104.696 149.606 104.954C149.653 105.198 149.63 105.253 149.534 105.13C149.458 105.032 148.913 104.919 148.325 104.88C147.087 104.797 147.271 104.798 141.455 104.84C139.008 104.857 136.693 104.798 136.31 104.707C135.927 104.617 135.528 104.609 135.424 104.69C135.232 104.838 131.553 105.131 130.423 105.088C129.539 105.054 128.536 106.102 129.094 106.477C129.177 106.533 129.12 106.693 128.953 106.87C128.799 107.035 128.644 107.256 128.609 107.361C128.485 107.742 127.529 107.954 127.257 107.662C127.086 107.477 126.633 107.411 125.92 107.466C125.326 107.512 123.377 107.604 121.589 107.669C119.8 107.735 118.213 107.851 118.063 107.928C117.912 108.004 117.273 108.082 116.642 108.101C116.011 108.12 115.393 108.25 115.27 108.391C115.048 108.642 114.003 109.054 113.829 108.959C113.613 108.843 113.213 108.872 112.848 109.031C112.631 109.126 112.353 109.186 112.229 109.165C112.105 109.144 111.902 109.109 111.778 109.087C111.654 109.065 111.072 109.167 110.483 109.314C109.895 109.46 109.194 109.578 108.926 109.576C108.658 109.573 108.38 109.668 108.307 109.786C108.234 109.904 108.01 110.072 107.808 110.158C107.509 110.288 107.442 110.246 107.442 109.932C107.442 109.592 107.349 109.566 106.626 109.708C106.177 109.797 104.998 109.893 104.007 109.921C103.016 109.95 101.932 110.094 101.598 110.24C101.265 110.387 100.967 110.507 100.937 110.507C100.907 110.507 100.945 110.66 101.023 110.848C101.1 111.035 101.334 111.188 101.543 111.188C101.752 111.188 101.924 111.231 101.924 111.283C101.924 111.335 101.954 111.54 101.992 111.737C102.086 112.23 101.769 112.206 101.518 111.701C101.377 111.415 101.309 111.384 101.275 111.589C101.25 111.745 101.182 111.815 101.126 111.744C101.069 111.673 101.023 111.698 101.023 111.799C101.023 111.9 100.909 111.996 100.769 112.011C100.63 112.026 99.8569 112.154 99.0516 112.296C98.2464 112.437 96.6246 112.594 95.4477 112.644C94.2707 112.694 93.1811 112.791 93.0262 112.859C92.5015 113.091 89.6167 113.629 88.0707 113.783C85.2062 114.069 83.0345 114.895 82.5867 115.869C82.4466 116.174 82.1998 116.42 82.0225 116.431C80.5651 116.527 78.5412 116.833 77.6529 117.092C77.2813 117.2 76.6293 117.352 76.2041 117.428C75.7789 117.505 75.1764 117.665 74.8654 117.784C74.5543 117.903 74.2813 118 74.2588 118C74.2363 118 74.2179 117.739 74.2179 117.419ZM74.2179 115.353C74.2179 115.105 74.168 115.086 73.9969 115.271C73.8648 115.414 73.8021 115.648 73.8411 115.853C73.8914 116.117 73.9421 116.136 74.0621 115.935C74.1478 115.792 74.2179 115.53 74.2179 115.353ZM93.1952 111.976C93.6358 111.658 93.6247 111.653 92.6884 111.764C90.5443 112.017 89.8728 112.146 89.8728 112.302C89.8728 112.598 92.7213 112.319 93.1952 111.976ZM40.881 109.234C40.881 109.185 40.805 109.145 40.7121 109.145C40.6192 109.145 40.5431 109.244 40.5431 109.365C40.5431 109.486 40.6192 109.526 40.7121 109.454C40.805 109.383 40.881 109.284 40.881 109.234ZM49.0463 108.464C49.0856 108.336 48.9934 108.237 48.8343 108.237C48.6795 108.237 48.5215 108.339 48.4832 108.464C48.4439 108.592 48.5361 108.691 48.6951 108.691C48.85 108.691 49.008 108.589 49.0463 108.464ZM43.6966 107.302C43.6966 107.068 43.5618 107.046 43.3116 107.24C43.029 107.458 43.1049 107.731 43.4151 107.611C43.5699 107.552 43.6966 107.413 43.6966 107.302ZM107.424 107.265C107.808 107.05 107.861 106.967 107.671 106.876C107.371 106.733 103.788 107.036 101.867 107.368C101.345 107.458 105.375 107.678 106.203 107.604C106.606 107.569 107.155 107.416 107.424 107.265ZM111.328 106.567C111.452 106.507 111.224 106.467 110.821 106.478C109.86 106.502 109.48 106.71 110.089 106.879C110.337 106.948 110.666 106.929 110.821 106.839C110.976 106.748 111.204 106.626 111.328 106.567ZM39.4543 106.633C39.6862 106.62 39.6846 106.608 39.4242 106.398C39.1172 106.151 38.8538 106.274 38.8538 106.665C38.8538 106.807 38.9338 106.861 39.0319 106.785C39.1299 106.71 39.3199 106.641 39.4543 106.633ZM113.02 106.378C113.05 106.317 112.849 106.25 112.574 106.229C112.299 106.208 112.039 106.305 111.996 106.445C111.941 106.623 112.074 106.667 112.442 106.593C112.729 106.535 112.99 106.438 113.02 106.378ZM201.09 103.696C201.133 103.555 200.953 103.479 200.618 103.496C200.137 103.52 200.114 103.542 200.414 103.696C200.907 103.949 201.012 103.949 201.09 103.696ZM27.4998 100.362C27.4185 100.296 27.3213 100.305 27.2839 100.38C27.2465 100.455 27.313 100.509 27.4317 100.499C27.5629 100.488 27.5896 100.435 27.4998 100.362ZM28.8302 100.063C29.0565 99.9169 29.0676 99.8799 28.8865 99.8746C28.7626 99.8709 28.5599 99.9557 28.436 100.063C28.149 100.312 28.4451 100.312 28.8302 100.063ZM30.3414 100.152C30.4394 100.076 30.5195 99.8308 30.5195 99.6062C30.5195 99.2584 30.4487 99.2159 30.0409 99.3186C29.5234 99.449 29.1857 99.836 29.5894 99.836C29.722 99.836 29.8618 99.9382 29.9001 100.063C29.9802 100.324 30.0902 100.347 30.3414 100.152ZM213.309 96.2031C213.309 96.0782 213.221 95.9776 213.112 95.9795C212.944 95.9824 212.94 96.015 213.084 96.2031C213.297 96.48 213.309 96.48 213.309 96.2031ZM33.131 86.9658C33.0497 86.9002 32.9526 86.9083 32.9152 86.9837C32.8777 87.0592 32.9443 87.1128 33.063 87.103C33.1942 87.092 33.2209 87.0383 33.131 86.9658ZM32.2089 86.3033C32.2089 85.9333 31.8957 85.8916 31.4842 86.2071C31.0362 86.5504 31.1425 86.792 31.7021 86.7023C32.0421 86.6478 32.2089 86.5165 32.2089 86.3033ZM34.3009 86.4671C34.1884 86.1003 33.7857 86.0067 33.7857 86.3475C33.7857 86.5387 33.9013 86.6668 34.0739 86.6668C34.2324 86.6668 34.3345 86.5769 34.3009 86.4671ZM33.4478 86.2127C33.5734 86.049 33.5085 85.9917 33.1944 85.9891C32.9621 85.987 32.772 86.0878 32.772 86.2127C32.772 86.5019 33.2258 86.5019 33.4478 86.2127ZM221.193 59.6472C221.193 59.5223 221.142 59.4201 221.081 59.4201C221.019 59.4201 220.968 59.5223 220.968 59.6472C220.968 59.7721 221.019 59.8743 221.081 59.8743C221.142 59.8743 221.193 59.7721 221.193 59.6472ZM222.01 55.4098C221.932 55.3468 221.806 55.3468 221.728 55.4098C221.651 55.4728 221.714 55.5244 221.869 55.5244C222.024 55.5244 222.087 55.4728 222.01 55.4098ZM220.32 52.6753C220.181 52.6212 219.953 52.6212 219.814 52.6753C219.674 52.7294 219.788 52.7737 220.067 52.7737C220.346 52.7737 220.46 52.7294 220.32 52.6753ZM215.111 50.8423C215.111 50.7451 214.693 50.5444 214.182 50.3963C213.671 50.2482 213.131 50.0562 212.982 49.9697C212.814 49.8719 212.737 49.8974 212.78 50.0369C212.818 50.1605 213.295 50.3916 213.839 50.5504C214.384 50.7093 214.881 50.8717 214.943 50.9113C215.004 50.9509 215.068 50.9913 215.083 51.0012C215.099 51.011 215.111 50.9396 215.111 50.8423ZM50.8483 48.7485C51.0494 48.5743 51.0411 48.5517 50.7705 48.5374C50.6038 48.5286 50.4361 48.6237 50.3978 48.7485C50.3147 49.0196 50.5354 49.0196 50.8483 48.7485ZM214.323 47.4183C214.323 47.311 213.814 47.1067 213.193 46.9642C211.793 46.6432 211.541 46.6367 211.684 46.9253C211.744 47.0464 212.35 47.2365 213.03 47.3477C213.71 47.4588 214.279 47.5641 214.295 47.5815C214.31 47.599 214.323 47.5255 214.323 47.4183ZM44.5297 44.6994C44.5616 44.5953 44.5139 44.5102 44.4237 44.5102C44.3335 44.5102 44.2597 44.5953 44.2597 44.6994C44.2597 44.8034 44.3074 44.8886 44.3657 44.8886C44.424 44.8886 44.4978 44.8034 44.5297 44.6994ZM59.5978 44.2794C59.5165 44.2138 59.4194 44.2219 59.382 44.2973C59.3445 44.3727 59.4111 44.4264 59.5298 44.4165C59.661 44.4056 59.6877 44.3519 59.5978 44.2794ZM42.1199 43.9804C42.1199 43.8555 42.0312 43.7549 41.9228 43.7568C41.7543 43.7597 41.7503 43.7922 41.8946 43.9804C42.1072 44.2573 42.1199 44.2573 42.1199 43.9804ZM42.5704 43.6264C42.5704 43.5713 42.5197 43.5263 42.4578 43.5263C42.3958 43.5263 42.3451 43.6345 42.3451 43.7667C42.3451 43.899 42.3958 43.944 42.4578 43.8668C42.5197 43.7897 42.5704 43.6815 42.5704 43.6264ZM48.99 42.0455C49.1448 41.9582 49.6263 41.8015 50.0599 41.6973C50.4935 41.5931 51.0257 41.3998 51.2425 41.2678C51.4593 41.1358 51.6367 41.0363 51.6367 41.0468C51.6367 41.1338 52.4081 40.648 52.7911 40.3197C53.3721 39.8218 53.4088 39.4393 52.8755 39.4393C52.6002 39.4393 52.4813 39.3366 52.4813 39.0987C52.4813 38.7495 52.9854 38.6115 53.8221 38.7315C54.1866 38.7838 55.2267 38.3925 55.4648 38.1134C55.6426 37.905 55.0743 37.6701 54.3329 37.6455C53.8505 37.6294 53.4396 37.7893 52.9319 38.1905C52.5367 38.5027 52.109 38.7597 51.9813 38.7616C51.7965 38.7645 51.7826 38.8075 51.9129 38.9736C52.0028 39.0884 52.1168 39.1319 52.1663 39.0703C52.2157 39.0087 52.2561 39.055 52.2561 39.173C52.2561 39.3763 52.0096 39.5199 51.1494 39.8175C50.9433 39.8888 50.7473 40.0909 50.7139 40.2666C50.6641 40.5279 50.6208 40.5333 50.4762 40.2965C50.328 40.054 50.3101 40.0651 50.3656 40.3647C50.4142 40.6264 50.3669 40.7123 50.1896 40.6845C50.0563 40.6637 49.7791 40.7393 49.5736 40.8526C49.3144 40.9954 49.1504 40.9759 49.0386 40.7888C48.9479 40.637 48.8774 40.617 48.8774 40.743C48.8774 40.9934 48.0192 41.7098 47.7192 41.7098C47.6129 41.7098 47.5259 41.8495 47.5259 42.0203C47.5259 42.2514 47.6769 42.3145 48.1171 42.2674C48.4424 42.2326 48.8351 42.1328 48.99 42.0455ZM53.623 33.8111C53.5417 33.7565 53.4217 33.8197 53.3563 33.9517C53.2727 34.1202 53.3167 34.1497 53.504 34.051C53.6563 33.9707 53.7073 33.8678 53.623 33.8111ZM189.658 32.9114C189.658 32.8178 189.504 32.7194 189.316 32.6929C189.121 32.6652 189.003 32.7381 189.041 32.8632C189.12 33.1193 189.658 33.1614 189.658 32.9114ZM53.9455 31.481L54.227 31.4636L53.9643 31.2513C53.6676 31.0114 53.1571 31.1962 53.1571 31.5434C53.1571 31.67 53.2704 31.7111 53.4105 31.6354C53.5499 31.5601 53.7906 31.4907 53.9455 31.481ZM188.757 31.5302C188.757 31.4261 188.681 31.341 188.588 31.341C188.495 31.341 188.419 31.4261 188.419 31.5302C188.419 31.6342 188.495 31.7194 188.588 31.7194C188.681 31.7194 188.757 31.6342 188.757 31.5302ZM189.229 31.5643C189.148 31.4987 189.05 31.5068 189.013 31.5822C188.976 31.6576 189.042 31.7113 189.161 31.7014C189.292 31.6906 189.319 31.6367 189.229 31.5643ZM55.8812 31.1102C55.7999 31.0446 55.7028 31.0527 55.6653 31.1281C55.6279 31.2035 55.6944 31.2572 55.8132 31.2473C55.9444 31.2365 55.9711 31.1826 55.8812 31.1102ZM43.2461 30.8111C43.2461 30.6863 43.1954 30.5841 43.1335 30.5841C43.0716 30.5841 43.0209 30.6863 43.0209 30.8111C43.0209 30.936 43.0716 31.0382 43.1335 31.0382C43.1954 31.0382 43.2461 30.936 43.2461 30.8111ZM46.1744 30.2157C46.1744 29.9613 45.9629 30.1844 45.9023 30.5027C45.843 30.8143 45.8594 30.8284 46.0029 30.5884C46.0972 30.4306 46.1744 30.2629 46.1744 30.2157ZM47.3006 30.2435C47.3006 30.0562 47.2807 29.9029 47.2564 29.9029C47.232 29.9029 47.1829 30.0562 47.1473 30.2435C47.1116 30.4309 47.1315 30.5841 47.1915 30.5841C47.2515 30.5841 47.3006 30.4309 47.3006 30.2435ZM194.747 22.4821C194.666 22.4165 194.569 22.4246 194.532 22.5C194.494 22.5754 194.561 22.6291 194.679 22.6192C194.811 22.6084 194.837 22.5546 194.747 22.4821ZM91.0505 17.8847C91.0861 17.7684 91.0691 17.6157 91.0126 17.5454C90.9562 17.475 90.8809 17.5702 90.8454 17.7568C90.7754 18.1246 90.9446 18.2301 91.0505 17.8847ZM37.5925 115.332C37.5277 115.176 37.5189 115.046 37.5729 115.042C37.627 115.038 37.5764 114.924 37.4606 114.788C37.1635 114.44 37.4267 114.142 38.0091 114.167C38.3132 114.179 38.3864 114.234 38.2343 114.333C38.0197 114.474 37.8598 115.052 38.0372 115.046C38.3679 115.033 38.6067 114.737 38.5552 114.402C38.5049 114.075 38.5183 114.078 38.6599 114.424C38.8523 114.895 39.7093 114.982 39.7834 114.538C39.821 114.312 39.8668 114.314 40.0058 114.545C40.2251 114.91 40.3545 115.796 40.1682 115.658C40.0957 115.604 40.0527 115.422 40.0728 115.254C40.0983 115.04 40.0466 115.062 39.9009 115.328C39.7344 115.632 39.4928 115.699 38.7014 115.662C38.0721 115.633 37.6674 115.513 37.5925 115.332ZM36.0465 114.832C35.8965 114.645 35.9686 114.14 36.1454 114.14C36.2738 114.14 36.3866 114.782 36.2813 114.913C36.2345 114.971 36.1289 114.935 36.0465 114.832ZM38.4294 113.005C38.3048 112.603 38.3178 112.547 38.5431 112.516C38.683 112.497 38.8735 112.465 38.9664 112.445C39.2668 112.379 39.3233 112.586 39.1252 113.028C38.8749 113.585 38.6064 113.577 38.4294 113.005ZM106.654 111.316C106.654 111.261 106.705 111.152 106.766 111.075C106.828 110.998 106.879 111.043 106.879 111.175C106.879 111.308 106.828 111.416 106.766 111.416C106.705 111.416 106.654 111.371 106.654 111.316ZM107.975 111.161C108.052 111.005 108.143 110.936 108.177 111.006C108.212 111.075 108.149 111.202 108.038 111.288C107.878 111.411 107.865 111.385 107.975 111.161ZM47.5259 110.535C47.5259 110.426 47.604 110.205 47.6996 110.045C47.8346 109.819 47.9033 109.815 48.0084 110.027C48.1134 110.239 48.106 110.347 47.9754 110.514C47.763 110.784 47.5259 110.796 47.5259 110.535ZM174.679 108.464C174.679 108.339 174.752 108.237 174.841 108.237C174.931 108.237 175.035 108.339 175.073 108.464C175.112 108.589 175.039 108.691 174.911 108.691C174.784 108.691 174.679 108.589 174.679 108.464ZM172.765 108.223C172.765 107.964 173.067 107.938 173.144 108.19C173.175 108.289 173.102 108.385 172.982 108.403C172.862 108.421 172.765 108.34 172.765 108.223ZM61.074 107.857C60.9726 107.324 61.127 107.246 61.5163 107.633C61.7194 107.835 61.8348 108.015 61.7729 108.034C61.2982 108.178 61.1268 108.134 61.074 107.857ZM158.461 107.329C158.461 107.204 158.484 107.102 158.511 107.102C158.538 107.102 158.592 107.204 158.63 107.329C158.668 107.454 158.646 107.556 158.58 107.556C158.515 107.556 158.461 107.454 158.461 107.329ZM156.837 107.132C156.789 106.974 156.78 106.783 156.817 106.708C156.918 106.505 157.028 106.804 156.973 107.133C156.935 107.364 156.908 107.364 156.837 107.132ZM157.251 107.178C157.02 106.991 157.091 106.68 157.335 106.809C157.459 106.874 157.56 107.018 157.56 107.128C157.56 107.345 157.472 107.359 157.251 107.178ZM211.245 106.042C211.115 105.781 211.163 105.512 211.339 105.512C211.431 105.512 211.507 105.666 211.507 105.853C211.507 106.207 211.374 106.303 211.245 106.042ZM71.4731 104.651C71.4427 104.552 71.5169 104.456 71.6378 104.438C71.7587 104.42 71.8282 104.501 71.7923 104.618C71.7125 104.878 71.5479 104.895 71.4731 104.651ZM72.4883 104.261C72.5237 104.075 72.6359 103.915 72.7377 103.905C72.8395 103.896 73.1508 103.842 73.4296 103.786C73.7951 103.712 73.8893 103.747 73.7674 103.913C73.6281 104.103 73.6264 104.144 73.758 104.147C73.8458 104.149 73.886 104.214 73.8474 104.291C73.8088 104.369 73.4727 104.47 73.1005 104.516C72.5368 104.586 72.4346 104.543 72.4883 104.261ZM26.5262 103.712C26.4429 103.44 26.6547 103.171 26.8048 103.358C26.9307 103.515 26.848 103.923 26.6903 103.923C26.6357 103.923 26.5618 103.828 26.5262 103.712ZM27.5913 97.8059C27.5913 97.6883 27.6414 97.5298 27.7026 97.4535C27.7665 97.3739 27.7853 97.4651 27.7469 97.6671C27.672 98.0605 27.5913 98.1325 27.5913 97.8059ZM28.4172 97.6889C28.4172 97.5071 28.4603 97.412 28.5129 97.4775C28.5655 97.5431 28.5794 97.6919 28.5438 97.8081C28.4527 98.1052 28.4172 98.0718 28.4172 97.6889ZM224.685 68.0482C224.592 67.9271 224.566 67.8281 224.628 67.8281C224.69 67.8281 224.817 67.9271 224.91 68.0482C225.003 68.1693 225.028 68.2683 224.966 68.2683C224.904 68.2683 224.777 68.1693 224.685 68.0482ZM39.6421 51.1978C39.6421 51.0995 39.7435 51.0191 39.8674 51.0191C39.9913 51.0191 40.0926 51.1149 40.0926 51.232C40.0926 51.3491 39.9913 51.4296 39.8674 51.4107C39.7435 51.3919 39.6421 51.2961 39.6421 51.1978ZM44.3585 47.8633L44.0944 47.4321L44.7683 47.2518C45.139 47.1525 45.7083 47.0656 46.0335 47.0585C46.3586 47.0514 46.6247 46.9761 46.6247 46.8912C46.6248 46.7144 47.2957 47.0664 47.4004 47.2983C47.4384 47.3825 47.3132 47.3916 47.1221 47.3184C46.9082 47.2366 46.6485 47.3201 46.4464 47.5353C46.2658 47.7277 45.852 47.8951 45.5268 47.9072C45.2016 47.9192 44.9355 48.0113 44.9355 48.1118C44.9355 48.4373 44.6293 48.3054 44.3585 47.8633ZM42.9388 47.9302C42.9762 47.8547 43.0733 47.8466 43.1546 47.9123C43.2445 47.9847 43.2178 48.0385 43.0866 48.0494C42.9678 48.0593 42.9013 48.0056 42.9388 47.9302ZM40.8899 44.794C40.885 44.5546 40.9116 44.4205 40.9491 44.4959C40.9865 44.5714 40.9905 44.7672 40.9579 44.9311C40.922 45.1123 40.8953 45.0585 40.8899 44.794ZM43.9658 42.8856C43.9972 42.783 43.9192 42.52 43.7925 42.3012C43.5657 41.9097 43.5732 41.8927 44.2589 41.2389C45.0847 40.4515 45.1607 40.4338 45.1607 41.0286C45.1607 41.3084 45.0851 41.4841 44.9637 41.4862C44.8039 41.4891 44.7968 41.5282 44.9259 41.693C45.0135 41.8048 45.1782 41.8602 45.2919 41.8161C45.4056 41.772 45.4986 41.84 45.4986 41.9673C45.4986 42.0945 45.3339 42.1805 45.1326 42.1583C44.9313 42.1361 44.6652 42.1298 44.5413 42.1444C44.3537 42.1665 44.3443 42.2076 44.485 42.391C44.6294 42.5791 44.6253 42.6116 44.4568 42.6146C44.3484 42.6166 44.2597 42.7203 44.2597 42.8451C44.2597 42.97 44.1807 43.0722 44.0842 43.0722C43.9876 43.0722 43.9343 42.9882 43.9658 42.8856ZM45.4058 41.0534C45.2926 40.9123 45.297 40.8176 45.4269 40.6002C45.6092 40.2953 45.7544 40.5616 45.629 40.9707C45.5843 41.1166 45.4858 41.153 45.4058 41.0534ZM41.5004 31.4923C41.4622 31.3674 41.5069 31.2652 41.5998 31.2652C41.6927 31.2652 41.8 31.3674 41.8383 31.4923C41.8766 31.6172 41.8319 31.7194 41.739 31.7194C41.6461 31.7194 41.5387 31.6172 41.5004 31.4923ZM43.8071 30.4757C43.9693 30.0818 44.0345 30.0408 44.0345 30.3327C44.0345 30.4443 43.9513 30.5998 43.8496 30.6785C43.6951 30.7981 43.6881 30.7649 43.8071 30.4757ZM202.98 26.8116C203.112 26.5454 203.833 26.3368 203.978 26.5227C204.062 26.6297 204.08 26.7289 204.018 26.7432C203.412 26.8833 202.928 26.9151 202.98 26.8116ZM202.296 26.5314C202.202 26.4117 202.272 26.3457 202.493 26.3457C202.681 26.3457 202.835 26.4309 202.835 26.5349C202.835 26.7766 202.486 26.7746 202.296 26.5314ZM199.4 26.2416C198.918 26.024 197.748 25.8679 195.561 25.7296C194.812 25.6823 194.091 25.5266 193.958 25.3837C193.814 25.2283 193.31 25.1492 192.702 25.1867C192.143 25.2213 191.685 25.2263 191.685 25.1978C191.685 25.1188 192.341 24.4534 192.419 24.4534C192.456 24.4534 192.456 24.5556 192.418 24.6805C192.377 24.8129 192.492 24.9075 192.693 24.9075C192.882 24.9075 193.037 24.8053 193.037 24.6805C193.037 24.5556 193.091 24.4534 193.156 24.4534C193.222 24.4534 193.238 24.5811 193.191 24.7372C193.128 24.9471 193.149 24.9611 193.269 24.7911C193.358 24.6646 193.533 24.5729 193.656 24.5872C193.78 24.6015 194.151 24.6284 194.48 24.6469C194.809 24.6653 195.054 24.7571 195.025 24.8508C194.997 24.9444 195.285 25.0061 195.666 24.9878C196.048 24.9693 196.448 25.0498 196.557 25.1661C196.688 25.3073 196.754 25.295 196.754 25.1292C196.754 24.9926 196.815 24.9571 196.89 25.0504C196.965 25.1437 197.459 25.2479 197.988 25.282C198.517 25.316 198.95 25.356 198.95 25.3708C198.95 25.3857 199.203 25.4308 199.513 25.4713C199.823 25.5118 200.089 25.5675 200.104 25.5952C200.131 25.6424 200.247 25.7112 200.442 25.7955C200.532 25.8341 200.003 26.4936 199.907 26.4628C199.876 26.4528 199.648 26.3534 199.4 26.2416ZM194.839 25.1064C194.839 24.9971 194.741 24.9077 194.62 24.9077C194.5 24.9077 194.374 24.9971 194.341 25.1064C194.307 25.2156 194.406 25.305 194.559 25.305C194.713 25.305 194.839 25.2156 194.839 25.1064ZM200.863 24.4499C200.824 24.323 200.745 24.2779 200.688 24.3497C200.63 24.4216 200.583 24.3782 200.583 24.2533C200.583 23.8137 200.765 23.8068 200.899 24.2413C200.974 24.483 201.012 24.6807 200.985 24.6807C200.957 24.6807 200.902 24.5768 200.863 24.4499ZM198.452 23.5643C198.334 23.3249 198.213 23.1765 198.184 23.2344C198.156 23.2923 197.885 23.3739 197.584 23.4158C197.061 23.4883 196.413 23.0205 196.578 22.6894C196.709 22.4243 197.487 22.4863 197.657 22.7754C197.831 23.0715 198.148 23.0813 198.29 22.7949C198.409 22.554 198.984 22.6068 199.063 22.8661C199.171 23.219 199.01 23.9993 198.83 23.9993C198.741 23.9993 198.571 23.8036 198.452 23.5643ZM199.615 23.7373C199.567 23.5809 199.584 23.5366 199.657 23.6275C199.724 23.7113 199.811 23.676 199.85 23.5491C199.955 23.2067 200.095 23.2696 200.095 23.6589C200.095 24.0588 199.732 24.1182 199.615 23.7373ZM67.9414 22.0459C67.9789 21.9704 68.076 21.9623 68.1573 22.028C68.2472 22.1004 68.2205 22.1542 68.0893 22.1652C67.9705 22.175 67.904 22.1213 67.9414 22.0459ZM90.6611 15.5984C90.6611 15.4735 90.6835 15.3714 90.7108 15.3714C90.7381 15.3714 90.7918 15.4735 90.8301 15.5984C90.8684 15.7233 90.846 15.8255 90.7804 15.8255C90.7148 15.8255 90.6611 15.7233 90.6611 15.5984ZM93.2873 15.6214C93.1055 15.3521 93.149 14.9651 93.3492 15.0707C93.4769 15.138 93.5588 15.0454 93.5706 14.8203C93.5809 14.6239 93.5978 14.3099 93.6081 14.1226C93.6185 13.9352 93.7198 13.7692 93.8334 13.7536C93.947 13.7379 94.0779 13.7041 94.1243 13.6783C94.1708 13.6525 94.3609 13.5491 94.5467 13.4483C94.9599 13.2244 95.1844 12.89 95.1019 12.621C95.068 12.5103 95.1403 12.4197 95.2627 12.4197C95.3851 12.4197 95.5109 12.5474 95.5423 12.7035C95.582 12.9007 95.6279 12.9129 95.6925 12.7437C95.8579 12.3108 96.2027 12.1756 96.3846 12.4725C96.5306 12.7109 96.5443 12.7049 96.4644 12.4378C96.3912 12.1929 96.4153 12.152 96.5647 12.2675C96.6728 12.3512 96.8297 12.4197 96.9134 12.4197C96.9971 12.4197 97.0961 12.6135 97.1334 12.8505C97.177 13.1274 97.2735 13.2431 97.4038 13.1744C97.6912 13.0229 97.6615 12.4615 97.3717 12.569C97.1427 12.6539 97.1425 12.6508 97.3623 12.4403C97.4862 12.3216 97.7591 12.2173 97.9688 12.2086C98.1784 12.1997 98.6599 12.0924 99.0387 11.9699C100.02 11.6525 102.489 11.0962 103.613 10.9389C104.139 10.8653 104.798 10.7645 105.077 10.715C105.664 10.6107 106.824 10.4447 108.343 10.2473C108.932 10.1708 109.743 10.052 110.145 9.98324C111.113 9.81797 112.636 9.80564 112.848 9.96144C112.941 10.0297 113.233 10.164 113.496 10.2599C113.759 10.3558 113.974 10.5095 113.974 10.6014C113.974 10.6932 113.849 11.021 113.696 11.3297C113.469 11.7867 113.312 11.8869 112.851 11.8687C112.514 11.8553 112.3 11.9396 112.322 12.0763C112.343 12.2027 112.75 12.3146 113.227 12.3249C113.976 12.341 114.475 12.6347 114.305 12.9593C114.229 13.1046 112.736 13.2481 112.736 13.1101C112.736 13.0426 112.394 13.0193 111.976 13.0584C111.557 13.0974 110.924 13.0366 110.569 12.923C110.214 12.8094 109.899 12.7649 109.87 12.8242C109.84 12.8834 109.599 12.9535 109.333 12.9798C109.067 13.0062 108.71 13.1067 108.539 13.2032C108.354 13.3075 108.17 13.2817 108.085 13.1393C108.006 13.0077 107.452 12.8764 106.853 12.8475C106.111 12.8118 105.787 12.7171 105.836 12.5506C105.876 12.4162 105.823 12.4469 105.718 12.6189C105.586 12.8339 105.383 12.8854 105.068 12.7838C104.767 12.6868 104.634 12.7159 104.681 12.8685C104.761 13.1286 104.746 13.1336 103.726 13.1889C103.323 13.2107 102.88 13.3089 102.74 13.4071C102.601 13.5053 102.487 13.5021 102.487 13.4C102.487 13.298 102.36 13.2144 102.205 13.2144C102.05 13.2144 101.924 13.2911 101.924 13.3847C101.924 13.4784 101.845 13.555 101.748 13.555C101.651 13.555 101.599 13.4687 101.631 13.3632C101.709 13.1082 100.552 13.4827 100.468 13.7396C100.315 14.2098 98.207 14.6863 98.207 14.2508C98.207 14.1179 98.1533 14.0091 98.0877 14.0091C98.0221 14.0091 97.9976 14.1043 98.0332 14.2205C98.1351 14.5529 97.876 14.7575 97.7084 14.477C97.596 14.2889 97.5431 14.3004 97.5009 14.5222C97.4645 14.7136 97.2791 14.8011 96.9809 14.7674C96.7261 14.7387 96.5176 14.8107 96.5176 14.9273C96.5176 15.3028 95.939 15.0562 95.8266 14.6328C95.7668 14.4077 95.669 14.2845 95.6091 14.3591C95.5493 14.4336 95.5262 14.5791 95.5578 14.6822C95.5894 14.7854 95.5412 14.9271 95.4506 14.9972C95.3601 15.0673 95.2555 15.0253 95.2183 14.9039C95.177 14.7693 95.0328 14.8155 94.8487 15.0223C94.5022 15.4115 93.4247 15.8249 93.2873 15.6214ZM91.6748 14.5901C91.6748 14.1913 91.7423 14.1326 91.8389 14.4475C91.8745 14.5637 91.8522 14.723 91.7892 14.8014C91.7263 14.8799 91.6748 14.785 91.6748 14.5901ZM92.0992 14.1979C92.1646 14.0659 92.2846 14.0026 92.3659 14.0572C92.4502 14.1139 92.3992 14.2169 92.2469 14.2971C92.0596 14.3959 92.0156 14.3663 92.0992 14.1979ZM130.896 13.6218C130.757 13.5676 130.643 13.4454 130.643 13.3501C130.643 13.0722 131.132 13.2232 131.181 13.516C131.205 13.6623 131.208 13.7681 131.187 13.7511C131.167 13.734 131.036 13.6759 130.896 13.6218ZM128.559 13.1008C128.869 12.8326 129.047 12.8326 128.841 13.1008C128.748 13.2219 128.596 13.3153 128.503 13.3084C128.392 13.3002 128.411 13.2295 128.559 13.1008ZM129.242 13.1219C129.207 13.0087 129.28 12.9696 129.404 13.0349C129.667 13.1736 129.7 13.3278 129.467 13.3278C129.378 13.3278 129.276 13.2352 129.242 13.1219ZM114.743 12.6081C114.565 12.2489 114.646 12.224 116.038 12.2071C116.854 12.197 117.635 12.145 117.773 12.0912C117.911 12.0374 118.05 12.0792 118.083 12.1839C118.115 12.2887 118.296 12.3528 118.486 12.3263C118.998 12.2548 119.001 12.5854 118.488 12.6839C118.246 12.7305 118.072 12.6899 118.101 12.5941C118.194 12.2925 118.02 12.4044 117.844 12.7602C117.652 13.1465 117.177 13.216 117.071 12.8731C117.025 12.7219 116.927 12.7255 116.781 12.8836C116.532 13.1526 116.297 12.9698 116.411 12.5958C116.462 12.4323 116.434 12.4168 116.329 12.5496C116.242 12.6597 115.892 12.8041 115.551 12.8705C115.064 12.9654 114.891 12.9096 114.743 12.6081ZM123.773 12.8737C123.773 12.7488 123.795 12.6467 123.822 12.6467C123.85 12.6467 123.903 12.7488 123.942 12.8737C123.98 12.9986 123.958 13.1008 123.892 13.1008C123.826 13.1008 123.773 12.9986 123.773 12.8737ZM119.268 12.4196C119.166 12.2874 119.152 12.1981 119.233 12.196C119.307 12.194 119.398 12.2947 119.437 12.4196C119.523 12.7015 119.484 12.7015 119.268 12.4196ZM163.257 12.3886C163.316 12.1985 162.886 11.9749 162.8 12.1501C162.678 12.3943 162.178 12.4404 162.178 12.2074C162.178 12.0633 161.857 12.0286 161.305 12.1128C160.628 12.2162 160.344 12.1629 160.038 11.8753C159.821 11.6715 159.729 11.5515 159.834 11.6088C159.938 11.6661 160.039 11.6241 160.059 11.5156C160.078 11.4071 160.17 11.2852 160.263 11.2446C160.356 11.204 160.469 11.0686 160.515 10.9437C160.56 10.8188 160.598 10.9404 160.599 11.2141C160.601 11.6843 160.618 11.6937 160.911 11.3853C161.189 11.0927 161.237 11.0999 161.376 11.4555C161.525 11.8326 161.529 11.8325 161.464 11.4555C161.412 11.1489 161.459 11.0582 161.669 11.0582C161.819 11.0582 161.993 11.237 162.056 11.4555C162.12 11.676 162.173 11.7266 162.174 11.5691C162.178 11.2717 162.516 11.1594 162.516 11.4555C162.516 11.5492 162.899 11.6199 163.367 11.6127C163.835 11.6055 164.244 11.6821 164.275 11.783C164.306 11.8839 164.44 11.9664 164.572 11.9664C164.765 11.9664 164.785 12.0232 164.672 12.2502C164.532 12.5344 163.172 12.6683 163.257 12.3896V12.3886ZM165.106 12.3818C165.106 12.2777 165.144 12.1857 165.191 12.1773C165.237 12.1688 165.437 12.1192 165.635 12.0669C166.081 11.9494 166.24 12.3389 165.811 12.498C165.387 12.6554 165.106 12.609 165.106 12.3818ZM156.997 11.6249C156.997 11.5001 156.807 11.3979 156.575 11.3979C156.343 11.3979 156.115 11.5001 156.07 11.6249C156.015 11.7763 155.986 11.7763 155.985 11.6249C155.982 11.3405 155.308 11.2732 155.308 11.5574C155.308 11.6717 155.262 11.7079 155.205 11.6377C155.098 11.5041 154.107 11.2895 153.055 11.172C152.715 11.134 152.436 11.0799 152.436 11.0519C152.436 10.8997 150.954 10.8973 150.859 11.0494C150.69 11.3208 149.564 11.5101 149.564 11.2672C149.564 11.1517 149.488 11.0573 149.395 11.0573C149.302 11.0573 149.226 11.1559 149.226 11.2764C149.226 11.4132 148.433 11.4552 147.114 11.3881C145.953 11.329 144.88 11.2817 144.731 11.283C144.581 11.2851 144.29 11.1912 144.083 11.0761C143.857 10.9503 143.707 10.9495 143.707 11.0741C143.707 11.2804 143.313 11.247 143.207 11.0316C143.176 10.9694 142.663 10.9549 142.068 10.9993C141.35 11.0528 140.931 10.9903 140.826 10.8138C140.702 10.6064 140.666 10.6164 140.665 10.8591C140.664 11.056 140.633 11.0834 140.58 10.9335C140.531 10.7912 139.89 10.6851 138.977 10.6681C138.141 10.6526 135.607 10.5813 133.346 10.5099C131.085 10.4385 128.183 10.3665 126.898 10.3499C125.613 10.3334 124.561 10.2557 124.561 10.1776C124.561 10.0994 124.282 10.0355 123.941 10.0355C123.601 10.0355 123.322 10.1121 123.322 10.2057C123.322 10.2994 123.269 10.376 123.203 10.376C123.137 10.376 123.115 10.2739 123.153 10.149C123.192 10.0241 123.144 9.92193 123.047 9.92193C122.951 9.92204 122.872 9.81986 122.872 9.69499C122.872 9.57011 122.818 9.46793 122.753 9.46793C122.687 9.46793 122.665 9.57011 122.703 9.69499C122.744 9.8291 122.62 9.92063 122.4 9.91856C122.118 9.91568 122.068 9.86157 122.196 9.69499C122.321 9.53243 122.326 9.47397 122.216 9.4714C122.102 9.46852 122.106 9.38963 122.236 9.12734C122.329 8.94002 122.51 8.78676 122.639 8.78676C122.767 8.78676 122.872 8.67769 122.872 8.54439C122.872 8.40063 122.969 8.36435 123.111 8.45522C123.272 8.55827 123.325 8.52614 123.273 8.35699C123.231 8.21871 123.226 8.10559 123.263 8.10559C123.3 8.10559 123.368 8.31573 123.415 8.57257L123.501 9.03957L123.798 8.56857C124.002 8.24574 124.12 8.17788 124.173 8.3529C124.229 8.53391 124.279 8.51857 124.346 8.30014C124.423 8.04979 125.195 7.99366 128.471 8.00054C130.688 8.00536 133.413 8.07463 134.528 8.15487C135.643 8.2351 137.493 8.35998 138.639 8.4324C142.777 8.69382 143.843 8.78883 143.936 8.90436C144.143 9.16251 145.051 9.3915 145.188 9.22028C145.273 9.11477 145.371 9.15245 145.422 9.30963C145.487 9.51247 145.538 9.49502 145.62 9.24087C145.681 9.05354 145.732 9.00246 145.733 9.12734C145.734 9.27065 146.431 9.34427 147.621 9.32696C149.503 9.29957 152.717 9.66609 152.717 9.90804C152.718 9.97818 153.11 10.0241 153.59 10.01C154.413 9.98599 156.308 10.2967 156.644 10.5108C156.768 10.5898 156.77 10.6746 156.656 10.9517C156.541 11.2309 156.544 11.2762 156.671 11.195C156.758 11.1401 156.97 11.0326 157.142 10.9561C157.336 10.8703 157.432 10.7106 157.392 10.5398C157.356 10.3873 157.386 10.4226 157.458 10.618C157.564 10.9054 157.709 10.9407 158.214 10.8023C158.57 10.705 158.925 10.7231 159.037 10.8443C159.146 10.9615 159.377 11.0712 159.552 11.0882C159.844 11.1167 159.848 11.1273 159.597 11.2224C159.387 11.3023 159.362 11.3715 159.485 11.5286C159.659 11.7508 159.513 11.7786 157.926 11.8249C157.373 11.841 156.997 11.7602 156.997 11.6249ZM124.264 9.58275C124.229 9.39613 124.154 9.3 124.099 9.36911C123.94 9.56723 123.981 9.92201 124.163 9.92201C124.264 9.92201 124.304 9.78883 124.264 9.58275ZM117.696 10.3589C117.812 9.92227 117.805 9.87269 117.645 9.99602C117.486 10.119 117.479 10.0693 117.594 9.63775L117.727 9.13666L117.839 9.64288C117.967 10.2237 118.2 10.3081 118.295 9.80849C118.331 9.62117 118.319 9.46791 118.269 9.46791C118.22 9.46791 118.179 9.3134 118.179 9.12453C118.179 8.84536 118.281 8.80836 118.723 8.92673C119.095 9.02617 119.268 8.99109 119.268 8.81602C119.268 8.67364 119.446 8.5597 119.669 8.5597C119.931 8.5597 120.043 8.6457 119.993 8.80941C119.938 8.98693 119.985 8.98542 120.153 8.80419C120.349 8.59234 120.378 8.60771 120.323 8.89505C120.287 9.08525 120.212 9.24088 120.157 9.24088C120.101 9.24088 120.056 9.34305 120.056 9.46792C120.056 9.94122 120.26 9.66767 120.394 9.01381C120.551 8.25125 120.555 8.24706 120.837 8.55168C120.98 8.70535 121.024 8.94528 120.985 9.35579C120.954 9.6776 120.973 9.91112 121.028 9.8747C121.082 9.8383 121.151 9.90834 121.182 10.0304C121.216 10.1617 120.948 10.268 120.527 10.2908C119.877 10.326 119.805 10.2826 119.693 9.78511C119.571 9.24869 119.155 9.01346 119.155 9.48132C119.155 9.6136 119.205 9.65936 119.267 9.58307C119.329 9.50477 119.35 9.59171 119.314 9.78238C119.276 9.9799 119.175 10.0632 119.071 9.98264C118.955 9.89309 118.921 9.9355 118.972 10.1039C119.063 10.3994 118.689 10.6176 118.254 10.5226C118.099 10.4887 117.88 10.5518 117.767 10.6628C117.583 10.8437 117.575 10.8121 117.696 10.3589ZM120.777 9.50576C120.809 9.4017 120.763 9.31655 120.676 9.31655C120.588 9.31655 120.543 9.4017 120.575 9.50576C120.606 9.60982 120.652 9.69497 120.676 9.69497C120.699 9.69497 120.745 9.60982 120.777 9.50576ZM116.179 10.4019C116.145 10.2913 116.218 10.1475 116.341 10.0824C116.491 10.0036 116.543 9.84329 116.497 9.60247C116.459 9.40359 116.476 9.24086 116.534 9.24086C116.688 9.24086 116.664 9.98255 116.498 10.3167C116.33 10.6556 116.262 10.6737 116.179 10.4019ZM116.869 9.77066C116.901 9.60414 116.941 9.46791 116.959 9.46791C116.977 9.46791 117.017 9.60414 117.049 9.77066C117.081 9.93717 117.04 10.0734 116.959 10.0734C116.878 10.0734 116.837 9.93717 116.869 9.77066ZM117.304 9.13455C117.424 8.95121 117.633 8.79795 117.769 8.79397C118.038 8.78595 118.209 9.13041 118.04 9.34013C117.983 9.41196 117.916 9.35337 117.892 9.20971C117.86 9.01356 117.789 9.01318 117.609 9.20766C117.262 9.5812 117.045 9.5292 117.304 9.13455ZM115.807 9.10366C115.844 9.02822 115.942 9.02015 116.023 9.08577C116.113 9.15825 116.086 9.21205 115.955 9.22294C115.836 9.23277 115.77 9.17911 115.807 9.10366ZM121.746 9.01378C121.601 8.82569 121.605 8.79316 121.774 8.79019C121.882 8.78813 121.971 8.88889 121.971 9.01378C121.971 9.29071 121.958 9.29071 121.746 9.01378ZM121.141 8.66796C121.087 8.38579 121.116 8.36635 121.298 8.56241C121.559 8.84409 121.583 9.01378 121.363 9.01378C121.277 9.01378 121.177 8.85815 121.141 8.66796Z" fill="#4C70EF" fill-opacity="0.9" shape-rendering="crispEdges"/>
</g>
<g filter="url(#filter1_d_510_39)">
<path d="M75.256 82V77.584C76.4507 77.584 77.4107 77.2427 78.136 76.56C78.8613 75.8773 79.4587 74.9813 79.928 73.872C80.44 72.7627 80.9307 71.568 81.4 70.288L93.88 36.048H98.36L111.992 70.928C112.248 71.568 112.589 72.5493 113.016 73.872C113.443 75.152 113.699 76.2827 113.784 77.264C114.509 77.1787 115.192 77.136 115.832 77.136C116.515 77.0933 117.069 77.072 117.496 77.072V82H100.28V77.776C101.475 77.776 102.285 77.5413 102.712 77.072C103.181 76.56 103.395 75.8773 103.352 75.024C103.309 74.1707 103.075 73.2107 102.648 72.144L101.368 68.624L87.48 68.88L86.456 71.888C86.2427 72.4427 85.9227 73.2747 85.496 74.384C85.112 75.4507 84.7493 76.3467 84.408 77.072C85.0907 76.9867 85.9013 76.944 86.84 76.944C87.8213 76.9013 88.5253 76.88 88.952 76.88V82H75.256ZM89.08 64.08H99.768L96.824 56.08C96.2693 54.544 95.7787 53.008 95.352 51.472C94.9253 49.8933 94.6053 48.5067 94.392 47.312H94.328C94.1573 48.0373 93.9013 49.1253 93.56 50.576C93.2187 52.0267 92.6853 53.7547 91.96 55.76L89.08 64.08ZM120.95 82V77.776C121.931 77.7333 122.742 77.6053 123.382 77.392C124.065 77.1787 124.577 76.688 124.918 75.92C125.302 75.152 125.494 73.9147 125.494 72.208V47.696C125.494 46.544 125.515 45.4347 125.558 44.368C125.643 43.3013 125.707 42.4907 125.75 41.936C125.067 41.9787 124.214 42.0213 123.19 42.064C122.166 42.064 121.419 42.0853 120.95 42.128V37.2C123.894 37.1573 126.838 37.136 129.782 37.136C132.769 37.136 135.734 37.1147 138.678 37.072C143.798 37.0293 147.851 37.9893 150.838 39.952C153.867 41.872 155.275 44.7947 155.062 48.72C154.977 49.9573 154.593 51.1733 153.91 52.368C153.227 53.52 152.203 54.5653 150.838 55.504C149.515 56.4427 147.851 57.1893 145.846 57.744V57.808C150.113 58.4907 153.249 59.92 155.254 62.096C157.259 64.2293 158.262 66.6187 158.262 69.264C158.262 72.0373 157.579 74.384 156.214 76.304C154.891 78.1813 153.057 79.6107 150.71 80.592C148.363 81.5307 145.697 82 142.71 82H120.95ZM134.518 77.456C135.286 77.456 136.011 77.456 136.694 77.456C137.377 77.456 138.059 77.456 138.742 77.456C139.425 77.4133 140.086 77.392 140.726 77.392C143.329 77.264 145.227 76.432 146.422 74.896C147.617 73.36 148.214 71.4187 148.214 69.072C148.214 67.1093 147.809 65.5733 146.998 64.464C146.187 63.312 145.142 62.5013 143.862 62.032C142.625 61.5627 141.323 61.328 139.958 61.328C138.891 61.328 137.974 61.328 137.206 61.328C136.438 61.328 135.627 61.3493 134.774 61.392V71.824C134.774 72.976 134.753 74.064 134.71 75.088C134.667 76.112 134.603 76.9013 134.518 77.456ZM134.774 56.848L138.102 56.784C139.894 56.7413 141.302 56.336 142.326 55.568C143.393 54.8 144.139 53.776 144.566 52.496C145.035 51.1733 145.27 49.744 145.27 48.208C145.27 46.5013 144.929 45.1787 144.246 44.24C143.563 43.2587 142.71 42.5547 141.686 42.128C140.662 41.7013 139.595 41.5093 138.486 41.552C137.803 41.552 137.185 41.6587 136.63 41.872C136.075 42.0853 135.627 42.576 135.286 43.344C134.945 44.0693 134.774 45.264 134.774 46.928V56.848Z" fill="#FFF9F9"/>
</g>
</g>
<defs>
<filter id="filter0_d_510_39" x="17" y="8" width="212" height="118" filterUnits="userSpaceOnUse" color-interpolation-filters="sRGB">
<feFlood flood-opacity="0" result="BackgroundImageFix"/>
<feColorMatrix in="SourceAlpha" type="matrix" values="0 0 0 0 0 0 0 0 0 0 0 0 0 0 0 0 0 0 127 0" result="hardAlpha"/>
<feOffset dy="4"/>
<feGaussianBlur stdDeviation="2"/>
<feComposite in2="hardAlpha" operator="out"/>
<feColorMatrix type="matrix" values="0 0 0 0 0 0 0 0 0 0 0 0 0 0 0 0 0 0 0.25 0"/>
<feBlend mode="normal" in2="BackgroundImageFix" result="effect1_dropShadow_510_39"/>
<feBlend mode="normal" in="SourceGraphic" in2="effect1_dropShadow_510_39" result="shape"/>
</filter>
<filter id="filter1_d_510_39" x="71.256" y="36.048" width="91.006" height="53.952" filterUnits="userSpaceOnUse" color-interpolation-filters="sRGB">
<feFlood flood-opacity="0" result="BackgroundImageFix"/>
<feColorMatrix in="SourceAlpha" type="matrix" values="0 0 0 0 0 0 0 0 0 0 0 0 0 0 0 0 0 0 127 0" result="hardAlpha"/>
<feOffset dy="4"/>
<feGaussianBlur stdDeviation="2"/>
<feComposite in2="hardAlpha" operator="out"/>
<feColorMatrix type="matrix" values="0 0 0 0 0 0 0 0 0 0 0 0 0 0 0 0 0 0 0.25 0"/>
<feBlend mode="normal" in2="BackgroundImageFix" result="effect1_dropShadow_510_39"/>
<feBlend mode="normal" in="SourceGraphic" in2="effect1_dropShadow_510_39" result="shape"/>
</filter>
</defs>
</svg>
