<svg width="64" height="44" viewBox="0 0 64 44" fill="none" xmlns="http://www.w3.org/2000/svg">
<path d="M16.5 27.3158C17.3284 27.3158 18 26.5735 18 25.6579C18 24.7423 17.3284 24 16.5 24C15.6716 24 15 24.7423 15 25.6579C15 26.5735 15.6716 27.3158 16.5 27.3158Z" fill="#6A462F"/>
<path d="M1 1H63V43H1V1Z" fill="#F1B31C"/>
<path d="M1 1H63V43H1V1Z" stroke="black" stroke-width="2" stroke-linecap="round" stroke-linejoin="round"/>
<path d="M22.9444 19.2222V28.7222M6.05556 19.2222V28.7222M10.2778 16.0556C11.5783 15.3653 13.0277 15.0029 14.5 15C15.9723 15.0029 17.4217 15.3653 18.7222 16.0556M5 28.7222H7.11111M21.8889 28.7222H24M10.2778 19.2222H18.7222V26.6111C18.7206 27.1705 18.4976 27.7065 18.102 28.102C17.7065 28.4976 17.1705 28.7206 16.6111 28.7222H12.3889C11.8295 28.7206 11.2935 28.4976 10.898 28.102C10.5024 27.7065 10.2794 27.1705 10.2778 26.6111V19.2222Z" stroke="#6A462F" stroke-width="2" stroke-linecap="round" stroke-linejoin="round"/>
<path d="M19 18.6842V26.4211C18.9984 27.0068 18.7872 27.568 18.4125 27.9822C18.0377 28.3964 17.5299 28.6298 17 28.6316H13C12.4701 28.6298 11.9623 28.3964 11.5875 27.9822C11.2128 27.568 11.0016 27.0068 11 26.4211V18.6842M1 1H63V10.9474H1V1ZM1 33.0526H63V43H1V33.0526Z" fill="#D22F27"/>
<path d="M13 22H17V26.4211H13V22Z" fill="#F1B31C"/>
</svg>
