<svg width="829" height="291" viewBox="0 0 829 291" fill="none" xmlns="http://www.w3.org/2000/svg">
<path d="M167.47 290.416C166.381 289.895 165.704 288.471 166.156 287.653C166.268 287.45 166.498 286.778 166.668 286.16C166.838 285.541 167.801 284.032 168.808 282.806C169.815 281.579 170.837 279.979 171.079 279.25C171.32 278.52 171.861 277.466 172.28 276.906C173.179 275.708 175.436 271.113 176.96 267.381C177.553 265.926 178.293 264.208 178.604 263.562C178.914 262.917 179.253 262.126 179.358 261.805C179.462 261.483 180.153 260.367 180.894 259.324C182.172 257.524 182.611 256.432 183.241 253.484C183.392 252.777 183.979 251.59 184.546 250.847C185.496 249.6 185.607 249.059 185.981 243.847C186.325 239.077 186.517 238.018 187.222 237.036C187.74 236.313 188.182 234.917 188.387 233.35C188.569 231.963 188.978 230.167 189.295 229.358C189.612 228.549 189.942 227.421 190.029 226.85C190.116 226.279 190.375 225.014 190.606 224.039C190.836 223.063 191.168 221.126 191.342 219.734C191.57 217.91 191.993 216.675 192.856 215.315C193.514 214.277 194.553 212.238 195.165 210.784C195.777 209.33 196.435 207.944 196.627 207.705C196.818 207.465 197.157 206.538 197.379 205.644C197.601 204.75 197.949 203.823 198.15 203.584C198.352 203.345 198.547 203.016 198.583 202.854C198.748 202.125 199.341 201.319 200.327 200.488C200.967 199.948 201.534 198.995 201.744 198.104C202.051 196.808 202.001 196.623 201.355 196.643C200.86 196.66 200.583 196.417 200.52 195.917C200.471 195.506 200.356 194.647 200.27 194.009C200.119 192.898 200.157 192.858 201.165 193.03C201.744 193.129 202.502 193.07 202.851 192.9C203.771 192.451 204.306 189.774 203.613 189.089C202.949 188.432 201.687 188.635 201.635 189.408C201.61 189.761 201.083 190.049 200.106 190.241C198.961 190.466 198.603 190.698 198.566 191.237C198.542 191.624 198.373 191.997 198.195 192.067C198.017 192.137 197.927 191.505 197.995 190.662C198.079 189.615 198.434 188.811 199.114 188.121C199.662 187.566 200.007 186.907 199.882 186.657C199.364 185.624 199.328 185.149 199.77 185.164C200.028 185.175 200.257 184.92 200.278 184.603C200.303 184.285 200.512 183.949 200.75 183.856C200.987 183.763 201.209 183.284 201.243 182.79C201.291 182.101 201.135 181.911 200.571 181.968C200.074 182.02 199.652 182.527 199.258 183.551C198.583 185.302 196.431 187.234 195.494 186.929C195.154 186.818 194.641 186.691 194.352 186.646C194.064 186.6 193.614 186.398 193.352 186.194C192.466 185.503 191.367 185.763 190.125 186.957C189.447 187.609 188.071 188.645 187.067 189.258C186.063 189.872 185.108 190.687 184.945 191.069C184.782 191.451 183.99 192.655 183.185 193.744C182.278 194.97 181.565 196.457 181.31 197.648C181.084 198.705 180.423 200.359 179.841 201.323C179.259 202.286 178.666 203.406 178.523 203.811C178.38 204.216 177.462 205.391 176.482 206.423C175.502 207.455 173.961 209.28 173.058 210.479C171.079 213.106 170.103 214.315 168.728 215.845C168.155 216.481 167.299 217.659 166.824 218.462C163.727 223.698 163.056 224.916 163.026 225.36C163.01 225.634 162.449 226.627 161.784 227.567C161.12 228.507 160.174 229.865 159.683 230.586C158.569 232.222 158.043 232.805 156.163 234.484C155.338 235.221 153.936 237.128 153.048 238.724C152.16 240.319 151.139 241.917 150.779 242.275C150.419 242.633 149.954 243.591 149.746 244.403C148.527 249.158 144.141 252.314 141.737 250.165C140.807 249.334 139.663 247.367 139.71 246.679C139.767 245.822 141.497 243.871 143.37 242.547C144.366 241.844 145.581 240.729 146.07 240.071C146.558 239.413 147.255 238.716 147.618 238.523C147.981 238.329 148.287 238.034 148.299 237.865C148.339 237.286 151.153 233.789 152.411 232.756C153.686 231.71 155.262 228.952 156.489 225.621C156.859 224.617 157.913 222.765 158.83 221.505C159.748 220.246 160.511 219.032 160.526 218.809C160.55 218.448 164.097 213.492 165.88 211.328C166.252 210.877 166.568 210.337 166.582 210.129C166.598 209.921 167.073 209.428 167.641 209.033C168.526 208.419 168.751 207.872 169.205 205.243C170.022 200.516 170.06 200.375 170.682 199.637C171.003 199.256 172.246 198.123 173.445 197.118C174.721 196.048 175.605 195.028 175.577 194.657C175.552 194.309 176.307 192.978 177.26 191.699C178.968 189.406 178.991 189.337 178.913 186.689C178.872 185.171 179.045 183.579 179.319 183.024C179.897 181.859 182.69 179.588 184.003 179.217C185.379 178.828 185.991 178.03 186.332 176.177C186.778 173.76 186.44 173.431 183.693 173.612C179.477 173.889 175.659 175.475 175.556 176.993C175.54 177.244 175.346 177.52 175.126 177.606C174.907 177.692 174.577 178.159 174.391 178.642C174.06 179.511 173.766 179.631 172.335 179.478C171.451 179.383 169.014 180.44 168.977 180.933C168.937 181.503 165.046 186.718 163.796 187.879C162.264 189.303 161.727 190.915 162.55 191.625C163.541 192.48 163.19 193.71 161.533 195.188C160.694 195.937 159.458 197.258 158.785 198.123C158.113 198.989 156.6 200.422 155.424 201.308C154.248 202.195 152.836 203.505 152.287 204.219C151.737 204.934 151.003 205.67 150.655 205.856C150.131 206.135 150.031 206.065 150.073 205.45C150.146 204.396 146.761 203.229 143.291 203.112C141.184 203.04 140.324 203.185 138.015 204C134.776 205.143 133.411 206.374 131.729 209.67C130.754 211.579 130.128 212.534 128.934 213.932C128.781 214.111 126.661 215.757 124.224 217.589C121.786 219.422 119.237 221.397 118.56 221.979C116.626 223.64 114.645 225.494 114.634 225.654C114.628 225.734 113.928 226.462 113.075 227.271C112.224 228.081 111.047 229.576 110.461 230.594C109.808 231.728 109.097 232.502 108.628 232.59C108.207 232.67 107.511 233.113 107.082 233.575C106.653 234.037 105.583 234.591 104.705 234.807C103.284 235.154 102.872 235.14 100.993 234.674C98.5974 234.08 98.1198 233.486 98.2687 231.287C98.3517 230.064 98.5777 229.8 100.851 228.265C102.221 227.341 103.597 226.593 103.908 226.603C104.219 226.615 104.48 226.518 104.489 226.389C104.497 226.261 105.136 225.922 105.907 225.636C107.748 224.955 109.589 223.677 110.681 222.324C111.166 221.724 111.845 221.134 112.19 221.012C112.536 220.89 113.337 220.055 113.972 219.157C114.607 218.259 115.6 217.285 116.179 216.994C116.771 216.695 117.387 215.997 117.589 215.395C117.786 214.808 118.302 214.024 118.735 213.653C120.333 212.286 122.439 209.157 122.824 207.579C123.404 205.206 126.344 201.156 128.631 199.581C130.063 198.595 131.261 197.558 134.43 194.563C135.686 193.377 137.185 192.087 137.761 191.697C138.339 191.307 139.154 190.475 139.574 189.849C139.994 189.223 141.401 187.993 142.701 187.116C144 186.239 145.294 185.198 145.576 184.802C145.858 184.406 146.383 183.758 146.744 183.36C147.686 182.322 147.629 181.636 146.45 179.77C145.572 178.382 145.048 177.977 143.17 177.231C141.941 176.743 140.821 176.086 140.68 175.771C140.318 174.961 141.628 173.319 143.834 171.82C145.06 170.986 145.726 170.276 145.761 169.766C145.826 168.808 146.584 167.86 147.27 167.879C147.551 167.885 148.635 167.458 149.679 166.926C150.724 166.393 152.236 165.814 153.04 165.638C154.698 165.276 154.952 164.354 153.366 164.457C152.849 164.492 152.435 164.377 152.447 164.203C152.488 163.652 150.966 163.81 149.439 164.517C148.627 164.892 147.264 165.442 146.41 165.739C144.471 166.412 140.867 169.087 139.111 171.157C137.674 172.85 136.473 173.708 132.544 175.847C131.152 176.604 129.741 177.632 129.406 178.13C129.072 178.629 128.141 179.431 127.337 179.914C123.9 181.978 120.547 184.199 119.841 184.88C119.423 185.283 118.44 185.802 117.657 186.033C116.874 186.264 115.631 186.981 114.894 187.625C114.158 188.27 111.573 190.13 109.149 191.76C104.92 194.604 104.616 194.747 101.624 195.299C99.6113 195.671 97.9392 196.208 96.9055 196.816C96.0248 197.333 94.8154 197.917 94.2178 198.114C93.6203 198.31 91.3894 199.58 89.2606 200.936C84.2606 204.119 81.9641 205.341 81.4493 205.091C81.2216 204.98 80.8818 205.044 80.6948 205.24C80.1688 205.783 77.5725 203.844 77.3361 202.732C77.228 202.222 77.3402 201.566 77.5857 201.276C78.0402 200.738 83.7376 198.108 86.0214 197.382C86.7125 197.163 90.5871 194.883 94.6322 192.316C101.647 187.865 102.843 187.267 109.224 185.023C110.936 184.421 111.598 183.977 112.232 183.009C113.881 180.49 114.622 179.738 116.061 179.122C116.871 178.776 117.986 178.508 118.541 178.527C119.298 178.55 119.744 178.291 120.338 177.471C121.029 176.515 122.206 175.457 125.868 172.495C127.304 171.333 129.389 169.294 129.406 169.033C129.414 168.902 130.643 168.232 132.136 167.543C133.629 166.854 135.651 165.637 136.631 164.838C138.313 163.467 139.177 162.837 143.161 160.08C144.074 159.449 145.106 158.427 145.456 157.809L146.092 156.686L144.134 155.134C142.419 153.775 142.074 153.624 141.346 153.913C140.06 154.423 139.256 154.269 138.875 153.442C138.637 152.925 138.208 152.674 137.522 152.651C136.969 152.633 135.333 152.303 133.887 151.921C131.544 151.302 130.911 151.25 128.081 151.447C126.334 151.569 123.854 151.805 122.57 151.973C121.118 152.163 117.858 152.178 113.945 152.013C106.727 151.71 104.717 151.949 102.187 153.415C101.289 153.935 99.8544 154.54 98.9982 154.76C98.142 154.98 96.7951 155.525 96.0051 155.97C94.9382 156.572 94.2819 156.732 93.4546 156.59C92.8417 156.486 90.8824 156.67 89.1 156.999C86.6734 157.448 85.4622 157.863 84.2796 158.652C81.991 160.178 79.7716 160.564 73.6206 160.506C67.4981 160.448 63.072 160.899 59.3437 161.959C57.8793 162.375 56.5282 162.71 56.3414 162.704C56.1544 162.698 55.229 163.027 54.2847 163.436C51.2592 164.747 46.8799 164.071 46.9991 162.312C47.056 161.527 48.2411 160.313 49.5835 159.674C50.4403 159.265 51.5985 159.15 54.6832 159.167C59.0549 159.19 59.7518 159.042 62.0356 157.606C64.0112 156.364 66.6403 155.619 69.4379 155.508C70.6555 155.462 72.2302 155.263 72.9373 155.071C73.6446 154.879 75.1194 154.659 76.2153 154.583C77.6542 154.482 78.9074 154.097 80.7259 153.194C82.1108 152.507 83.3151 151.825 83.4022 151.679C83.4892 151.532 83.803 151.42 84.1006 151.43C84.3973 151.442 85.4791 150.974 86.504 150.395C87.529 149.815 89.1653 149.075 90.1404 148.75C95.4249 146.988 95.6095 146.957 101.04 146.924C107.006 146.889 108.777 146.499 113.009 144.303C114.32 143.623 115.729 142.991 116.14 142.898C116.551 142.806 116.907 142.451 116.929 142.109C116.97 141.464 114.906 139.781 113.669 139.456C113.278 139.354 112.86 139.005 112.738 138.681C112.617 138.357 112.295 138.075 112.023 138.053C110.806 137.956 109.952 137.719 108.939 137.197C107.957 136.692 100.864 134.881 98.0076 134.406C97.2572 134.281 96.2511 134.446 95.0301 134.895C94.0159 135.268 92.0375 135.762 90.6337 135.993C89.23 136.225 87.4396 136.65 86.655 136.939C85.8704 137.227 84.8142 137.45 84.308 137.433C83.8015 137.416 82.874 137.572 82.2462 137.778C81.6186 137.983 80.3673 138.293 79.4656 138.465C78.564 138.637 77.0097 139.202 76.0115 139.72C75.0133 140.238 72.1009 141.318 69.5395 142.121C66.9781 142.924 63.8108 144.033 62.501 144.585C60.1995 145.556 60.0283 145.58 57.4048 145.304C55.9117 145.146 52.4277 144.886 49.6625 144.725C45.4981 144.483 44.1958 144.518 42.0777 144.926C40.6713 145.197 38.9576 145.346 38.2697 145.257C37.5819 145.168 35.1403 144.883 32.8446 144.623C30.5488 144.363 27.2618 143.988 25.5401 143.79C23.8184 143.592 21.6866 143.247 20.8027 143.024C18.8779 142.537 15.8104 142.6 12.3242 143.199C9.15742 143.743 7.72584 143.478 6.71098 142.161C5.24069 140.252 6.01425 138.961 9.37303 137.716C11.181 137.046 11.7311 136.993 15.3 137.147C17.4637 137.24 19.7111 137.464 20.2941 137.644C21.5822 138.042 29.6263 137.877 30.969 137.426C31.4714 137.256 32.7798 137.144 33.8758 137.177C34.9719 137.212 36.8296 137.022 38.0043 136.759C39.1788 136.495 42.5112 136.2 45.4097 136.101C48.3081 136.003 50.878 135.82 51.1206 135.696C51.3629 135.571 52.7125 135.212 54.1191 134.898C55.5256 134.583 57.5207 133.967 58.5525 133.53C62.5701 131.825 63.5331 131.633 69.8462 131.284C71.6623 131.184 74.0506 130.854 75.1536 130.552C76.2567 130.249 78.5631 129.86 80.279 129.686C81.9948 129.513 83.6208 129.261 83.8922 129.126C85.805 128.179 95.5413 128.335 101.064 129.4C102.993 129.773 103.949 129.805 106.1 129.569C107.56 129.409 108.9 129.187 109.077 129.078C109.255 128.968 109.619 128.085 109.886 127.117C110.153 126.148 110.46 125.157 110.567 124.915C110.731 124.546 110.241 124.474 107.503 124.471C105.468 124.468 104.251 124.354 104.264 124.164C104.272 123.997 104.746 123.116 105.31 122.205C106.18 120.8 106.248 120.503 105.758 120.245C105.103 119.9 101.432 120.018 100.232 120.422C99.795 120.569 97.568 120.74 95.2818 120.803C92.9956 120.866 90.7271 121.051 90.2406 121.215C89.7544 121.378 88.4171 121.48 87.2693 121.442C85.8461 121.396 84.2552 121.628 82.2657 122.181L79.349 122.992L75.691 122.497C72.2786 122.036 71.8819 122.039 69.7826 122.543C68.5448 122.841 66.427 123.331 65.0765 123.631C63.7259 123.932 61.612 124.402 60.3788 124.677C59.1457 124.952 56.3181 125.478 54.0954 125.847C49.3694 126.631 45.6772 127.449 41.8917 128.55C40.3959 128.984 38.8751 129.33 38.5124 129.318C38.1498 129.306 36.654 129.611 35.189 129.996C33.3136 130.49 31.7801 130.674 30.007 130.619C25.8138 130.488 24.542 129.467 26.0881 127.474C27.2979 125.915 29.1254 125.455 33.5775 125.588C36.2349 125.669 37.399 125.583 37.8802 125.273C38.2428 125.04 38.7897 124.853 39.095 124.858C41.1445 124.893 42.4978 122.605 41.3282 121.082C40.3474 119.805 40.4612 119.181 41.8355 118.296C43.1227 117.468 43.0072 117.485 46.2823 117.657C49.5887 117.831 56.0562 116.917 59.2107 115.83C60.7332 115.305 63.4069 114.988 70.7555 114.459C72.6247 114.325 75.6705 115.008 78.0124 116.088C79.0687 116.574 79.4165 116.582 82.8834 116.2C84.9367 115.974 87.3745 115.505 88.3005 115.159C89.8925 114.564 90.3386 114.546 96.4834 114.834C100.058 115.001 104.286 115.233 105.88 115.35C108.767 115.56 110.75 115.35 110.785 114.826C110.793 114.675 110.209 114.251 109.482 113.885C108.577 113.43 108.392 113.227 108.895 113.24C109.299 113.252 109.639 113.126 109.65 112.963C109.658 112.799 109.245 112.649 108.726 112.629C107.679 112.588 107.231 112.385 106.432 111.587C105.744 110.9 106.407 110.319 108.491 109.784C109.814 109.445 109.937 109.314 109.886 108.315C109.812 106.832 108.838 106.371 107.137 107.007L105.85 107.488L105.243 106.549C103.789 104.298 107.208 102.521 113.001 102.517C115.449 102.514 116.119 102.177 115.501 101.254C114.972 100.466 115.718 99.6851 116.834 99.8585C117.214 99.9178 118.185 99.6097 118.991 99.1742C120.222 98.5089 120.693 98.4219 121.945 98.6288C122.763 98.7641 123.543 98.9692 123.676 99.0838C124.081 99.4311 123.081 101.201 122.491 101.181C122.189 101.169 121.7 101.494 121.406 101.899C120.97 102.498 120.983 102.671 121.479 102.824C121.811 102.928 122.384 102.82 122.75 102.584C123.689 101.98 125.765 101.788 126.767 102.213C127.888 102.688 129.097 102.259 129.158 101.36C129.19 100.913 129.685 100.484 130.592 100.122C131.537 99.7438 132.003 99.3295 132.049 98.8241C132.106 98.2042 132.453 98.0172 134.14 97.6928C135.601 97.4123 136.209 97.1323 136.332 96.686C136.477 96.1573 136.221 96.0283 134.554 95.7929C133.33 95.6201 132.43 95.631 132.132 95.8216C131.503 96.2266 130.161 96.1453 128.991 95.6321C128.119 95.2497 128.102 95.1858 128.774 94.8281C129.839 94.2607 130.388 93.2196 130.855 90.8849C131.231 89.0066 131.362 88.8069 132.255 88.748C132.797 88.7135 133.542 88.8851 133.912 89.1316C135.003 89.8613 136.03 90.0536 136.322 89.5832C136.467 89.3494 137.129 88.9882 137.792 88.7812C138.975 88.412 139.001 88.4235 139.122 89.3405C139.187 89.8549 139.372 90.516 139.529 90.809C139.754 91.2312 139.48 91.4276 138.203 91.7553C137.318 91.9828 136.269 92.0968 135.873 92.0093C135.477 91.9212 134.889 91.9517 134.565 92.0801C134.076 92.272 134.078 92.3848 134.582 92.7521C135.393 93.348 140.435 93.2746 140.476 92.6663C140.492 92.4405 140.745 92.2643 141.039 92.2741C141.335 92.2856 142.113 91.8985 142.77 91.4167C143.426 90.9352 144.151 90.6325 144.381 90.7441C145.073 91.0805 144.755 92.4022 143.77 93.2892C143.216 93.788 142.93 94.3538 143.058 94.6969C143.3 95.344 144.855 95.7789 146.031 95.5285C147.328 95.2521 149.635 94.052 149.663 93.6387C149.679 93.4256 150.207 92.8915 150.84 92.452C151.889 91.7236 151.98 91.4968 151.869 89.8981C151.803 88.9332 151.643 88.0116 151.517 87.8502C151.391 87.6889 150.557 87.5316 149.664 87.5011C148.346 87.455 147.836 87.6134 146.955 88.3365C145.929 89.1793 145.818 89.2013 144.899 88.7472C143.433 88.0228 139.447 87.2825 139.223 87.693C139.11 87.8998 138.486 87.7276 137.558 87.2334C135.925 86.3632 134.395 86.1651 134.017 86.7749C133.882 86.9915 133.09 87.4232 132.256 87.7346C130.962 88.2178 130.709 88.2339 130.529 87.8457C130.164 87.0624 130.364 86.3363 131.044 85.9742C132.112 85.4051 131.839 85.0442 130.465 85.2095C129.742 85.2964 129.201 85.2383 129.212 85.0776C129.22 84.9209 128.646 84.5972 127.931 84.3583C127.216 84.1193 125.793 83.4755 124.768 82.9276C121.86 81.372 117.783 79.8613 116.357 79.8111C115.644 79.7881 114.328 79.4102 113.432 78.976C112.238 78.3974 111.195 78.1633 109.53 78.0998C106.308 77.9771 101.99 77.2647 100.552 76.6187C98.5913 75.738 95.4069 74.9872 92.4789 74.7154C89.3287 74.4228 87.1178 74.0648 86.2164 73.7009C85.3016 73.3317 74.7927 71.2967 72.3599 71.0178C71.2289 70.8882 70.1073 70.655 69.8676 70.4994C69.2839 70.121 64.109 69.0957 62.5103 69.0414C61.1659 68.9953 58.4924 67.2668 58.5459 66.4778C58.5622 66.2491 59.661 65.8702 61.0995 65.5977L63.6258 65.1191L68.5106 66.4073C71.1973 67.1159 74.3233 67.969 75.4575 68.3031C78.068 69.0721 81.4675 69.686 83.4978 69.755C84.3635 69.7838 85.2431 69.9335 85.4526 70.0867C85.9298 70.4352 92.1346 71.5496 95.1976 71.8367C98.3714 72.1339 99.1603 72.2716 100.182 72.7049C101.637 73.3219 105.676 74.3677 106.8 74.4187C107.376 74.4475 109.341 74.7885 111.165 75.1818C112.989 75.5752 115.138 75.9894 115.94 76.102C116.742 76.2143 117.747 76.3917 118.173 76.4959C118.847 76.6613 118.934 76.5478 118.844 75.622C118.759 74.7377 118.836 74.62 119.305 74.9234C119.615 75.1238 120.013 75.6038 120.191 75.9895C120.369 76.3754 120.842 76.7762 121.244 76.8804C121.645 76.9847 122.517 77.3032 123.183 77.5883C123.848 77.8734 125.333 78.3073 126.482 78.5525C127.632 78.7979 129.597 79.2412 130.849 79.5379C133.733 80.2212 135.416 80.2832 136.607 79.7504C137.124 79.5189 137.783 79.3737 138.07 79.4279C138.358 79.4797 138.616 79.3253 138.643 79.0805C138.7 78.5426 140.517 78.3681 141.124 78.8415C141.747 79.3276 142.224 79.277 142.261 78.7211C142.302 78.1088 139.403 75.828 138.545 75.7988C138.19 75.7873 137.315 76.0925 136.601 76.4778C135.888 76.8631 135.212 77.1755 135.099 77.1716C134.986 77.1676 134.463 76.446 133.936 75.5676C132.99 73.992 130.971 72.2622 128.788 71.1582C126.295 69.8971 128.604 69.7125 132.528 70.8593C133.868 71.2509 135.676 71.5749 136.545 71.5796C137.868 71.5854 138.182 71.7098 138.47 72.3359C138.85 73.1611 141.489 74.707 142.581 74.7442C142.963 74.7557 144.205 75.2689 145.341 75.881C146.477 76.4933 147.713 77.0047 148.09 77.0175C148.716 77.0405 150.159 77.7993 152.054 79.1063C152.916 79.7005 155.141 79.5942 157.089 78.8667C158.408 78.3737 159.311 78.6214 160.045 79.6777C160.916 80.9323 161.884 81.9566 162.207 81.9676C162.394 81.9734 162.675 81.6146 162.833 81.1685C162.99 80.7227 163.946 79.7829 164.957 79.0803C165.968 78.3776 166.99 77.5746 167.227 77.2958C167.465 77.017 168.022 76.801 168.464 76.8166C169.489 76.8512 171.448 76.3046 171.47 75.977C171.478 75.8399 171.77 75.7368 172.117 75.7489C173.614 75.8008 172.076 73.0957 169.433 71.0194C167.134 69.216 165.324 67.364 165.359 66.8514C165.375 66.6521 163.267 64.8954 160.681 62.9482C158.094 61.001 155.748 59.232 155.467 59.0171C151.351 55.8746 142.209 48.4481 142.222 48.258C142.23 48.1197 141.325 47.5185 140.207 46.9221C139.089 46.3258 138.089 45.6121 137.984 45.3361C137.8 44.8506 134.556 42.5902 133.56 42.254C133.29 42.163 132.296 41.5926 131.351 40.9868C130.405 40.3811 128.689 39.5181 127.538 39.0692C125.773 38.3812 125.396 38.0782 125.135 37.14C124.734 35.698 125.438 35.1201 127.49 35.2042C129.449 35.2842 130.144 35.612 133.714 38.141C137.423 40.7676 138.919 41.9735 144.451 46.7963C146.896 48.9282 149.998 51.5252 151.343 52.5675C152.689 53.6097 155.385 55.78 157.336 57.3902C159.286 59.0005 161.358 60.5552 161.939 60.8451C163.115 61.4319 167.783 64.9387 170.088 66.9666C171.089 67.8475 171.925 68.2925 172.625 68.3163C173.797 68.3566 173.846 68.2932 173.311 67.4415C173.102 67.1092 172.76 66.5645 172.551 66.2318C172.342 65.8989 172.188 65.3835 172.208 65.086C172.225 64.7888 171.803 64.0757 171.264 63.502C170.724 62.9283 170.291 62.3432 170.301 62.2019C170.309 62.0608 169.807 61.4325 169.183 60.8063C168.559 60.18 167.763 59.0276 167.415 58.2452C167.066 57.4629 166.441 56.5827 166.025 56.2892C165.61 55.9961 165.296 55.3685 165.327 54.8951C165.401 53.8359 164.772 52.8218 161.98 49.4784C159.549 46.5678 158.968 46.0281 157.704 45.5072C157.224 45.3091 156.181 44.3757 155.387 43.433C154.593 42.4904 153.544 41.5944 153.055 41.4418C152.567 41.2892 150.74 40.4976 148.995 39.6827C147.251 38.8678 145.593 38.1926 145.311 38.1825C144.606 38.1595 142.561 37.1356 141.356 36.2072C140.048 35.1985 135.777 33.1756 134.322 32.8753C133.693 32.7451 133.082 32.5164 132.965 32.3667C132.848 32.2169 132.139 32.0735 131.39 32.0481C130.25 32.0078 129.61 31.6553 127.461 29.8736C124.133 27.1143 122.716 25.7472 122.745 25.3232C122.794 24.5833 124.628 23.4743 125.737 23.5122C127.23 23.564 131.189 24.7961 132.195 25.5232C132.636 25.8417 133.922 26.4174 135.053 26.8022C136.184 27.187 137.287 27.6698 137.504 27.8753C137.721 28.0809 138.842 28.8571 139.995 29.6004C141.147 30.3436 142.181 31.1967 142.294 31.4962C142.528 32.1232 145.161 33.2375 147.722 33.7934C148.968 34.0641 150.034 34.6291 151.376 35.7299C152.418 36.5848 154.051 37.6467 155.004 38.0897C155.957 38.5326 156.73 38.9973 156.722 39.1221C156.714 39.2471 157.965 40.3901 159.503 41.6626C161.041 42.9351 163.521 45.2246 165.015 46.7505C166.509 48.2764 168.653 50.2938 169.779 51.2335C170.906 52.1732 172.493 53.5012 173.306 54.1844C174.119 54.8677 175.032 55.8214 175.336 56.3039C175.64 56.7865 176.561 57.7769 177.381 58.5051C178.202 59.2334 178.863 60.0764 178.851 60.3786C178.818 61.2017 182.527 64.6711 184.477 65.6388C185.417 66.1053 186.431 66.6782 186.732 66.9124C187.545 67.5465 189.512 68.2978 189.828 68.0946C190.41 67.7202 190.095 67.1581 188.52 65.7604C187.622 64.9642 186.743 63.8091 186.567 63.1936C186.39 62.578 186.119 61.6429 185.964 61.1155C185.81 60.5885 185.039 59.5425 184.253 58.7917C183.466 58.0409 182.831 57.2982 182.842 57.1412C182.85 56.9846 182.296 56.4427 181.604 55.9378C179.926 54.712 176.676 50.7908 176.407 49.6669C176.256 49.0402 175.452 48.3232 173.754 47.3018C172.413 46.4956 171.099 45.4106 170.833 44.8908C170.298 43.8478 168.556 42.2519 167.927 42.2305C167.707 42.2248 167.03 41.5968 166.424 40.839C165.818 40.0811 165.197 39.4566 165.045 39.4511C164.467 39.4281 159.943 35.047 159.977 34.5411C160.018 33.9807 161.651 33.3752 163.002 33.4211C163.548 33.4384 164.499 34.2768 165.952 36.0154C167.388 37.735 168.502 38.718 169.326 38.9932C170.901 39.519 171.399 40.0033 171.523 41.126C171.656 42.3388 172.53 43.3267 174.694 44.7106C175.764 45.3954 177.223 46.8565 178.286 48.3085C179.27 49.6532 180.317 50.8287 180.612 50.9207C180.907 51.0128 181.141 51.2086 181.131 51.3567C181.123 51.5047 181.854 52.4874 182.759 53.5407C184.745 55.8509 188.122 58.4636 190.417 59.4647C191.466 59.9226 192.34 60.6109 192.738 61.2936C193.199 62.0809 193.852 62.5419 195.065 62.9346C196.827 63.5048 197.717 63.4075 198.863 62.5199C199.178 62.2757 199.747 62.0868 200.128 62.0994C200.509 62.1109 201.209 61.6657 201.684 61.1068C202.516 60.1281 202.525 60.0267 201.936 58.3589C201.599 57.4064 201.214 55.9342 201.08 55.0872C200.923 54.0945 200.303 52.9219 199.336 51.7873C198.511 50.8193 197.4 49.4592 196.867 48.765C194.889 46.1849 193.187 44.5869 191.894 44.0973C191.163 43.8202 189.823 43.1331 188.917 42.5704C185.415 40.3952 184.881 40.1287 182.69 39.4615C179.401 38.4597 169.362 32.605 169.422 31.7233C169.462 31.1398 170.353 30.7514 171.214 30.9427C171.663 31.0424 172.631 31.8659 173.366 32.7729C174.772 34.5079 176.716 35.6724 178.299 35.7281C179.148 35.7569 179.253 35.617 179.34 34.3209C179.414 33.281 179.225 32.73 178.672 32.3396C178.251 32.0424 177.703 31.3994 177.456 30.9111C177.209 30.4226 176.863 30.0185 176.689 30.0125C176.514 30.0067 176.15 29.5672 175.881 29.0365C175.612 28.5054 174.456 27.2517 173.311 26.25C172.166 25.2484 170.866 23.7871 170.422 23.0029C168.253 19.1714 164.585 14.982 162.62 14.0917C162.017 13.8181 161.035 12.8983 160.438 12.0474C159.007 10.0053 156.783 7.7073 154.774 6.19455C152.395 4.40238 152.72 2.49276 155.503 1.90969C157.379 1.51687 158.793 2.12223 159.387 3.5717C159.642 4.19446 160.303 5.16828 160.855 5.73579C161.407 6.30312 161.849 6.91107 161.837 7.0864C161.829 7.26149 161.957 7.45445 162.13 7.51492C162.303 7.5754 163.274 8.52479 164.289 9.62468C167.158 12.735 168.03 13.6584 169.706 15.3645C170.563 16.2366 171.255 17.083 171.244 17.2454C171.228 17.5116 173.808 19.6576 175.939 21.1491C176.393 21.4665 176.946 22.4242 177.168 23.2769C177.791 25.6737 178.608 26.7902 181.993 29.8726C184.364 32.0312 185.605 32.8922 187.088 33.4068C189.079 34.0978 191.38 35.8463 194.38 38.949C195.883 40.5024 197.799 42.0831 201.75 45.0277C203.577 46.3894 207.857 47.9273 208.59 47.4859C209.254 47.0873 210.692 47.786 211.837 49.0638C212.491 49.7936 213.728 50.6124 214.804 51.0264C215.818 51.4169 217.435 52.1545 218.396 52.6649C220.478 53.7703 221.592 53.6892 221.243 52.4581C221.115 52.0048 220.912 50.7594 220.791 49.69C220.368 45.9255 219.144 42.4796 217.38 40.0913C216.602 39.0384 216.4 38.3376 216.504 37.058C216.753 34.0088 215.331 30.5861 211.385 24.7369C210.272 23.0866 209.082 20.9223 208.741 19.9274C208.016 17.8093 206.914 15.2861 205.967 13.575C205.227 12.2392 204.563 10.3004 204.211 8.44933C204.086 7.78949 203.378 6.09421 202.638 4.68208C201.185 1.90946 201.03 0.726731 202.048 0.184037C202.787 -0.209937 204.448 0.0584715 205.278 0.705304C205.583 0.943186 206.005 2.13087 206.217 3.34424C206.681 6.00246 207.71 8.5022 208.78 9.56719C209.279 10.0643 209.535 10.7978 209.48 11.5741C209.373 13.0713 210.783 16.7762 212.74 20.1421C213.544 21.524 214.188 22.859 214.171 23.1087C214.146 23.5217 214.782 24.7487 217.325 29.159C218.364 30.9623 219.193 33.9277 219.317 36.2903C219.401 37.8747 220.43 40.3458 222.061 42.8791C222.44 43.4656 222.85 44.4183 222.974 44.9961C223.154 45.8368 226.531 51.9336 227.617 53.379C227.931 53.7972 230.248 56.2356 231.026 56.9664C233.565 59.3532 239.493 54.3247 237.287 51.6558C236.746 51.0009 236.708 50.2718 237.003 46.0479C237.076 44.9734 236.921 43.3589 236.657 42.4602C236.392 41.5614 236.016 39.9616 235.819 38.9049C235.623 37.8484 234.997 36.0168 234.428 34.8347C233.859 33.6526 233.303 31.9448 233.194 31.0397C233.085 30.1345 232.759 29.0237 232.469 28.5714C232.18 28.1186 231.966 27.4188 231.993 27.0154C232.017 26.6122 231.707 25.6449 231.297 24.8662C229.76 21.9458 230.848 20.8473 234.011 22.1292L235.699 22.8136L235.484 24.8014C235.134 28.0224 235.798 32.2871 236.879 33.7641C237.52 34.6393 237.764 35.4144 237.638 36.1739C237.535 36.7897 237.654 37.5968 237.909 37.9675C238.161 38.3385 238.448 39.2867 238.545 40.0751C238.644 40.8636 239.133 42.2601 239.633 43.1786C240.474 44.7211 240.506 45.075 240.056 47.8162C239.61 50.5278 239.646 50.955 240.471 52.7672C242.225 56.6175 243.832 58.5528 244.781 57.9542C245.486 57.5096 246.55 49.1872 246.142 47.3166C245.939 46.3848 245.695 44.4129 245.603 42.9346C245.333 38.6296 244.978 36.8276 243.831 33.9344C242.915 31.6224 242.755 30.5695 242.766 26.8952C242.773 24.3605 242.559 22.0746 242.249 21.3647C241.958 20.6992 241.655 18.3422 241.578 16.1269C241.497 13.9116 241.342 10.7549 241.228 9.112C241.043 6.46417 241.113 6.00966 241.842 5.10992C242.848 3.86948 244.036 3.73327 245.458 4.69522L246.526 5.41814L246.135 13.3018C245.893 18.1879 245.902 21.5098 246.16 22.0384C246.387 22.5079 246.504 23.9866 246.419 25.3253C246.334 26.6639 246.435 28.3012 246.637 28.9637C246.842 29.6263 247.021 31.1067 247.036 32.2534C247.052 33.4001 247.202 34.7462 247.373 35.2448C247.543 35.7436 247.859 36.9619 248.075 37.9526C248.29 38.9434 248.691 40.3553 248.962 41.0903C249.235 41.8254 249.405 43.2016 249.34 44.1485C249.259 45.3038 249.479 46.2632 250.002 47.0645C250.43 47.7213 250.891 48.9749 251.026 49.8502C251.205 51.0167 251.562 51.6368 252.36 52.1723C252.958 52.5744 253.597 53.3691 253.778 53.9388C253.959 54.5084 254.379 55.1863 254.71 55.445C255.157 55.7935 255.193 56.0578 254.851 56.4637C254.292 57.1257 254.537 57.3776 255.589 57.2205C256.074 57.148 256.477 56.7477 256.647 56.1714C256.798 55.6588 257.307 54.2506 257.778 53.0422C258.496 51.202 258.563 50.6591 258.187 49.7005C257.818 48.758 257.851 48.4225 258.377 47.7997C259.134 46.9035 259.986 46.6444 260.6 47.1233C260.844 47.3139 261.001 48.5102 260.948 49.7822C260.899 51.0542 261.029 52.8303 261.24 53.729C261.454 54.6276 261.501 55.769 261.345 56.2655C260.958 57.4933 261.393 57.8765 263.054 57.7582L264.446 57.6585L264.253 56.2722C264.148 55.5097 263.944 54.6198 263.802 54.2946C263.66 53.9692 263.761 53.1683 264.026 52.5142C264.344 51.7292 264.427 50.107 264.268 47.741C264.136 45.7697 264.219 40.5503 264.46 36.1424C264.857 28.7484 264.952 28.0885 265.685 27.6166C266.718 26.9521 267.548 26.9992 268.548 27.7791C269.26 28.3343 269.309 28.6486 268.954 30.4003C268.732 31.4949 268.246 32.7825 267.873 33.2615C266.806 34.6341 266.305 38.4442 267.004 39.8771C267.406 40.7014 267.48 41.5698 267.244 42.6726C266.969 43.9543 267.037 44.3606 267.584 44.7155C268.157 45.0865 268.49 45.1026 269.625 44.8163C270.371 44.628 271.499 44.4252 272.132 44.3659C272.764 44.3066 273.504 44.086 273.774 43.8763C274.57 43.2594 275.715 39.6841 275.548 38.3365C275.462 37.6424 275.708 36.3799 276.103 35.4783C276.494 34.5902 276.912 32.9952 277.033 31.934C277.154 30.8728 277.614 27.67 278.054 24.8167C278.495 21.9635 278.883 19.4288 278.918 19.1841C278.95 18.9393 278.942 17.2546 278.901 15.44C278.82 12.3545 278.877 12.0909 279.76 11.3717C281.023 10.3403 283.257 10.3645 283.849 11.4178C284.414 12.422 283.881 15.3959 282.891 16.788C282.155 17.8208 281.997 18.9223 281.494 26.5745C280.798 37.1644 280.583 40.7734 280.47 43.742C280.422 45.0262 280.147 46.3208 279.848 46.6745C279.438 47.1606 279.395 47.9397 279.661 50.0278C279.853 51.5239 280.183 52.9214 280.395 53.1335C280.904 53.6444 283.248 53.7066 284.254 53.236C284.948 52.9118 284.999 52.7292 284.638 51.8637C283.766 49.7739 284.723 47.7458 286.342 48.2505C286.823 48.4003 286.911 48.7211 286.691 49.5162C285.701 53.0938 285.624 53.6969 286.101 54.1457C286.372 54.4015 286.97 54.6238 287.429 54.6394C288.614 54.6797 292.49 53.0153 292.52 52.4528C292.569 51.6085 291.918 51.1118 291.067 51.3385C289.53 51.7486 288.37 51.7267 288.399 51.2866C288.416 51.0407 289.032 50.8045 289.869 50.7222C291.323 50.5799 291.84 50.1652 291.914 49.0834C291.938 48.7585 292.455 48.0708 293.069 47.5544C293.78 46.9555 294.21 46.2287 294.256 45.5471C294.347 44.2037 296.6 39.8768 297.766 38.8057C298.464 38.1647 298.913 38.0273 299.956 38.1351C301.622 38.3074 301.869 39.3411 300.523 40.5089C300.01 40.9542 299.565 41.6847 299.535 42.1323C299.502 42.5798 298.971 43.4164 298.349 43.9913C297.671 44.6174 296.989 45.7961 296.649 46.9296C296.336 47.9706 295.866 49.0992 295.605 49.4375C294.561 50.7887 295.95 51.9335 298.759 52.038C299.509 52.0668 300.143 52.1901 300.168 52.3139C300.395 53.4247 300.084 55.8536 299.695 56.012C299.362 56.1474 299.423 56.372 299.892 56.7381C300.463 57.1839 300.682 57.2087 301.268 56.8965C301.652 56.692 301.929 56.2437 301.883 55.8999C301.826 55.457 302.176 55.1576 303.089 54.8719C304.216 54.5194 304.383 54.3184 304.412 53.2779C304.428 52.6229 304.338 51.5889 304.201 50.98C304.007 50.098 304.16 49.6651 304.949 48.8497L305.94 47.8263L308.67 48.9915C310.172 49.6325 311.494 50.2737 311.608 50.4166C311.723 50.5595 313.223 50.7628 314.943 50.8682C317.634 51.0335 318.261 50.973 319.445 50.4333C320.202 50.0883 321.783 49.7107 322.96 49.5937C326.209 49.2706 329.276 48.1511 331.79 46.3712C333.038 45.4874 335.401 43.8734 337.042 42.7845L340.025 40.8048L338.993 40.3756C336.751 39.4437 338.217 37.8434 341.883 37.2216C345.566 36.5971 347.984 35.4024 350.522 32.9527C351.758 31.76 353.142 30.1665 353.599 29.4116C354.646 27.679 355.715 27.0298 357.05 27.316C357.604 27.4346 358.137 27.7036 358.235 27.9138C358.333 28.1234 357.614 29.3409 356.638 30.6185C355.662 31.8961 354.842 33.1718 354.817 33.4534C354.792 33.7351 354.312 34.5591 353.752 35.2849C352.915 36.3691 352.443 36.6493 351.105 36.8565C349.872 37.0471 349.292 37.3518 348.716 38.1111C348.298 38.6623 347.793 39.108 347.593 39.1012C347.393 39.0955 346.915 39.5142 346.532 40.0336C345.322 41.6724 343.369 43.9321 342.741 44.4185C342.311 44.752 342.173 45.3798 342.264 46.599L342.39 48.3112L341.6 47.4687C340.822 46.6392 340.789 46.633 339.444 47.0696C338.693 47.3132 336.542 47.8331 334.665 48.2244C331.669 48.8488 330.949 49.1458 328.775 50.6557L326.297 52.3757L326.908 53.9646C327.509 55.5263 327.551 55.5563 329.312 55.7081C330.902 55.8452 331.072 55.8008 330.827 55.3124C329.895 53.4543 330.56 53.0762 331.725 54.8021C332.121 55.3892 332.638 55.8882 332.873 55.9111C334.637 56.0827 338.614 56.0419 340.797 55.8305C342.24 55.6905 343.706 55.5586 344.054 55.5373C344.403 55.5143 344.977 55.4238 345.33 55.3317C346.517 55.023 350.976 54.7116 353.148 54.7856C354.333 54.826 356.337 54.7684 357.602 54.6561C358.866 54.5443 360.833 54.4032 361.973 54.3427C363.113 54.2822 364.36 54.1267 364.745 53.9971C365.129 53.8675 366.198 53.7126 367.12 53.6527C385.156 52.4812 384.866 52.4903 385.612 53.0721C385.963 53.3457 386.59 53.5035 387.012 53.424C387.432 53.3451 389.099 53.1948 390.716 53.09C396.093 52.7421 397.035 52.6424 397.565 52.3653C397.854 52.2144 398.236 52.1603 398.414 52.2455C398.592 52.3308 400.257 52.3244 402.114 52.234C403.971 52.1407 406.533 52.0353 407.808 51.9996C409.083 51.965 410.743 51.8176 411.496 51.6753C412.25 51.533 414.075 51.4962 415.552 51.5935C417.212 51.7029 418.482 51.6396 418.876 51.4311C419.227 51.2445 419.607 51.1638 419.722 51.2531C419.835 51.3424 420.485 51.2877 421.164 51.1264C421.842 50.9674 425.23 50.8718 428.691 50.9133C433.793 50.9743 435.137 50.9018 435.793 50.5176C436.714 49.9819 441.863 49.9179 443.494 50.422C444.025 50.5861 444.564 50.6115 444.693 50.4796C444.821 50.3471 446.493 50.2135 448.408 50.1824C450.323 50.1536 452.933 50.1 454.207 50.0677C455.482 50.0332 459.268 50.0217 462.622 50.039C465.975 50.0562 470.045 50.0505 471.666 50.0217C473.287 49.9986 477.357 49.9986 480.709 50.0332C484.061 50.062 487.564 50.0505 488.492 50.0101C489.421 49.9641 494.286 49.9929 499.304 50.0764C504.322 50.1576 510.437 50.1582 512.892 50.0764C515.347 49.9952 517.505 50.0021 517.688 50.0879C518.535 50.4997 550.76 51.2342 559.507 51.0411C562.983 50.9645 566.674 50.9605 567.71 51.0354C572.263 51.3528 574.245 51.3464 581.804 50.9951C586.213 50.7889 592.642 50.6282 596.091 50.6374C602.305 50.6547 602.358 50.6604 602.089 51.2667C601.894 51.7079 601.985 51.8409 602.411 51.7413C602.737 51.6652 602.993 51.7528 602.98 51.9377C602.964 52.1381 603.348 52.217 603.93 52.1341C605.375 51.929 607.144 52.5741 607.095 53.2882C607.055 53.8457 607.327 53.9007 610.725 54.032C615.537 54.2181 617.958 54.4905 618.622 54.9209C619.626 55.5714 632.098 56.4313 640.951 56.4604C641.529 56.4633 642.656 56.5894 643.455 56.7427C644.254 56.8959 646.461 57.0681 648.359 57.1245C650.257 57.1821 651.885 57.325 651.978 57.443C652.205 57.7345 658.233 57.7984 660.857 57.5375C662.123 57.4114 663.558 57.4528 664.425 57.6406C665.224 57.8134 666.693 58.0547 667.692 58.1768C668.69 58.2995 669.675 58.4815 669.881 58.5818C670.087 58.682 673.128 58.9135 676.639 59.0967C683.215 59.44 686.155 59.7557 686.13 60.1166C686.123 60.2307 685.52 60.5463 684.792 60.819C683.111 61.4474 683.396 61.6594 685.95 61.6822C687.459 61.6937 688.226 61.8636 688.918 62.3318C689.77 62.9079 690.407 62.9795 696.189 63.149C699.675 63.251 702.992 63.2596 703.56 63.1663C706.105 62.7545 709.019 63.7838 709.137 65.136C709.194 65.8033 709.072 65.8445 707.47 65.712C705.739 65.5692 704.217 65.9142 704.749 66.3287C704.904 66.4497 706.495 66.6409 708.283 66.7526C713.381 67.0717 717.541 67.4416 720.937 67.8774C722.657 68.098 725.547 68.333 727.36 68.3998C730.384 68.511 730.729 68.462 731.532 67.8059C732.532 66.9893 734.626 66.8924 735.15 67.6383C735.517 68.1596 736.805 68.2899 740.371 68.1671C741.784 68.121 742.787 68.2016 742.776 68.3658C742.768 68.5207 743.265 68.8283 743.886 69.0487C744.507 69.2693 745.194 69.6189 745.411 69.8256C745.9 70.2916 760.666 72.27 764.209 72.3443C765.269 72.3673 766.121 72.5609 766.428 72.8506C766.849 73.2469 766.716 73.3972 765.59 73.8019C764.854 74.0663 764.245 74.383 764.235 74.5056C764.227 74.6283 763.697 74.7204 763.062 74.7101C761.929 74.6928 759.789 75.1075 760.611 75.1852C760.841 75.2083 760.743 75.3396 760.395 75.4796C759.309 75.9156 761.85 76.5295 765.637 76.7463C769.763 76.9825 771.003 77.3811 770.191 78.2107C769.387 79.0327 770.048 79.3728 773.373 79.8465C776.273 80.2595 778.053 80.984 776.785 81.2345C776.45 81.3008 773.812 81.325 770.923 81.2864C765.908 81.223 763.5 81.5375 762.703 82.3602C762.233 82.8458 763.154 83.3833 764.827 83.6007C766.939 83.8749 767.079 84.0212 766.224 85.0633C765.856 85.5125 765.592 86.0562 765.638 86.2719C765.687 86.4879 765.33 86.8504 764.852 87.0781C764.286 87.3482 764.122 87.593 764.384 87.7817C764.926 88.1728 769.419 88.9296 770.165 88.7554C770.764 88.6154 772.011 89.4602 773.109 90.7479C773.432 91.1275 773.912 91.4437 774.174 91.4501C774.436 91.4558 774.378 91.3262 774.044 91.1604C773.641 90.9599 774.347 90.9265 776.154 91.0607C777.648 91.1713 779.577 91.298 780.442 91.3424C781.306 91.3884 782.005 91.5566 781.994 91.7202C781.981 91.9022 779.993 91.95 776.873 91.844L771.772 91.6707L770.094 92.8056C769.172 93.4299 768.079 93.9301 767.666 93.9174C767.252 93.9059 766.673 94.2204 766.379 94.6186C765.894 95.2751 765.932 95.3461 766.783 95.375C767.3 95.3923 767.851 95.5063 768.007 95.6279C768.162 95.7494 769.087 95.837 770.061 95.8231C771.374 95.8059 771.707 95.8807 771.348 96.118C771.079 96.2954 768.64 96.4561 765.889 96.4775C756.959 96.5471 760.24 97.5178 771.592 98.1645C772.969 98.2428 773.913 98.4196 773.766 98.5717C773.623 98.7192 773.72 98.9444 773.983 99.0722C774.28 99.2168 774.356 99.1713 774.183 98.9507C773.775 98.4289 775.048 98.5556 775.755 99.1074C776.463 99.6597 777.001 99.7432 776.607 99.2393C776.431 99.0135 776.51 98.9732 776.827 99.1269C777.105 99.2623 777.694 99.15 778.17 98.8747C778.982 98.4024 779.051 98.4116 779.811 99.0958C780.247 99.4887 780.611 99.7183 780.618 99.6056C780.626 99.4933 780.992 99.5538 781.433 99.7404C781.873 99.927 784.739 100.229 787.802 100.412C798.485 101.051 813.206 102.316 814.897 102.742C815.238 102.828 816.076 103.024 816.76 103.178C818.049 103.467 819.022 103.94 819 104.266C818.986 104.463 816.784 104.968 814.399 105.322C812.7 105.575 805.556 105.447 788.362 104.857C781.15 104.61 775.294 104.441 775.348 104.482C775.726 104.769 782.685 105.801 785.347 105.964C789.048 106.191 789.814 106.451 787.458 106.682C786.293 106.796 766.622 105.937 764.263 105.668C764.127 105.651 762.632 105.609 760.941 105.571C758.172 105.509 757.927 105.548 758.481 105.982C759.243 106.576 763.19 106.931 773.993 107.379C783.332 107.765 782.855 107.717 783.13 108.308C783.488 109.076 781.892 109.216 773.663 109.141C761.426 109.029 760.315 109.152 762.277 110.392C762.999 110.848 763.053 111.036 762.614 111.556C762.133 112.125 762.22 112.206 763.649 112.527C768.376 113.589 772.431 113.975 784.114 114.475L787.556 114.623L789.973 116.462C791.359 117.516 792.374 118.558 792.35 118.904C792.297 119.683 792.525 119.733 797.739 120.074C800.157 120.233 803.305 120.573 804.733 120.829C809.219 121.634 807.912 122.007 800.551 122.023C797.891 122.029 795.328 122.134 794.857 122.256C794.386 122.378 792.839 122.7 791.418 122.971C788.465 123.534 783.907 123.381 767.313 122.158C755.652 121.298 747.337 121.02 746.644 121.466C745.71 122.067 746.997 122.543 750.14 122.756C753.836 123.007 754.263 123.111 753.909 123.681C753.756 123.927 753.468 124.049 753.267 123.952C753.066 123.854 752.888 123.98 752.872 124.229C752.855 124.51 752.606 124.61 752.223 124.49C751.883 124.384 751.595 124.444 751.583 124.627C751.567 124.807 751.183 124.943 750.722 124.927C750.26 124.91 749.872 125.055 749.859 125.246C749.842 125.436 749.965 125.509 750.125 125.406C750.284 125.304 750.612 125.343 750.855 125.494C751.097 125.644 751.68 125.673 752.151 125.556C752.744 125.41 752.814 125.324 752.38 125.277C752.036 125.243 752.315 125.112 752.995 124.992C754.804 124.675 755.188 125.055 753.783 125.773L752.562 126.398L753.544 126.814C754.085 127.043 754.823 127.518 755.186 127.868C755.65 128.316 756.515 128.576 758.089 128.743C759.322 128.873 760.323 129.111 760.312 129.271C760.287 129.654 753.853 130.091 750.382 129.945C746.414 129.78 746.102 129.797 746.399 130.178C746.722 130.591 745.788 131.007 744.617 130.974C744.146 130.962 743.002 131.191 742.075 131.488C741.147 131.784 739.783 132.006 739.043 131.981C735.746 131.869 735.511 132.545 738.587 133.294C739.839 133.598 740.854 133.986 740.842 134.154C740.834 134.323 741.016 134.385 741.254 134.291C741.491 134.198 741.675 134.28 741.662 134.473C741.646 134.729 741.794 134.742 742.208 134.519C742.634 134.292 742.917 134.367 743.329 134.816C743.633 135.146 745.021 135.729 746.416 136.111C748.263 136.618 749.069 137.013 749.38 137.566C749.875 138.445 749.819 138.466 746.638 138.629C737.194 139.112 736.692 139.245 740.296 140.314C742.063 140.837 744.117 141.117 748.134 141.38C756.436 141.924 759.686 142.2 760.092 142.398C760.295 142.497 760.443 142.85 760.42 143.182C760.396 143.537 760.722 143.863 761.208 143.971C762.343 144.224 762.207 144.82 760.932 145.181C759.891 145.475 742.654 144.826 739.309 144.366C738.506 144.256 737.182 144.252 736.365 144.355L734.88 144.544L736.868 144.834C737.962 144.993 740.179 145.218 741.795 145.333C746.5 145.669 749.425 146.096 749.978 146.527C750.709 147.097 750.662 147.136 748.805 147.501C747.866 147.686 747.207 147.983 747.299 148.181C747.402 148.403 746.876 148.539 745.872 148.549C744.997 148.561 743.898 148.641 743.429 148.733C742.557 148.905 742.183 148.947 741.133 148.991C740.805 149.002 740.671 149.121 740.835 149.249C741 149.378 743 149.56 745.279 149.653C749.424 149.823 750.694 150.149 750.635 151.024C750.578 151.83 748.272 152.084 741.629 152.015C740.481 152.004 740.731 152.411 742.278 153.071C743.465 153.577 743.619 153.762 743.235 154.217C742.556 155.021 743.971 155.342 749.686 155.684C752.357 155.844 754.669 156.074 754.824 156.194C754.979 156.315 754.727 156.591 754.263 156.807C753.586 157.124 752.293 157.125 747.639 156.811C744.459 156.596 741.851 156.503 741.844 156.604C741.838 156.705 742.111 157.259 742.452 157.837C743.157 159.027 743.619 159.147 749.213 159.587C754.786 160.025 755.899 160.237 755.857 160.857C755.832 161.233 756.282 161.49 757.344 161.707C758.986 162.041 759.702 162.779 758.34 162.733C757.887 162.716 757.281 162.887 756.993 163.111C756.535 163.466 755.297 163.665 752.075 163.903C751.61 163.937 748.94 163.885 746.141 163.791C741.379 163.628 741.036 163.655 740.789 164.213C740.567 164.715 740.184 164.798 738.364 164.736C736.074 164.658 732.843 164.986 731.28 165.455C730.696 165.63 729.58 165.622 728.337 165.432C725.438 164.992 717.357 164.716 715.617 164.997C714.023 165.254 713.604 165.42 711.794 166.507C711.154 166.892 710.398 167.162 710.115 167.108C709.723 167.033 709.69 167.206 709.977 167.83C710.257 168.438 710.216 168.704 709.819 168.86C709.524 168.976 709.164 169.013 709.019 168.942C708.874 168.872 708.498 169.119 708.183 169.493C707.373 170.451 708.086 171.377 709.863 171.677C710.983 171.865 711.215 172.026 711.017 172.474C710.88 172.782 710.976 173.041 711.237 173.05C711.495 173.062 711.69 172.965 711.671 172.842C711.511 171.803 711.793 171.729 715.198 171.911C717.069 172.012 718.806 172.221 719.057 172.375C719.692 172.764 721.8 173.082 721.819 172.791C721.836 172.537 726.826 172.86 727.182 173.138C727.616 173.476 726.921 173.549 723.865 173.49C722.138 173.455 719.625 173.597 718.281 173.803C716.716 174.044 715.278 174.083 714.278 173.911C713.42 173.763 711.773 173.619 710.619 173.591C709.464 173.562 706.739 173.268 704.564 172.936C701.138 172.413 699.667 172.296 697.138 172.344C696.848 172.35 696.599 172.534 696.584 172.754C696.56 173.064 695.683 173.114 692.679 172.973C690 172.847 688.169 172.921 686.759 173.215C685.474 173.481 683.284 173.598 680.849 173.528L676.98 173.418L679.063 174.025C680.209 174.359 682.019 174.738 683.085 174.867C685.013 175.102 687.898 176.082 686.684 176.091C686.337 176.093 684.235 176.074 682.013 176.051C679.495 176.022 677.483 176.159 676.672 176.412C675.663 176.727 674.87 176.741 673.139 176.478C671.912 176.291 667.323 175.955 662.943 175.731C658.563 175.507 653.149 175.18 650.913 175.006C646.381 174.652 644.938 174.775 645.271 175.492C645.463 175.905 644.76 175.91 639.113 175.532C635.607 175.298 632.553 175.017 632.328 174.907C632.102 174.797 627.565 174.585 622.246 174.435C616.927 174.285 610.224 173.934 607.351 173.655C604.478 173.377 600.431 173.05 598.357 172.929C596.283 172.808 592.609 172.563 590.192 172.385C576.14 171.346 525.896 169.42 510.271 169.32C503.961 169.28 487.826 169.219 469.271 169.165C465.917 169.154 462.978 169.227 462.74 169.324C462.502 169.421 460.512 169.461 458.318 169.413C456.123 169.367 453.378 169.373 452.217 169.431C451.057 169.489 447.012 169.621 443.228 169.721C437.867 169.864 436.163 170.013 435.506 170.396C434.705 170.862 434.625 170.859 433.884 170.336C433.14 169.811 432.629 169.799 422.65 170.074C408.583 170.462 404.379 170.599 400.388 170.802C398.531 170.897 393.216 171.123 388.577 171.304C368.075 172.106 357.792 172.737 350.684 173.633C348.655 173.888 347.49 174.798 348.539 175.308C349.072 175.567 349.311 175.556 354.674 175.037C357.431 174.77 361.213 174.744 368.35 174.945C376.601 175.176 378.428 175.149 379.508 174.776C380.944 174.281 382.585 174.252 383.497 174.705C384.189 175.05 383.927 175.133 381.36 175.384C378.629 175.65 378.201 175.681 374.386 175.888C370.599 176.093 369.309 176.502 369.712 177.369C369.846 177.657 368.937 177.778 366.182 177.838C360.925 177.953 354.735 178.429 352.732 178.871C351.792 179.079 350.62 179.24 350.126 179.231C349.124 179.213 336.026 180.961 333.013 181.517C331.948 181.714 330.119 182.037 328.949 182.236C323.108 183.228 322.294 183.43 322.484 183.838C322.738 184.384 322.095 184.607 319.993 184.703C319.041 184.749 317.935 184.891 317.536 185.023C317.138 185.155 316.127 185.24 315.291 185.211C311.157 185.071 308.278 186.228 308.153 188.081C308.12 188.512 307.648 189.257 307.096 189.736C306.179 190.532 305.945 190.585 304.357 190.361C302.593 190.112 301.416 190.503 302.923 190.838C304.027 191.083 303.934 191.574 302.752 191.746C301.26 191.964 299.314 193.271 299.549 193.898C300.129 195.447 299.401 197.485 298.28 197.447C297.865 197.435 296.887 195.826 296.799 195.013C296.783 194.848 296.39 194.7 295.928 194.685C295.13 194.656 295.142 194.731 296.143 196.178C296.891 197.258 297.455 197.709 298.089 197.734C299.23 197.78 300.025 198.475 299.396 198.879C298.57 199.411 299.315 200.763 300.688 201.215L301.975 201.638L299.684 202.358C298.424 202.755 297.14 203.07 296.831 203.059C296.521 203.048 295.678 203.359 294.958 203.748C293.88 204.33 293.366 204.415 292.054 204.224C290.969 204.067 290.185 204.124 289.597 204.404C288.796 204.786 288.78 204.858 289.376 205.386C289.729 205.7 290.121 206.246 290.247 206.6C290.431 207.117 290.263 207.274 289.382 207.399C288.78 207.485 288.121 207.474 287.917 207.376C287.713 207.277 287.201 207.616 286.781 208.13C286.057 209.016 285.989 209.034 285.477 208.486C285.181 208.167 284.928 207.697 284.916 207.441C284.842 205.848 284.737 205.494 284.321 205.38C284.065 205.31 283.883 204.852 283.916 204.364C283.949 203.875 283.734 203.286 283.438 203.055C283.141 202.824 282.831 201.785 282.748 200.746C282.595 198.816 281.309 196.243 280.381 196.009C279.456 195.775 279.757 197.015 280.709 197.364C281.571 197.679 281.513 197.72 279.826 197.987C278.832 198.144 278.011 198.394 278.001 198.543C277.993 198.692 277.48 199.163 276.866 199.589C276.066 200.145 275.744 200.666 275.733 201.428C275.725 202.014 275.572 202.89 275.392 203.375C275.016 204.395 275.416 205.019 276.541 205.176C277.042 205.246 277.341 205.549 277.355 206.003C277.363 206.398 277.54 207.263 277.738 207.925C277.936 208.587 277.988 209.349 277.851 209.617C277.714 209.886 277.794 210.198 278.026 210.31C279.231 210.896 275.506 213.362 273.517 213.294C272.25 213.254 271.318 212.484 271.913 211.973C272.142 211.776 272.332 211.414 272.334 211.168C272.339 210.525 270.94 208.141 270.55 208.128C270.369 208.122 269.889 208.44 269.483 208.836C269.037 209.271 268.349 209.543 267.744 209.522C267.141 209.499 266.731 209.663 266.713 209.927C266.697 210.168 266.197 210.569 265.602 210.817C264.941 211.093 264.501 211.549 264.471 211.987C264.39 213.131 263.224 213.15 261.911 212.027C260.598 210.905 260.5 210.414 261.486 209.888C262.041 209.593 262.441 209.604 263.606 209.948C264.721 210.278 265.182 210.298 265.67 210.038C266.21 209.75 266.191 209.585 265.526 208.852C264.786 208.035 264.671 208.01 262.734 208.228C261.623 208.353 260.419 208.619 260.059 208.819C259.698 209.019 259.015 209.214 258.541 209.252C257.618 209.327 255.474 208.192 255.511 207.647C255.544 207.113 254.615 207.238 253.488 207.919C252.455 208.543 252.428 208.544 251.881 207.954C250.881 206.88 251.652 204.127 253.238 203.106C254.259 202.448 254.412 202.004 253.853 201.306C253.307 200.625 251.354 201.927 250.924 203.258C250.736 203.84 250.328 204.508 250.018 204.744C249.125 205.42 247.818 207.446 247.883 208.054C247.915 208.358 247.546 208.882 247.063 209.218C246.012 209.949 245.066 211.917 244.788 213.953C244.417 216.671 243.698 218.676 242.823 219.439C241.998 220.158 241.967 220.398 242.174 224.483C242.378 228.505 242.329 228.908 241.388 230.972C239.879 234.281 239.248 237.017 238.625 242.953C238.436 244.752 238.09 247.045 237.856 248.047C237.623 249.05 237.35 251.184 237.249 252.789C237.149 254.395 236.7 256.69 236.253 257.89C235.633 259.552 235.46 260.822 235.525 263.229C235.573 264.966 235.573 267.726 235.541 269.364C235.492 271.261 235.698 272.836 236.1 273.704C236.447 274.454 236.857 276.039 237.01 277.227C237.279 279.316 237.248 279.427 236.046 280.641C234.543 282.158 232.944 282.661 230.72 282.316C228.71 282.005 228.056 281.451 227.386 279.492C226.807 277.801 227.133 276.254 228.388 274.732C229.388 273.519 230.17 270.05 230.877 263.693C231.195 260.835 231.935 256.1 232.521 253.169C233.745 247.054 233.906 245.463 233.734 241.174C233.651 239.11 233.815 237.472 234.217 236.273C234.551 235.283 234.986 232.936 235.184 231.059C235.382 229.181 235.72 227.047 235.934 226.317C236.265 225.193 236.195 224.881 235.478 224.29C234.215 223.246 233.085 223.377 230.985 224.807C228.929 226.209 228.752 226.25 227.636 225.59C226.571 224.959 227.04 223.641 229.36 220.735C230.389 219.447 231.26 218.096 231.296 217.733C231.329 217.369 231.754 216.616 232.235 216.059C234.168 213.816 234.534 213.108 234.65 211.383C234.749 209.933 234.642 209.585 234.097 209.566C233.586 209.549 233.498 209.364 233.736 208.809C233.944 208.321 233.872 208.058 233.519 208.025C233.227 207.996 232.707 207.936 232.363 207.888C232.019 207.842 231.315 207.763 230.798 207.717C230.092 207.655 229.869 207.448 229.907 206.891C229.94 206.354 229.732 206.14 229.143 206.12C228.695 206.103 228.211 205.943 228.068 205.76C227.881 205.52 227.674 205.513 227.33 205.737C226.36 206.361 225.701 206.04 225.905 205.044C226.065 204.262 226.279 204.092 227.044 204.138C227.756 204.178 227.998 204.027 228.033 203.515C228.106 202.376 227.42 199.904 226.856 199.298C226.34 198.745 226.279 198.747 225.001 199.35C224.275 199.694 223.603 199.973 223.509 199.969C223.294 199.964 224 197.922 224.447 197.256C224.632 196.982 225.149 196.689 225.595 196.605C226.086 196.512 226.427 196.179 226.455 195.766C226.479 195.388 226.647 194.666 226.826 194.159C227.11 193.356 227.036 193.235 226.247 193.208C225.749 193.191 225.219 193.375 225.07 193.616C224.92 193.856 224.35 194.038 223.802 194.019C222.568 193.979 222.43 194.308 221.896 198.565C221.65 200.525 221.304 201.858 221.026 201.913C220.754 201.965 220.592 201.587 220.632 200.992L220.697 199.979L218.431 199.86C215.881 199.726 215.721 199.808 214.466 201.896C213.838 202.942 213.424 204.616 213.003 207.807C212.512 211.535 212.245 212.494 211.357 213.712C210.508 214.877 210.284 215.616 210.229 217.437C210.156 219.978 209.473 221.284 207.673 222.352C206.529 223.03 204.655 225.678 204.585 226.715C204.569 227.016 204.095 227.9 203.542 228.68C202.988 229.461 201.699 232.101 200.677 234.547C199.655 236.993 198.489 239.297 198.086 239.666C197.683 240.035 197.338 240.541 197.321 240.791C197.305 241.041 196.671 241.988 195.913 242.897C194.169 244.992 191.203 250.42 191.11 251.689C191.069 252.22 190.499 253.68 189.839 254.934C189.179 256.188 188.611 257.615 188.578 258.105C188.545 258.594 188.216 259.444 187.848 259.993C187.479 260.542 186.763 262.357 186.257 264.026C185.673 265.95 184.866 267.647 184.055 268.658C183.302 269.596 182.619 270.984 182.396 272.028C182.138 273.237 181.414 274.578 180.127 276.228C178.599 278.188 178.091 279.225 177.47 281.65C177.048 283.299 176.669 285.076 176.629 285.599C176.556 286.57 174.845 288.876 173.482 289.845C171.638 291.156 169.467 291.36 167.481 290.409L167.47 290.416ZM79.9573 204.303C79.4605 203.942 78.9392 203.72 78.7999 203.81C78.408 204.062 79.4665 204.912 80.2038 204.938C80.7087 204.955 80.6516 204.807 79.9573 204.303ZM270.377 205.345C270.401 204.954 269.917 204.298 269.265 203.845C268.628 203.402 268.026 202.857 267.929 202.633C267.793 202.321 267.562 202.297 266.941 202.527C265.599 203.025 265.664 203.942 267.116 205.003C268.744 206.193 270.308 206.357 270.377 205.345ZM272.354 199.477C272.273 199.269 271.8 199.043 271.303 198.974C270.628 198.88 270.456 198.968 270.621 199.323C270.883 199.885 272.572 200.036 272.354 199.477ZM293.857 194.025C293.866 193.861 293.547 193.719 293.143 193.707C292.515 193.69 292.497 193.73 293.018 193.996C293.786 194.386 293.833 194.387 293.857 194.025ZM168.157 177.533C168.311 177.374 168.141 177.234 167.782 177.222C167.422 177.211 167.119 177.334 167.108 177.497C167.1 177.661 167.265 177.801 167.482 177.808C167.7 177.814 168.003 177.692 168.157 177.533ZM313.689 180.691C315.674 180.413 317.524 179.998 317.799 179.768C318.075 179.538 318.592 179.441 318.948 179.552C319.305 179.663 321.318 179.466 323.422 179.113C325.526 178.761 327.538 178.482 327.894 178.494C328.249 178.506 329.935 178.25 331.639 177.924C333.343 177.598 335.788 177.193 337.071 177.025C340.649 176.554 341.339 176.348 341.096 175.824C340.703 174.98 337.016 175.273 329.731 176.729C328.323 177.01 324.491 177.707 321.213 178.276C317.936 178.846 314.675 179.48 313.967 179.685C313.259 179.891 311.833 180.202 310.798 180.376C309.763 180.551 308.819 180.869 308.702 181.083C308.557 181.348 308.743 181.429 309.284 181.334C309.722 181.258 311.704 180.969 313.689 180.691ZM663.156 172.951C663.043 172.807 661.576 172.637 659.897 172.575C657.521 172.487 657.166 172.523 658.297 172.738C660.364 173.129 663.399 173.263 663.156 172.951ZM703.724 169.722C704.09 169.387 704.396 169.019 704.404 168.905C704.437 168.448 701.384 167.898 699.49 168.018C696.433 168.211 693.065 168.638 693.059 168.833C693.043 169.486 694.042 169.852 696.583 170.118C700.836 170.562 702.932 170.446 703.724 169.722ZM128.085 146.743C129.091 146.326 129.985 145.887 130.07 145.767C130.376 145.336 131.066 145.593 132.047 146.505C132.872 147.271 133.361 147.444 134.852 147.494C136.548 147.552 137.189 147.259 137.248 146.399C137.272 146.033 134.052 145.574 130.441 145.428C127.611 145.314 127.049 145.376 126.414 145.881C126.008 146.203 125.327 146.548 124.901 146.647C124.475 146.746 124.234 146.966 124.367 147.136C124.787 147.673 126.196 147.524 128.085 146.743ZM144.557 146.478C145.955 145.684 146.174 145.431 145.779 145.059C144.787 144.125 140.417 146.119 141.217 147.142C141.637 147.68 142.872 147.434 144.557 146.478ZM138.458 144.056C139.259 143.858 139.241 143.817 138.174 143.42C137.28 143.087 136.92 143.069 136.501 143.34C136.082 143.609 136.097 143.748 136.574 143.985C137.278 144.335 137.325 144.337 138.458 144.056ZM141.235 143.415C141.284 142.683 140.839 142.036 140.271 142.017C139.97 142.005 139.771 142.234 139.829 142.523C139.885 142.812 139.937 143.216 139.941 143.421C139.949 143.94 141.2 143.933 141.235 143.415ZM731.954 158.057C731.555 157.969 730.894 157.946 730.485 158.006C730.076 158.067 730.402 158.139 731.21 158.166C732.018 158.195 732.352 158.143 731.954 158.055L731.954 158.057ZM120.378 131.027C120.75 130.94 121.068 130.673 121.084 130.433C121.108 130.122 120.72 130.006 119.744 130.031C117.354 130.093 116.243 131.068 118.478 131.144C119.152 131.167 120.006 131.115 120.378 131.027ZM146.103 128.582C146.054 127.937 146.266 127.579 146.815 127.384C147.869 127.009 147.109 126.416 145.82 126.608C144.95 126.738 143.543 127.979 143.497 128.656C143.473 128.978 145.152 129.656 145.749 129.566C145.983 129.532 146.142 129.088 146.103 128.582ZM115.994 127.517C116.131 127.376 115.97 127.086 115.642 126.873C114.572 126.179 115.066 125.447 117.779 123.7L120.443 121.986L119.812 120.915C119.466 120.326 118.996 119.837 118.77 119.83C117.709 119.795 115.812 121.045 115.266 122.142C114.899 122.881 114.3 123.437 113.685 123.61C112.21 124.027 111.15 126.53 112.127 127.292C112.681 127.725 115.627 127.896 115.994 127.517ZM745.501 147.88C745.68 147.592 745.506 147.512 744.898 147.603C744.245 147.701 744.172 147.794 744.587 148.001C745.275 148.344 745.207 148.353 745.501 147.88ZM109.123 120.725C109.147 120.361 107.985 120.028 107.703 120.319C107.578 120.448 107.59 120.644 107.727 120.754C108.108 121.051 109.099 121.031 109.12 120.725L109.123 120.725ZM122.922 119.222C122.735 118.268 122.578 118.136 121.776 118.259C121.266 118.338 120.611 118.396 120.323 118.389C119.435 118.366 119.672 119.375 120.771 120.3C121.701 121.082 121.888 121.132 122.477 120.754C122.956 120.445 123.078 120.024 122.922 119.222ZM113.006 113.078C113.014 112.914 112.743 112.771 112.396 112.759C112.05 112.748 111.757 112.871 111.747 113.035C111.739 113.199 112.01 113.342 112.356 113.354C112.703 113.365 112.995 113.241 113.006 113.078ZM117.103 113.143C116.933 112.715 116.255 112.738 116.013 113.177C115.926 113.338 116.168 113.481 116.552 113.494C116.937 113.505 117.184 113.347 117.102 113.14L117.103 113.143ZM126.163 110.404C126.363 109.824 125.65 109.348 124.513 109.302C123.689 109.267 123.456 110.147 124.145 110.685C124.779 111.179 125.95 111.016 126.163 110.404ZM130.513 106.968C130.663 106.728 131.122 106.542 131.535 106.556C132.296 106.579 132.989 105.916 132.553 105.577C132.422 105.474 131.603 105.366 130.734 105.337C129.525 105.296 129.101 105.142 128.929 104.682C128.805 104.351 128.805 103.976 128.929 103.848C129.053 103.72 129.01 103.428 128.828 103.198C128.559 102.853 128.373 102.862 127.771 103.25C127.368 103.508 126.77 103.711 126.44 103.699C126.11 103.688 125.831 103.813 125.821 103.976C125.813 104.14 125.989 104.28 126.22 104.288C126.808 104.305 126.657 105.599 126.019 106.01C125.609 106.274 125.598 106.432 125.97 106.723C126.344 107.014 126.567 107.021 126.978 106.758C127.712 106.285 129 106.379 129.254 106.925C129.37 107.175 129.64 107.385 129.853 107.392C130.066 107.398 130.364 107.208 130.512 106.967L130.513 106.968ZM137.295 101.998C137.835 101.78 137.819 101.651 137.185 101.104C135.9 99.9961 134.374 100.407 135.322 101.607C135.862 102.291 136.333 102.384 137.295 101.998ZM158.679 99.6482C159.095 99.3803 159.942 99.1764 160.56 99.1949C162.675 99.2588 163.632 98.9339 164.503 97.8556C165.178 97.0197 165.308 96.5329 165.091 95.6552C164.76 94.323 164.861 94.4076 163.291 94.1455C162.284 93.9773 161.879 94.0793 161.186 94.676C160.656 95.1321 160.562 95.3311 160.94 95.1955C161.382 95.0371 161.36 95.1085 160.859 95.453C160.01 96.0358 158.768 95.7208 158.821 94.9357C158.846 94.6264 158.658 94.3661 158.411 94.3577C157.651 94.3346 154.972 95.7805 155.212 96.088C155.337 96.2476 155.172 96.7831 154.841 97.2776C154.285 98.113 154.318 98.2277 155.318 98.8986C155.91 99.2955 156.209 99.693 155.984 99.7815C155.759 99.8702 155.661 100.129 155.768 100.358C155.989 100.835 157.35 100.504 158.679 99.6482ZM162.384 91.3128C163.11 91.4412 163.894 91.3704 164.39 91.129C165.654 90.5161 167.942 90.7057 169.046 91.5144C169.935 92.165 170.036 92.1792 170.448 91.7113C170.693 91.4337 171.16 91.216 171.487 91.2269C172.124 91.25 173.009 90.3922 173.056 89.7087C173.096 89.0722 167.235 86.9104 165.285 86.8441C163.949 86.798 163.571 86.9115 163.295 87.4391C163.107 87.7974 162.004 88.679 160.844 89.3988C159.254 90.3845 158.78 90.8632 158.922 91.3391C159.099 91.934 159.171 91.9455 160.152 91.5361C160.801 91.2648 161.642 91.1814 162.384 91.3128ZM144.877 82.2162C145.613 81.7428 145.64 80.2624 144.926 79.7032C143.975 78.9619 142.097 79.2096 141.562 80.1473C140.778 81.5221 143.409 83.163 144.88 82.2163L144.877 82.2162ZM175.218 81.5237C175.575 81.5352 175.744 81.2455 175.693 80.7163C175.628 80.0837 175.281 79.7979 174.17 79.4769C173.375 79.2477 172.33 79.0444 171.846 79.0254C171.363 79.0081 170.408 78.769 169.724 78.4972C168.034 77.8265 167.113 78.0963 167.032 79.2854C166.959 80.3766 168.322 81.1831 169.854 80.9542C170.348 80.8805 171.249 81.0302 171.857 81.2865C172.466 81.5434 173.346 81.6978 173.814 81.631C174.281 81.5636 174.912 81.5156 175.218 81.5237ZM778.96 99.0523C778.972 98.8789 778.787 98.8138 778.549 98.9071C778.311 99.0004 778.113 99.1358 778.108 99.2078C778.103 99.2798 778.288 99.3454 778.519 99.3529C778.749 99.3587 778.948 99.2256 778.96 99.0523ZM178.269 72.7363C177.906 72.4229 177.618 71.9767 177.628 71.7441C177.669 70.8892 174.419 68.6253 173.761 69.0488C173.185 69.4198 174.038 70.8652 175.437 71.89C177.527 73.421 179.877 74.123 178.269 72.7363ZM225.183 61.9863C224.909 60.8047 224.566 60.4266 220.809 57.1717C219.012 55.6158 218.054 55.6071 218.669 57.1544C218.882 57.6907 219.389 58.4177 219.796 58.7699C220.203 59.1218 220.529 59.5355 220.521 59.6885C220.497 60.2017 223.984 62.916 224.701 62.9404C225.28 62.9577 225.368 62.7866 225.183 61.9883L225.183 61.9863ZM216.576 61.8428C216.592 61.5566 216.098 60.5005 215.482 59.4962C214.867 58.4918 214.378 57.3876 214.396 57.0423C214.412 56.6967 213.993 55.9079 213.459 55.2888C212.925 54.6695 212.226 53.7567 211.905 53.2601C211.059 51.9508 209.453 51.1896 208.41 51.6033C207.961 51.7813 207.308 51.9172 206.959 51.9051C206.609 51.8936 206.32 51.9454 206.314 52.018C206.282 52.4932 207.4 54.0231 208.49 54.9938C209.196 55.6226 209.866 56.615 209.98 57.1991C210.136 57.995 210.882 58.7714 212.957 60.2981C215.843 62.421 216.532 62.7156 216.576 61.8428ZM234.195 62.6655C234.204 62.5019 234.027 62.362 233.796 62.3539C233.565 62.3481 233.368 62.4737 233.357 62.6373C233.348 62.8009 233.525 62.9408 233.756 62.9489C233.987 62.9546 234.184 62.8285 234.195 62.6655ZM323.895 54.8784C323.991 53.4591 323.41 52.7883 322.372 53.1226C321.995 53.2441 320.672 53.4762 319.434 53.6386C317.508 53.8903 317.195 54.0251 317.268 54.5718C317.333 55.0723 317.802 55.2955 319.429 55.6039C320.571 55.8205 322.024 56.029 322.658 56.0675C323.74 56.1332 323.815 56.0613 323.895 54.8784ZM489.04 52.5749C489.921 52.5576 489.229 52.0882 488.236 52.0306C487.602 51.9961 485.39 51.8181 483.32 51.6395C479.438 51.3049 477.208 51.4644 476.859 52.1015C476.703 52.3872 477.978 52.4799 482.692 52.5243C486.01 52.553 488.866 52.5749 489.04 52.5749ZM599.188 51.8369C599.195 51.7281 598.631 51.6785 597.933 51.7269C596.711 51.8116 596.372 52.0368 596.876 52.43C597.155 52.6471 599.168 52.131 599.188 51.8369ZM120.376 241.821C120.672 241.391 121.466 240.522 122.142 239.889C122.818 239.257 123.824 237.906 124.378 236.887C125.437 234.941 127.041 233.109 128.73 231.918C129.284 231.527 129.821 230.953 129.922 230.643C130.024 230.332 130.337 230.032 130.618 229.976C131.177 229.865 131.079 230.104 129.201 233.424C128.61 234.47 127.561 235.794 126.87 236.368C126.179 236.942 125.608 237.498 125.601 237.604C125.594 237.71 125.234 238.04 124.803 238.339C124.371 238.637 123.749 239.449 123.422 240.142C122.7 241.671 121.873 242.395 120.711 242.513C119.914 242.594 119.885 242.536 120.376 241.821ZM131.679 228.592C131.696 228.346 131.909 228.152 132.154 228.161C132.399 228.167 132.474 228.017 132.322 227.823C132.151 227.603 132.225 227.556 132.517 227.698C132.854 227.862 132.853 228.088 132.514 228.489C131.946 229.162 131.638 229.2 131.679 228.592ZM144.64 211.133C144.672 210.655 145.675 209.847 146.212 209.865C146.876 209.888 146.955 210.167 146.503 210.894C146.242 211.315 144.613 211.524 144.64 211.133ZM318.262 195.286C316.922 194.551 317.194 194.223 319.09 194.288C320.884 194.349 321.786 195.092 320.63 195.558C319.77 195.904 319.287 195.848 318.262 195.286ZM449.552 174.753C449.158 174.381 449.275 174.164 450.186 173.577C451.199 172.926 451.624 172.869 454.681 172.973C457.736 173.076 458.053 173.142 458.018 173.661C457.961 174.51 456.775 175.127 455.262 175.096C454.528 175.079 453.052 175.1 451.982 175.137C450.595 175.189 449.898 175.076 449.552 174.751L449.552 174.753ZM100.025 112.68C99.4728 112.546 98.9467 112.25 98.8561 112.022C98.7235 111.687 99.165 111.657 101.104 111.865C103.435 112.117 105.331 112.812 103.542 112.76C103.092 112.749 102.342 112.778 101.876 112.829C101.41 112.881 100.577 112.812 100.025 112.68ZM97.0077 111.741C97.302 111.668 97.7736 111.683 98.0569 111.775C98.3398 111.868 98.0975 111.927 97.5219 111.907C96.9447 111.89 96.7142 111.813 97.0077 111.741ZM160.713 78.0002C160.463 77.4634 161.134 76.6362 161.554 76.9635C161.71 77.0856 161.635 77.4727 161.383 77.8236C161.021 78.3328 160.885 78.3683 160.713 78.0002ZM772.951 96.3018C773.097 96.2079 773.459 96.2096 773.757 96.3058C774.085 96.4124 773.981 96.4792 773.491 96.4769C773.048 96.474 772.805 96.3962 772.951 96.3018ZM130.884 49.7153C130.66 49.235 131.558 48.4474 132.301 48.4726C132.974 48.4957 134.341 49.6811 133.97 49.92C133.406 50.2828 131.076 50.1277 130.884 49.7153ZM741.818 66.7763C740.903 66.6243 738.74 66.4278 737.011 66.3391C733.519 66.1606 733.184 66.0823 733.531 65.524C733.713 65.2308 734.69 65.1974 737.6 65.3857C739.706 65.5222 741.621 65.7382 741.857 65.8667C742.092 65.9945 742.969 66.1195 743.805 66.1449C744.783 66.1737 745.251 66.3102 745.117 66.5262C744.817 67.01 743.723 67.0925 741.818 66.7763ZM746.642 66.9791C745.499 66.6761 745.527 66.653 747.198 66.5165C748.045 66.4474 748.353 66.5453 748.331 66.8777C748.298 67.3765 748.169 67.3834 746.642 66.9791ZM730.209 65.3276C729.738 64.9607 729.952 64.6685 730.81 64.5072C731.716 64.3368 733.324 64.8788 733.293 65.3436C733.268 65.665 730.624 65.6525 730.209 65.3276ZM256.856 20.0827C256.589 19.831 256.294 18.8484 256.201 17.8996C256.107 16.9507 255.885 15.9859 255.704 15.7557C255.525 15.5253 255.407 13.9124 255.442 12.1711C255.475 10.4298 255.297 8.29313 255.039 7.42276C254.656 6.12871 254.676 5.74926 255.147 5.34044C255.586 4.95971 255.834 4.92688 256.194 5.20335C256.687 5.58177 257.739 9.58061 258.159 12.6713C258.293 13.6592 258.697 15.081 259.057 15.8308C259.96 17.7104 259.821 19.6704 258.748 20.1718C257.702 20.6608 257.458 20.6494 256.856 20.0827Z" fill="#3660D3" fill-opacity="0.67"/>
</svg>
