<svg width="898" height="179" viewBox="0 0 898 179" fill="none" xmlns="http://www.w3.org/2000/svg">
<path d="M664.292 4.1812C664.284 4.70092 664.496 5.02977 664.762 4.91197C665.027 4.79417 665.566 5.29094 665.958 6.01593C666.372 6.78073 667.019 7.33926 667.5 7.3464C668.155 7.35611 668.206 7.46552 667.744 7.86813C667.296 8.25947 667.308 8.41693 667.797 8.54751C668.299 8.68122 668.274 8.85897 667.682 9.38048C667.108 9.88568 667.076 10.0826 667.546 10.208C667.885 10.2985 668.16 10.5346 668.157 10.7328C668.154 10.9309 667.933 10.9883 667.666 10.8602C667.387 10.7267 667.302 10.8736 667.466 11.2048C667.623 11.5224 667.498 11.7784 667.187 11.7738C666.775 11.7677 666.762 11.9679 667.14 12.5118C667.557 13.1113 667.506 13.2559 666.88 13.2466C666.249 13.2373 666.217 13.3318 666.713 13.7393C667.346 14.2605 668.598 13.8214 668.446 13.1313C668.406 12.953 668.636 12.7392 668.956 12.6562C669.339 12.5569 669.437 12.7835 669.24 13.3183C669.076 13.7655 669.145 14.0461 669.394 13.9419C669.642 13.8377 670.29 13.8812 670.832 14.0387C671.614 14.2658 671.382 14.3742 669.71 14.5623C668.395 14.7103 667.599 14.9959 667.594 15.321C667.59 15.6078 667.153 15.836 666.624 15.8282C666.095 15.8203 665.352 16.1339 664.973 16.525C664.295 17.2262 661.758 18.1592 660.943 18.0075C660.712 17.9646 659.261 18.1479 657.717 18.4147C656.174 18.6815 653.516 18.9962 651.811 19.1141C650.107 19.232 648.585 19.4764 648.431 19.6573C648.276 19.8382 647.662 19.9826 647.065 19.9783C646.468 19.9741 644.636 20.4417 642.993 21.0176C641.35 21.5935 639.629 22.0629 639.168 22.0606C638.707 22.0584 638.19 22.2205 638.019 22.4211C637.848 22.6217 637.959 22.7896 638.266 22.7942C638.953 22.8044 638.681 24.4521 637.989 24.4778C637.716 24.4878 636.513 24.6902 635.315 24.9274C634.117 25.1645 632.595 25.2488 631.932 25.1145C631.27 24.9803 630.017 25.0227 629.15 25.2088C628.282 25.3948 626.326 25.7101 624.803 25.9093C620.623 26.4561 618.389 26.9314 618.383 27.2749C618.378 27.6308 643.784 27.7594 650.079 27.4353C653.396 27.2645 654.659 27.3434 656.017 27.806C656.966 28.1292 657.853 28.4194 657.989 28.4508C658.124 28.4821 658.884 28.718 659.676 28.975C660.468 29.2319 661.469 29.3453 661.901 29.2269C662.332 29.1085 668.926 29.0446 676.552 29.0849C684.179 29.1251 691.424 29.0075 692.653 28.8234C693.881 28.6394 697.56 28.3355 700.826 28.1481C704.093 27.9608 707.195 27.6436 707.719 27.4434C708.243 27.2432 709.759 27.1735 711.088 27.2885C712.417 27.4036 713.626 27.3546 713.776 27.1796C713.925 27.0046 714.254 26.96 714.505 27.0807C714.757 27.2013 714.966 27.124 714.969 26.9089C714.972 26.6938 715.141 26.5533 715.345 26.5966C716.166 26.7714 720.428 26.1627 720.433 25.87C720.438 25.5096 724.187 24.966 725.6 25.1208C726.119 25.1778 726.968 24.8956 727.486 24.4936C728.003 24.0916 728.808 23.7488 729.275 23.7317C729.741 23.7147 731.46 23.6847 733.095 23.6651C734.73 23.6456 736.961 23.4509 738.054 23.2326C739.147 23.0143 740.884 22.7548 741.915 22.6559C742.946 22.557 743.67 22.3284 743.525 22.148C743.072 21.585 744.175 21.4557 752.786 21.0616C753.243 21.0407 753.58 20.8656 753.534 20.6725C753.489 20.4794 753.898 20.2302 754.445 20.1188C754.991 20.0074 756.005 19.6392 756.698 19.3006C757.604 18.8576 759.483 18.6409 763.396 18.528C766.387 18.4418 769.349 18.3962 769.978 18.4268C770.607 18.4573 771.81 18.2286 772.651 17.9185C773.52 17.5982 774.311 17.5029 774.482 17.6978C774.901 18.1765 776.637 18.656 776.262 18.1896C775.867 17.698 776.349 17.73 777.659 18.2825C780.304 19.3976 792.914 18.767 794.248 17.4529C794.661 17.046 794.71 16.7682 794.383 16.6819C794.102 16.6077 793.875 16.3998 793.878 16.22C793.88 16.0402 794.193 15.9869 794.572 16.1016C794.952 16.2163 795.412 16.1348 795.595 15.9205C796.083 15.3483 793.115 15.3883 791.504 15.9756C790.764 16.2454 789.155 16.5735 787.927 16.7048C786.699 16.8361 785.304 16.9917 784.826 17.0506C784.349 17.1094 783.961 16.9399 783.965 16.6739C783.97 16.3318 783.356 16.2171 781.866 16.2819C780.238 16.3528 779.96 16.2905 780.642 16.0074C781.128 15.806 781.415 15.505 781.282 15.3385C780.993 14.9795 783.767 14.6639 789.131 14.4455C792.143 14.3229 793.124 14.4037 793.452 14.8013C793.759 15.1745 793.88 15.1891 793.89 14.8543C793.912 14.1747 796.886 14.3286 797.942 15.064C798.435 15.4075 798.841 15.5314 798.844 15.3393C798.847 15.1274 800.455 15.1137 802.93 15.3044C805.175 15.4774 808.681 15.7352 810.722 15.8774C812.763 16.0196 815.162 16.34 816.053 16.5894C816.944 16.8388 818.229 16.972 818.909 16.8854C819.588 16.7988 820.282 16.8998 820.45 17.1094C820.639 17.3439 820.509 17.3721 820.113 17.1825C819.713 16.9907 819.588 17.0209 819.782 17.2626C820.148 17.718 822.504 18.1606 825.297 18.2989C826.945 18.3804 827.284 18.5299 827.319 19.191C827.356 19.9009 827.013 20.0101 824.084 20.2195C822.282 20.3484 820.251 20.4096 819.571 20.3555L818.334 20.2573L819.64 20.8093C821.905 21.7667 824.121 22.1893 828.454 22.4906C830.767 22.6514 834.104 23.0758 835.87 23.4338C839.93 24.2571 854.057 24.5252 854.684 23.7909C854.9 23.5382 855.337 23.4561 855.655 23.6085C856.477 24.0021 865.587 24.2657 865.283 23.8871C864.998 23.533 865.072 23.5281 871.552 23.4776C876.125 23.442 878.057 23.3445 884.912 22.8031C888.038 22.5563 889.86 22.7513 891.633 23.5223C892.376 23.8452 892.212 24.0201 890.4 24.8404C888.939 25.5021 887.16 25.8776 884.48 26.0902C879.906 26.453 875.541 26.9306 872.393 27.4127C870.511 27.7011 870.133 27.891 870.322 28.455C870.457 28.8599 870.84 29.0669 871.249 28.9564C871.633 28.8528 871.943 28.952 871.94 29.1769C871.937 29.4017 871.544 29.5824 871.067 29.5784C870.327 29.5721 870.308 29.6248 870.938 29.9402C871.405 30.1736 871.454 30.308 871.072 30.3059C870.739 30.3043 870.593 30.5538 870.746 30.8627C870.94 31.2525 870.44 31.6068 869.104 32.0278L867.184 32.6327L872.018 32.9271C874.678 33.0891 878.186 33.2245 879.815 33.2281C881.443 33.2316 882.776 33.2554 882.775 33.2808C882.775 33.3061 882.323 33.7035 881.772 34.1637C881.22 34.624 880.77 34.8882 880.772 34.7509C880.774 34.6136 880.271 34.7388 879.653 35.0296C879.035 35.3201 876.875 35.7245 874.853 35.9281C872.83 36.1317 870.289 36.5174 869.207 36.7852C868.124 37.053 866.43 37.2661 865.443 37.2586C862.685 37.2379 855.719 38.4818 857.725 38.6366C857.975 38.6558 858.623 38.7546 859.167 38.8562C859.71 38.9577 860.426 39.0893 860.758 39.1486C861.888 39.3507 861.955 39.7111 860.905 39.9431C860.329 40.0705 859.27 40.5685 858.551 41.0499C857.831 41.5313 856.746 41.9178 856.138 41.9088C855.53 41.8998 854.775 42.117 854.461 42.3916C853.99 42.8019 854.396 42.9416 856.741 43.1758C858.31 43.3326 860.261 43.5512 861.077 43.6617C863.017 43.9246 870.752 44.0055 871.287 43.7686C872.009 43.4489 877.673 43.3771 877.668 43.6877C877.666 43.8509 877.326 44.1864 876.914 44.4331C876.502 44.6799 876.162 45.0553 876.159 45.2674C876.156 45.4794 876.301 45.5458 876.483 45.4148C876.664 45.2839 877.108 45.3663 877.47 45.5978C877.835 45.831 878.131 45.8614 878.134 45.666C878.137 45.4719 878.474 45.3181 878.882 45.3241C880.071 45.3418 879.739 45.7324 878.097 46.2475C876.25 46.8269 876.51 47.0853 879.465 47.6104C882.161 48.0894 882.666 48.7849 880.72 49.3386C878.706 49.9116 869.272 50.5541 863.886 50.4852C861.361 50.4531 858.703 50.5283 857.978 50.6528L856.661 50.8792L858.059 51.7607C858.828 52.2456 859.834 52.6539 860.295 52.668C861.468 52.704 861.816 53.2967 861.173 54.1646C860.495 55.081 856.163 56.6827 854.432 56.657C853.703 56.6462 853.278 56.7993 853.449 57.0118C853.614 57.2174 854.158 57.3916 854.658 57.3991C855.497 57.4115 856.416 58.3472 856.222 58.992C856.026 59.6474 863.893 59.0279 864.561 58.3354C865.071 57.8065 877.737 56.5924 878.975 56.9538L880.154 57.2979L878.995 57.7403C878.358 57.9837 874.234 58.5764 869.831 59.0576C861.774 59.938 859.806 60.6148 865.076 60.693C866.696 60.7171 868.182 60.9501 868.662 61.2551C869.343 61.6884 870.296 61.7142 874.313 61.4084C881.7 60.846 885.994 60.4482 887.002 60.2328C887.671 60.09 887.869 60.2024 887.739 60.6496C887.549 61.3013 886.006 62.0464 883.595 62.6504C881.519 63.1702 882.797 63.6747 885.445 63.381C886.593 63.2536 888.537 63.0472 889.765 62.9223L891.997 62.6953L890.12 63.9947C889.088 64.7094 888.243 65.3535 888.242 65.4261C888.241 65.4987 889.62 65.6952 891.307 65.8627C895.295 66.2588 897.419 67.1253 897.373 68.3372C897.349 68.9764 894.133 69.7866 891.15 69.905C889.922 69.9538 887.13 70.2312 884.947 70.5215C882.763 70.8119 879.416 71.1011 877.507 71.1641C875.599 71.2272 872.699 71.434 871.062 71.6237C860.896 72.8018 858.607 73.0949 858.167 73.2754C857.897 73.3863 858.673 73.6735 859.891 73.9135C861.118 74.155 862.104 74.5663 862.1 74.8347C862.091 75.4561 857.08 76.7318 852.541 77.2682C850.333 77.5292 848.697 77.9419 848.156 78.3738C847.673 78.7603 846.008 79.2322 844.364 79.4485C840.635 79.9392 840.728 80.4584 844.755 81.6325C845.618 81.8842 846.221 82.2808 846.095 82.5139C845.807 83.0443 843.5 83.8259 842.275 83.8077C841.769 83.8002 841.489 83.9622 841.655 84.1678C841.82 84.3734 843.613 84.5662 845.64 84.5963C848.979 84.6458 850.314 85.0433 848.693 85.505C847.244 85.9176 854.474 85.7899 858.051 85.3397C862.505 84.7791 864.919 85.0772 864.903 86.1858C864.895 86.6968 863.592 87.3487 860.005 88.6351C856.626 89.8471 855.317 90.488 855.764 90.7115C856.614 91.1362 855.763 91.5448 852.43 92.3135C847.725 93.3986 843.978 95.2788 844.451 96.317C844.774 97.0261 842.941 97.383 835.38 98.0835C831.622 98.4317 827.856 98.9622 827.011 99.2624C826.166 99.5626 824.381 99.8896 823.045 99.9891C819.36 100.263 812.3 101.487 811.191 102.044C810.649 102.315 809.532 102.539 808.707 102.541C807.882 102.543 806.76 102.681 806.212 102.847C805.42 103.088 805.621 103.167 807.197 103.234C811.416 103.412 813.651 103.756 814.203 104.311C814.579 104.689 815.174 104.813 815.931 104.67C816.924 104.481 816.962 104.506 816.203 104.847C815.718 105.065 814.936 105.19 814.466 105.125C813.995 105.06 813.308 105.143 812.939 105.308C812.542 105.487 811.772 105.403 811.054 105.104C810.108 104.71 809.632 104.692 808.897 105.021C808.3 105.288 807.845 105.309 807.659 105.077C807.497 104.876 806.096 104.687 804.547 104.656C802.997 104.626 801.175 104.356 800.499 104.055C799.025 103.401 798.528 103.347 798.521 103.841C798.518 104.044 798.863 104.216 799.287 104.222C799.712 104.228 799.935 104.379 799.783 104.557C799.631 104.735 799.972 104.978 800.541 105.098C801.11 105.217 801.475 105.532 801.353 105.798C801.127 106.288 798.905 106.544 792.037 106.871C785.833 107.167 784.106 107.35 784.1 107.713C784.097 107.903 784.429 108.064 784.838 108.07C785.25 108.076 785.576 108.41 785.57 108.82C785.562 109.361 785.228 109.553 784.321 109.54C782.896 109.519 782.645 110.084 783.956 110.36C784.442 110.462 786.949 110.488 789.527 110.418C797.037 110.214 800.037 110.363 801.598 111.02C802.391 111.354 803.183 111.563 803.359 111.485C803.535 111.407 803.579 111.81 803.458 112.38C803.194 113.624 803.888 113.829 808.971 114.009C812.013 114.116 812.248 114.176 811.184 114.569C809.435 115.215 803.039 116.086 799.231 116.195C797.284 116.251 795.443 116.527 794.777 116.863C793.359 117.576 792.511 117.573 791.571 116.85C791.148 116.524 789.959 116.275 788.767 116.262C785.097 116.222 771.388 117.057 769.523 117.435C767.781 117.787 767.728 117.848 768.076 119.064C768.295 119.831 768.234 120.475 767.919 120.702C767.562 120.96 767.574 121.236 767.955 121.589C769.122 122.67 767.614 122.868 760.391 122.581C754.778 122.359 753.025 122.409 751.879 122.825C750.667 123.266 745.223 123.817 741.514 123.876C740.969 123.884 739.406 124.023 738.042 124.185L735.561 124.478L737.786 124.78C739.009 124.945 742.685 125.036 745.955 124.981C749.224 124.926 753.905 124.933 756.355 124.996C758.806 125.06 763.601 124.882 767.01 124.602C773.756 124.047 780.709 123.692 783.699 123.75C784.742 123.77 785.737 123.644 785.911 123.469C786.085 123.294 786.923 123.14 787.773 123.127C788.624 123.114 789.322 122.965 789.324 122.797C789.327 122.629 789.829 122.604 790.44 122.742C791.309 122.938 791.39 122.905 790.813 122.593C790.178 122.249 790.196 122.195 790.943 122.202C791.42 122.205 791.812 122.023 791.816 121.797C791.819 121.544 792.289 121.622 793.033 122C794.379 122.682 794.972 122.795 794.567 122.292C794.421 122.109 794.745 121.88 795.288 121.783C795.854 121.681 796.273 121.788 796.27 122.032C796.266 122.28 797.045 122.471 798.12 122.487C799.301 122.505 799.937 122.352 799.868 122.069C799.793 121.762 800.327 121.686 801.583 121.825C803.642 122.052 805.663 122.943 805.664 123.623C805.665 123.914 805.84 123.88 806.153 123.53C806.532 123.105 806.64 123.216 806.634 124.023C806.623 125.355 805.791 126.479 804.825 126.465C804.41 126.458 804.205 126.622 804.371 126.827C804.536 127.033 804.268 127.208 803.775 127.216C802.143 127.243 801.103 127.452 799.992 127.974C798.995 128.443 796.673 128.222 796.681 127.66C796.683 127.558 796.982 127.565 797.345 127.675C797.708 127.785 798.324 127.591 798.713 127.244C799.323 126.7 799.323 126.655 798.713 126.918C798.168 127.153 798.088 127.068 798.363 126.552C798.578 126.15 798.468 125.755 798.091 125.569C797.15 125.107 796.351 125.179 797.206 125.649C797.761 125.954 797.473 125.999 796.044 125.829C794.994 125.704 793.738 125.786 793.234 126.012C792.544 126.321 792.148 126.308 791.604 125.96C791.024 125.59 790.809 125.626 790.491 126.151C790.275 126.508 790.131 126.926 790.172 127.079C790.213 127.232 789.931 127.352 789.545 127.346C789.159 127.341 788.756 127.525 788.649 127.755C788.541 127.986 787.799 128.217 786.999 128.269C786.199 128.32 785.292 128.613 784.983 128.919C784.674 129.225 784.243 129.35 784.024 129.198C783.806 129.045 783.763 129.213 783.928 129.571C784.299 130.372 783.351 130.433 782.955 129.633C782.703 129.125 782.562 129.13 781.731 129.672C780.845 130.252 780.793 130.247 780.796 129.582C780.798 128.993 780.719 128.967 780.31 129.425C779.583 130.24 779.682 130.422 781.004 130.689C781.842 130.859 782.18 131.169 782.117 131.71C782.017 132.571 780.283 133.19 778.297 133.073C776.445 132.965 774.803 133.416 774.794 134.035C774.788 134.434 774.294 134.543 772.93 134.449C770.936 134.311 767.573 134.676 766.357 135.164C765.754 135.406 765.8 135.472 766.6 135.507C767.144 135.531 768.703 135.645 770.063 135.76C774.269 136.117 779.87 136.191 781.895 135.916C783.286 135.727 783.73 135.769 783.477 136.065C783.26 136.319 783.393 136.404 783.824 136.287C784.233 136.177 784.886 136.525 785.399 137.127C786.026 137.863 786.105 138.195 785.677 138.295C785.274 138.389 785.368 138.61 785.962 138.97C786.769 139.458 786.716 139.487 785.364 139.291C784.549 139.173 784.159 139.179 784.498 139.303C785.745 139.763 785.048 140.206 783.123 140.178C781.872 140.159 781.142 139.978 781.141 139.687C781.141 139.347 781.026 139.356 780.707 139.72C780.435 140.03 780.161 140.073 779.968 139.834C779.642 139.428 779.011 139.45 777.456 139.921C776.923 140.082 775.754 140.215 774.859 140.215C772.806 140.216 772.126 141.123 774.156 141.153C774.958 141.165 775.693 141.416 775.849 141.732C776.036 142.108 775.817 142.285 775.176 142.276C774.653 142.268 774.045 142.467 773.823 142.717C773.245 143.371 771.216 144.125 770.7 143.878C770.459 143.763 770.119 143.835 769.945 144.039C769.771 144.243 769.014 144.4 768.262 144.389C767.511 144.378 765.682 144.621 764.197 144.929C761.855 145.415 761.643 145.531 762.593 145.812C763.195 145.99 767.328 146.167 771.777 146.206C776.227 146.244 780.157 146.414 780.51 146.583C780.876 146.759 781.301 146.717 781.498 146.487C781.903 146.013 797.301 145.878 797.677 146.345C797.809 146.509 798.264 146.55 798.689 146.435C799.211 146.294 799.282 146.141 798.908 145.962C798.604 145.817 799.033 145.708 799.861 145.72C800.688 145.732 801.363 145.901 801.36 146.095C801.357 146.289 801.698 146.243 802.117 145.992C802.536 145.742 803.035 145.657 803.227 145.804C803.418 145.951 803.016 146.378 802.334 146.752L801.093 147.432L802.333 147.273C803.42 147.134 803.451 147.156 802.578 147.45C801.143 147.935 798.797 147.848 797.429 147.259C796.097 146.685 794.415 146.843 794.405 147.543C794.4 147.865 793.42 147.995 791.179 147.972C789.16 147.95 787.963 147.786 787.966 147.532C787.97 147.309 787.69 147.394 787.344 147.722C786.891 148.152 785.547 148.366 782.504 148.492C780.187 148.588 776.882 148.88 775.158 149.141C773.435 149.402 771.314 149.621 770.446 149.628C769.577 149.635 767.749 149.85 766.383 150.107C764.055 150.546 764.317 150.568 770.588 150.473C774.266 150.416 777.61 150.373 778.018 150.375C778.427 150.378 783.558 150.062 789.42 149.673C795.283 149.284 801.673 148.938 803.621 148.905C805.569 148.872 807.062 148.719 806.94 148.564C806.818 148.41 807.678 148.298 808.851 148.314C810.025 148.332 812.994 148.133 815.449 147.876C819.66 147.433 829.555 147.06 828.207 147.394C827.864 147.479 827.706 147.703 827.857 147.891C828.009 148.079 827.506 148.231 826.741 148.23C825.976 148.228 824.565 148.53 823.606 148.902C822.647 149.273 821.415 149.725 820.867 149.906C819.068 150.502 789.81 153.672 782.917 154.017C780.873 154.12 774.961 154.47 769.781 154.796C764.6 155.121 757.763 155.51 754.587 155.66C751.411 155.81 747.737 156.157 746.422 156.432C744.695 156.793 743.939 156.816 743.697 156.514C743.389 156.132 738.178 156.158 731.865 156.573C730.911 156.636 727.9 156.758 725.175 156.845C720.285 157 712.828 157.655 708.65 158.297C707.47 158.479 706.298 158.528 706.045 158.406C705.791 158.285 702.338 158.504 698.369 158.893C692.498 159.468 690.944 159.512 690.028 159.131C689.106 158.747 687.917 158.791 683.488 159.375C676.115 160.347 666.493 161.61 661.699 162.236C659.515 162.521 656.342 162.969 654.648 163.232C652.954 163.495 650.833 163.698 649.936 163.684C649.039 163.671 647.299 163.882 646.069 164.157C643.996 164.619 639.759 165.103 628.456 166.17C622.65 166.719 621.48 166.848 615.558 167.593C612.829 167.936 608.363 168.459 605.635 168.753C602.907 169.048 600.004 169.362 599.186 169.45C593.394 170.077 592.293 170.048 591.155 169.235C590.541 168.796 590.041 168.248 590.044 168.018C590.048 167.787 589.883 167.616 589.679 167.637C589.474 167.657 588.798 167.647 588.176 167.614C587.23 167.564 587.128 167.442 587.55 166.871C588.169 166.036 587.691 165.573 586.775 166.121C585.745 166.738 585.986 166.173 587.175 165.183C587.799 164.663 589.044 164.208 590.185 164.081C591.851 163.897 592.042 163.784 591.517 163.298C590.728 162.568 591.404 162.533 559.63 164.926C557.449 165.09 553.546 165.272 550.957 165.331C548.368 165.39 543.685 165.576 540.55 165.743C537.415 165.91 533.289 166.09 531.381 166.142C529.474 166.194 527.029 166.396 525.949 166.59C524.869 166.785 520.594 166.904 516.448 166.855C512.303 166.806 508.615 166.835 508.253 166.92C507.358 167.13 495.748 167.412 492.988 167.29C491.768 167.236 490.432 166.957 490.02 166.67C489.096 166.026 486.72 165.928 475.663 166.075C470.58 166.143 465.909 166.399 464.373 166.695C462.367 167.08 459.05 167.145 450.253 166.969C443.929 166.842 433.405 166.785 426.866 166.841C413.616 166.955 414.324 166.969 400.624 166.322C391.754 165.903 386.635 165.816 378.837 165.948C377.475 165.972 376.749 166.072 377.224 166.172C377.699 166.272 378.085 166.528 378.082 166.74C378.079 166.995 376.688 167.032 373.995 166.85C371.749 166.699 365.013 166.333 359.024 166.039C353.036 165.744 345.353 165.291 341.952 165.032C328.287 163.992 323.076 163.62 315.977 163.176C298.225 162.067 288.865 161.591 279.106 161.301C274.614 161.168 269.046 160.917 266.733 160.745C264.42 160.572 260.967 160.422 259.061 160.412C257.154 160.402 253.368 160.197 250.648 159.957C247.927 159.717 239.11 159.35 231.055 159.141C222.999 158.932 215.427 158.584 214.227 158.368C213.027 158.152 210.296 157.86 208.158 157.718C206.019 157.576 203.571 157.365 202.716 157.247C199.794 156.847 195.226 156.536 188.544 156.283C182.66 156.061 176.945 155.651 168.506 154.848C167.146 154.718 165.254 154.555 164.302 154.484C163.35 154.413 160.901 154.224 158.86 154.063C156.819 153.902 153.369 153.643 151.192 153.486C149.016 153.33 147.124 153.149 146.988 153.084C146.853 153.019 145.476 152.847 143.929 152.702C142.382 152.556 140.791 152.338 140.394 152.218C139.997 152.098 137.701 151.921 135.292 151.825C128.676 151.561 128.685 151.562 128.694 150.965C128.698 150.66 128.466 150.407 128.178 150.403C127.889 150.399 127.811 150.592 128.005 150.833C128.245 151.131 128.083 151.187 127.496 151.01C127.022 150.867 126.143 150.742 125.543 150.733C124.806 150.722 124.43 150.477 124.387 149.978C124.311 149.093 124.58 149.055 125.562 149.81C126.587 150.599 127.748 150.558 127.411 149.745C127.246 149.345 127.301 149.256 127.554 149.514C127.835 149.799 129.229 149.873 131.931 149.745C136.583 149.524 140.089 149.656 146.534 150.293C149.118 150.549 152.456 150.866 153.953 150.997C155.449 151.129 156.932 151.303 157.249 151.386C157.566 151.468 157.958 151.285 158.121 150.979C158.341 150.568 158.812 150.494 159.939 150.696C161.708 151.013 162.847 151.14 167.565 151.549C169.469 151.715 171.16 151.913 171.321 151.99C171.666 152.154 178.289 152.279 187.365 152.291C193.124 152.299 197.18 152.571 200.201 153.151C201.903 153.477 213.841 153.785 213.845 153.502C213.847 153.357 212.346 153.095 210.51 152.921C208.674 152.747 206.727 152.533 206.184 152.445C202.371 151.826 192.148 151.044 183.921 150.742C182.015 150.673 180.222 150.499 179.936 150.358C179.461 150.122 164.311 149.015 163.495 149.156C163.301 149.19 161.472 149.077 159.432 148.904C156.277 148.638 148.22 148.076 146.197 147.982C145.466 147.948 145.386 147.47 146.062 147.17C146.547 146.955 150.281 146.959 153.656 147.179C154.687 147.246 155.708 147.522 155.925 147.792C156.22 148.158 157.07 148.231 159.246 148.077C160.855 147.964 162.321 147.807 162.505 147.729C162.688 147.651 163.173 147.844 163.581 148.158C163.99 148.472 164.444 148.589 164.591 148.417C164.876 148.084 174.868 148.376 177.759 148.802C178.71 148.942 180.388 149.104 181.488 149.162C182.588 149.221 183.977 149.472 184.575 149.721C185.445 150.083 185.665 150.075 185.67 149.681C185.675 149.391 186.34 149.158 187.288 149.115C191.207 148.938 196.687 149.041 201.029 149.375C204.151 149.615 205.486 149.611 205.005 149.362C203.068 148.358 206.737 147.932 212.433 148.499C217.483 149.001 218.386 149.037 220.575 148.822C221.704 148.711 223.285 148.762 224.088 148.935C226.202 149.39 237.214 150.304 242.121 150.432C244.436 150.492 247.776 150.676 249.545 150.841C251.313 151.006 254.875 151.258 257.461 151.401C260.047 151.544 266.17 151.964 271.067 152.335C275.965 152.707 283.251 153.171 287.259 153.367C293.79 153.686 294.58 153.66 294.871 153.113C295.149 152.593 296.011 152.517 300.712 152.6C303.745 152.654 307.232 152.578 308.46 152.431L310.692 152.165L306.985 151.698C304.945 151.441 302.497 151.224 301.544 151.216C300.591 151.207 296.695 150.896 292.887 150.525C289.078 150.154 281.843 149.604 276.808 149.302C271.773 149.001 267.159 148.667 266.555 148.561C265.95 148.455 260.94 148.139 255.421 147.86C245.502 147.357 238.552 146.964 233.263 146.606C231.766 146.505 226.631 146.196 221.852 145.919C217.072 145.642 212.842 145.337 212.452 145.241C212.061 145.145 211.297 144.934 210.755 144.772C210.213 144.61 208.913 144.419 207.867 144.347C206.821 144.275 205.71 143.949 205.399 143.622C204.95 143.151 203.662 142.991 199.143 142.848C196.012 142.75 193.23 142.563 192.96 142.434C192.689 142.305 190.798 142.077 188.757 141.928C179.001 141.213 169.247 140.606 164.758 140.433C162.036 140.328 156.247 139.9 151.895 139.48C147.543 139.061 141.977 138.633 139.527 138.529C122.569 137.811 109.029 137.022 101.918 136.339C99.4698 136.103 95.1775 135.77 92.3795 135.598C89.5815 135.426 87.1767 135.141 87.0354 134.965C86.8941 134.79 87.5159 134.643 88.4174 134.64C89.3188 134.637 90.686 134.61 91.4554 134.579C92.2249 134.549 92.9495 134.643 93.0659 134.788C93.1821 134.932 94.1031 134.893 95.1125 134.701C96.137 134.506 98.3784 134.48 100.186 134.643C101.967 134.804 111.445 135.119 121.249 135.344C131.052 135.569 142.748 135.915 147.24 136.113C155.246 136.465 157.518 136.356 152.269 135.871C150.813 135.736 149.516 135.544 149.385 135.444C149.036 135.175 150.857 134.551 152.361 134.423C154.114 134.274 154.673 133.815 153.177 133.752C152.519 133.725 149.086 133.505 145.549 133.263C142.011 133.021 135.051 132.665 130.083 132.471C121.915 132.152 121.05 132.057 121.058 131.472C121.071 130.659 119.08 130.438 107.071 129.914C102.229 129.703 98.153 129.388 98.0135 129.215C97.874 129.041 96.7835 128.885 95.5901 128.867C91.522 128.807 92.6775 127.804 97.6869 127.048C99.1009 126.834 100.997 126.701 101.901 126.752C107.928 127.09 106.357 126.34 99.6 125.652C96.88 125.376 93.0961 125.046 91.1912 124.919C89.2862 124.792 85.836 124.495 83.524 124.258C81.2121 124.021 76.5368 123.677 73.1345 123.492C68.9447 123.265 66.791 122.998 66.4604 122.666C66.1901 122.394 64.4281 122.044 62.5097 121.883C60.6052 121.722 58.8274 121.385 58.5587 121.133C58.29 120.881 56.4445 120.538 54.4575 120.372C52.4705 120.205 50.3488 119.817 49.7427 119.51C49.0482 119.158 46.9106 118.866 43.9614 118.719C37.6025 118.404 32.624 117.914 32.3526 117.577C32.0674 117.222 36.4106 116.786 37.0722 117.103C37.3435 117.233 37.5677 117.181 37.5706 116.989C37.5734 116.796 36.7974 116.518 35.8462 116.371C33.9682 116.08 33.6194 115.615 34.9964 115.239C36.6213 114.795 34.3679 114.021 29.2872 113.277C25.0198 112.652 22.328 111.918 24.298 111.916C26.1496 111.915 23.3014 111.222 20.3299 110.951C18.5657 110.79 16.8657 110.494 16.5521 110.293C16.2385 110.093 14.5751 109.738 12.8557 109.506C8.0783 108.86 8.13689 108.399 13.0234 108.185C14.8492 108.105 16.5217 107.813 17.0282 107.486C17.7388 107.027 18.6001 106.983 21.7369 107.249C28.1153 107.788 29.3807 107.72 30.353 106.787C30.8289 106.331 31.1234 105.839 31.0079 105.695C30.8922 105.552 29.2977 105.295 27.4643 105.126C25.631 104.957 23.91 104.684 23.6399 104.521C23.37 104.357 22.0926 104.09 20.8011 103.928C17.2566 103.481 17.9929 102.97 22.0938 103.031C24.091 103.06 25.8956 102.963 26.1041 102.813C26.3125 102.664 28.3913 102.57 30.7237 102.605C33.6727 102.649 35.0311 102.528 35.1835 102.209C35.3338 101.895 34.8055 101.741 33.5048 101.721C32.4607 101.705 30.8288 101.527 29.8785 101.326C28.928 101.126 26.2658 100.829 23.9625 100.666C21.6591 100.503 19.5256 100.211 19.2213 100.016C18.9171 99.8216 18.5368 99.7572 18.3764 99.8732C18.216 99.9892 17.5686 99.9384 16.9378 99.7602C16.0523 99.5102 16.5816 99.3945 19.2606 99.2526C22.4219 99.0852 26.032 98.5997 27.9455 98.0848C29.1597 97.758 27.2849 97.3511 21.6509 96.7189C18.8634 96.4061 16.5842 96.0515 16.586 95.9311C16.5878 95.8106 15.1397 95.7593 13.3682 95.8171C10.7798 95.9016 10.1489 95.8162 10.1554 95.3825C10.1653 94.7132 11.7489 93.6419 12.6963 93.6636C13.2785 93.6769 13.2706 93.7396 12.6523 94.0266C12.0157 94.3218 12.0357 94.3763 12.7863 94.3923C13.2713 94.4028 13.8049 94.1551 13.9717 93.8424C14.2302 93.3578 15.1263 93.3149 20.0277 93.5522C26.1696 93.8495 27.6836 93.6276 26.5666 92.5936C24.6958 90.8617 16.9907 88.9202 11.6753 88.8414C8.46399 88.7937 6.79355 88.3209 6.80628 87.4634C6.81265 87.0342 7.60653 86.9361 10.6518 86.9883C12.7625 87.0243 15.3779 87.2423 16.4642 87.4723C17.5504 87.7024 22.6796 88.0289 27.8622 88.1978C37.0272 88.4965 37.2877 88.4846 37.3713 87.7637C37.4536 87.0546 36.8568 86.5342 35.7963 86.3903C35.5244 86.3534 33.3926 86.0259 31.0588 85.6626C23.4212 84.4736 16.6354 83.7177 9.68507 83.2816C3.24572 82.8776 1.05433 82.4221 1.73213 81.6285C1.88688 81.4474 2.22494 81.4005 2.48345 81.5243C2.74196 81.6481 2.89543 81.5284 2.82453 81.2584C2.7532 80.9868 3.08038 80.7956 3.55632 80.8307C4.02957 80.8656 4.31166 80.7633 4.18314 80.6035C4.05454 80.4437 4.70724 80.2183 5.63371 80.1027C7.6362 79.8528 8.12001 79.1942 7.1127 78.0894C6.5759 77.5006 6.52285 77.1535 6.91713 76.8097C7.5637 76.2459 7.15276 75.8474 5.90577 75.8289C5.40646 75.8215 4.99914 75.7459 5.0004 75.661C5.00166 75.5761 4.859 75.2169 4.68339 74.8629C4.39011 74.2716 4.72308 74.2445 8.77446 74.5297C11.2001 74.7004 14.0189 74.9512 15.0384 75.087C16.5136 75.2836 16.8937 75.2165 16.9005 74.7581C16.9052 74.4414 17.2705 74.0376 17.7122 73.8609C18.8528 73.4047 18.2038 71.267 16.7885 70.8183C15.7767 70.4975 15.7731 70.4797 16.7168 70.4467C17.7079 70.412 17.7079 70.412 16.7223 70.08C15.7609 69.7561 17.1123 69.6438 22.1771 69.6267C24.2899 69.6196 25.8989 69.1463 25.9081 68.5294C25.913 68.1997 26.429 68.0061 27.2777 68.0155C28.0267 68.0233 29.1477 67.937 29.7687 67.8225C30.8276 67.6272 30.8436 67.5827 30.0269 67.1044C29.548 66.824 28.5467 66.5803 27.8017 66.5627C27.0568 66.545 24.9857 65.9275 23.1995 65.19C21.3979 64.4462 19.2309 63.8384 18.3326 63.8251C15.3317 63.7806 10.6579 63.241 10.8926 62.9662C11.0207 62.8162 10.7462 62.7107 10.2825 62.7317C9.81884 62.7526 9.36432 62.4823 9.27246 62.1309C9.05912 61.315 12.0036 59.9577 13.5088 60.1781C14.1109 60.2662 14.6872 60.1582 14.7895 59.9382C15.0307 59.4193 20.8121 59.3574 23.1167 59.849C24.0955 60.0578 29.1618 60.3369 34.3753 60.4694C43.1893 60.6932 45.7915 60.5433 42.5028 60.001C41.7555 59.8778 40.1439 59.593 38.9214 59.368C37.699 59.1431 35.7518 58.9378 34.5945 58.9118C33.4371 58.8857 32.4926 58.6983 32.4956 58.4952C32.4986 58.2921 32.1522 58.1207 31.7258 58.1144C31.2994 58.1081 30.4957 57.9136 29.94 57.6822C28.9404 57.266 28.9424 57.2568 30.1089 56.8428C32.1515 56.1177 31.5325 55.3959 28.1306 54.5358C26.3852 54.0945 24.8564 53.4901 24.7333 53.1927C24.6101 52.8953 24.3137 52.5526 24.0747 52.4313C23.3228 52.0495 24.2463 50.9237 25.0999 51.1817C25.5312 51.312 25.7489 51.3147 25.5837 51.1875C25.4184 51.0604 25.8512 50.546 26.5454 50.0442C27.4583 49.3842 28.3936 49.1237 29.9273 49.1022C31.0935 49.0859 31.9591 48.9625 31.8509 48.8281C31.7428 48.6936 33.7858 48.6967 36.3908 48.8349C40.1779 49.0358 41.2953 48.9765 41.966 48.5387C42.8974 47.9308 47.7641 47.7468 50.2943 48.2237C51.2604 48.4058 51.9681 48.3645 52.1825 48.1136C52.3711 47.8927 53.0511 47.7199 53.6936 47.7294C55.1834 47.7515 56.4337 47.4158 56.44 46.992C56.4427 46.8106 56.1217 46.6574 55.7267 46.6516C55.3317 46.6457 54.8232 46.3862 54.5967 46.0748C54.3411 45.7235 52.4125 45.2246 49.515 44.7602C43.8062 43.8453 39.6134 42.5138 40.0231 41.7458C40.1805 41.4509 40.625 41.305 41.0109 41.4217C41.3968 41.5383 41.5902 41.4817 41.4408 41.2959C41.2913 41.1101 41.7609 40.449 42.4843 39.8268C43.4524 38.9942 44.0614 38.7617 44.7915 38.946C45.3413 39.0848 45.6614 39.0446 45.5097 38.856C45.3591 38.6687 46.0112 38.5107 46.9587 38.5047C47.9062 38.4987 50.2498 38.2312 52.1666 37.9103L55.6518 37.3267L54.5586 36.4323C53.9574 35.9403 53.2595 35.5348 53.0077 35.5311C52.7559 35.5273 51.7892 35.2423 50.8594 34.8977C49.2384 34.2969 49.2004 34.2364 49.9342 33.4259C50.4164 32.8933 50.5166 32.493 50.2052 32.3438C49.9332 32.2136 49.8561 31.9367 50.0339 31.7286C50.2425 31.4844 50.5084 31.5302 50.7831 31.8576C51.0594 32.1868 51.3412 32.2346 51.5858 31.9937C51.7932 31.7895 52.6349 31.392 53.4563 31.1103L54.9498 30.5981L53.3845 30.4493C51.6896 30.2883 50.7965 29.3272 52.0316 28.9936C52.4491 28.8808 52.9125 28.8822 53.0613 28.9967C53.2101 29.1111 54.0782 28.9051 54.9904 28.5389C55.9026 28.1726 57.4975 27.767 58.5347 27.6376C59.5719 27.5082 60.7238 27.183 61.0945 26.9149C61.9728 26.2801 62.3126 26.2994 66.9006 27.2452C71.0182 28.094 72.1832 28.0379 73.8945 26.9082C74.8599 26.271 75.2461 26.2447 77.828 26.6397C81.2149 27.1579 87.6077 27.3127 87.2499 26.8679C87.1124 26.6968 85.3775 26.3261 83.3945 26.044C78.3424 25.3253 77.7747 25.1786 78.6116 24.8078C80.0623 24.1652 73.6339 22.5019 67.3364 21.8905C65.6358 21.7254 64.1383 21.4584 64.0087 21.2972C63.8791 21.136 64.247 20.568 64.8262 20.035C65.799 19.1398 65.8192 19.0148 65.0913 18.3967C64.658 18.0287 64.3048 17.6367 64.3065 17.5257C64.3132 17.0693 72.6885 17.8504 75.435 18.5635C79.3843 19.589 87.3998 20.4136 88.1496 19.8715C88.5462 19.5849 88.5534 19.3337 88.1751 18.9835C87.6642 18.5105 86.873 18.2997 80.2889 16.8822C78.2356 16.4401 77.2062 16.0318 77.2117 15.6617C77.2186 15.194 77.8036 15.1537 80.8902 15.4083C83.2418 15.6023 84.6764 15.5755 84.8829 15.3338C85.0601 15.1263 84.9323 14.9525 84.5982 14.9476C84.2644 14.9426 84.1077 14.8543 84.2503 14.7512C84.5859 14.5086 91.5827 15.7101 92.274 16.1291C92.8175 16.4585 100.036 17.3964 101.579 17.3381C102.056 17.3201 102.45 17.0974 102.453 16.8432C102.457 16.589 102.579 16.1588 102.724 15.8871C102.974 15.4178 96.9412 14.372 86.5374 13.0812C84.9745 12.8873 82.8919 12.465 81.9094 12.1429C80.927 11.8207 79.4263 11.5458 78.5745 11.5321C76.3319 11.4954 73.1218 10.7167 73.6479 10.3363C73.8916 10.1602 76.91 10.0105 80.3555 10.0038C83.8011 9.99704 86.5836 9.96275 86.5388 9.92762C86.4942 9.89251 85.3612 9.52486 84.0212 9.11068C81.6877 8.38941 81.6324 8.33949 82.7097 7.92796C83.5534 7.60567 84.4498 7.60615 86.2973 7.92985C89.3039 8.45654 89.7005 8.4688 89.7069 8.03535C89.7097 7.8484 89.0475 7.57647 88.2356 7.43109C85.5353 6.94757 86.1288 6.47555 89.3764 6.52374C91.2665 6.55179 93.1812 6.34594 94.1148 6.01434C95.0594 5.67879 96.1148 5.56726 96.7733 5.73346C98.1809 6.08875 121.428 6.56126 121.161 6.22914C120.596 5.52558 127.091 5.62554 132.624 6.40593C143.828 7.98553 153.366 8.93044 159.526 9.071C162.93 9.14867 168.052 9.47527 170.907 9.7968C173.763 10.1183 178.851 10.5936 182.215 10.8529C185.579 11.1123 188.472 11.3905 188.644 11.4712C188.817 11.5519 190.628 11.7487 192.668 11.9087C194.709 12.0687 197.157 12.2814 198.109 12.3815C200.091 12.5898 209.12 13.0995 215.677 13.3732C220.421 13.5713 227.626 14.0179 232.501 14.4161C234.134 14.5494 240.482 14.8038 246.609 14.9813C252.735 15.1589 259.974 15.4734 262.695 15.6803C265.416 15.8871 272.946 16.1186 279.429 16.1946C289.233 16.3096 291.296 16.2423 291.693 15.7955C292.098 15.3396 292.237 15.3373 292.608 15.78C292.899 16.1276 293.535 16.2362 294.512 16.1053C295.32 15.9969 296.219 16.0937 296.514 16.3209C296.809 16.5477 297.786 16.7791 298.684 16.8353C299.583 16.8915 300.762 17.0425 301.305 17.1708C304.262 17.8701 307.351 18.1065 308.603 17.7294C309.608 17.4266 312.098 17.8389 311.747 18.2498C311.617 18.4012 314.001 18.6067 317.044 18.7064C325.238 18.9751 326.087 19.0548 327.006 19.6427C327.753 20.1205 327.828 20.1001 327.689 19.4588C327.582 18.97 327.77 18.7835 328.272 18.8798C328.68 18.9581 329.514 19.0328 330.127 19.0459C330.74 19.059 331.239 19.1973 331.237 19.3533C331.235 19.5093 331.59 19.745 332.027 19.877C332.604 20.0514 332.743 19.9579 332.533 19.5356C332.334 19.1348 332.434 19.0471 332.854 19.2536C333.189 19.4184 335.579 19.6369 338.165 19.7391C343.604 19.9539 342.796 19.9402 368.37 20.2524C379.128 20.3838 389.306 20.6317 390.988 20.8033C392.669 20.975 394.421 21.0138 394.881 20.8896C395.728 20.661 411.911 20.4248 416.88 20.5686C420.766 20.6811 425.199 19.0426 422.756 18.3968C422.392 18.3005 422.649 18.043 423.385 17.766C424.069 17.5086 424.754 17.1595 424.908 16.9904C425.464 16.3789 429.673 16.0956 430.86 16.5898C431.608 16.9012 433.6 17.0387 436.737 16.9952C439.347 16.9591 447.918 16.9373 455.784 16.9468C463.65 16.9564 470.628 16.8709 471.291 16.757C471.954 16.643 474.767 16.558 477.542 16.5681C480.317 16.5782 483.035 16.4063 483.584 16.1861C484.564 15.7921 489.166 15.1898 489.933 15.3551C490.877 15.5589 492.637 15.5373 494.245 15.3022C495.201 15.1626 496.428 15.0828 496.972 15.1249C497.516 15.167 498.407 15.2373 498.951 15.2812C499.495 15.3251 502.06 15.1974 504.651 14.9973C507.242 14.7971 510.325 14.6512 511.502 14.6728C512.679 14.6943 513.907 14.559 514.23 14.3715C514.554 14.1841 515.544 13.9261 516.431 13.7981C517.752 13.6076 518.043 13.6788 518.035 14.1902C518.027 14.7438 518.436 14.7914 521.62 14.6071C523.597 14.4926 528.78 14.4136 533.138 14.4315C537.496 14.4493 542.265 14.2865 543.736 14.0698C545.206 13.853 546.518 13.6772 546.65 13.6792C546.782 13.6811 546.617 13.4294 546.282 13.1197C545.948 12.81 544.922 12.5455 544.002 12.5319C543.082 12.5182 542.33 12.4376 542.331 12.3526C542.333 12.2677 542.202 11.9333 542.042 11.6096C541.642 10.8025 543.035 10.8625 544.123 11.6994C544.74 12.1735 545.035 12.2284 545.189 11.8976C545.306 11.646 545.604 11.537 545.851 11.6555C546.098 11.7739 546.303 11.7364 546.305 11.5721C546.308 11.4078 546.811 11.2605 547.424 11.2447C548.038 11.2289 551.439 11.0708 554.983 10.8935C558.527 10.7162 565.661 10.5674 570.837 10.5628C576.012 10.5583 580.806 10.4717 581.488 10.3705C583.801 10.0274 596.497 9.34068 603.298 9.19086C615.899 8.91325 625.468 7.71169 627.46 6.15668C628.083 5.67026 629.174 5.28625 629.954 5.27893C636.364 5.21874 645.27 4.85313 649.182 4.48963C650.818 4.33752 653.688 4.13389 655.56 4.03709C657.431 3.9403 660.084 3.71946 661.454 3.54633C662.825 3.37321 664.027 3.23275 664.126 3.23422C664.225 3.23569 664.3 3.66148 664.292 4.1812ZM664.242 7.54093C664.236 7.94487 664.455 7.97834 665.212 7.68917C665.796 7.46603 666.078 7.0895 665.911 6.75377C665.696 6.32076 665.474 6.28675 664.941 6.60556C664.561 6.83311 664.247 7.25401 664.242 7.54093ZM580.724 11.7949C578.779 12.2843 578.828 12.2926 582.947 12.1737C592.38 11.9014 595.336 11.7363 595.339 11.4817C595.347 11 582.816 11.2685 580.724 11.7949ZM810.666 19.6672C810.665 19.747 810.998 19.8173 811.407 19.8234C811.815 19.8294 812.152 19.6734 812.155 19.4767C812.158 19.28 811.824 19.2097 811.414 19.3206C811.004 19.4314 810.667 19.5874 810.666 19.6672ZM774.747 20.3874C774.571 20.5934 774.975 20.7601 775.674 20.7705C776.355 20.7806 777.052 20.6247 777.223 20.4241C777.399 20.2181 776.996 20.0514 776.297 20.041C775.616 20.0309 774.919 20.1868 774.747 20.3874ZM798.24 22.6258C798.234 23.0068 798.827 23.0513 799.931 22.753C801.179 22.4158 800.852 21.9673 799.485 22.1414C798.803 22.2284 798.243 22.4463 798.24 22.6258ZM518.052 18.5281C516.357 18.854 516.123 18.9854 516.953 19.1449C518.271 19.398 534.033 19.1383 542.484 18.7242C544.781 18.6116 527.068 17.9908 523.426 18.0562C521.655 18.088 519.237 18.3003 518.052 18.5281ZM500.87 19.4098C500.324 19.4978 501.326 19.5778 503.097 19.5875C507.322 19.6107 509 19.2963 506.325 18.9825C505.237 18.8548 503.788 18.8628 503.105 19.0001C502.422 19.1374 501.417 19.3218 500.87 19.4098ZM816.876 23.9906C815.856 23.9977 815.863 24.017 817.003 24.3751C818.347 24.7974 819.508 24.6142 819.517 23.9785C819.521 23.7469 819.17 23.6535 818.737 23.7706C818.304 23.8875 817.467 23.9865 816.876 23.9906ZM493.427 19.6066C493.293 19.7034 494.173 19.8252 495.382 19.8773C496.591 19.9293 497.737 19.7885 497.929 19.5642C498.174 19.2776 497.593 19.1972 495.974 19.2935C494.707 19.3689 493.561 19.5098 493.427 19.6066ZM106.148 18.2219C105.955 18.4477 106.743 18.5834 108.218 18.5782C110.333 18.5708 110.434 18.5358 109.119 18.266C106.958 17.8227 106.494 17.8158 106.148 18.2219ZM869.285 34.9693C869.641 35.0813 870.068 35.0746 870.234 34.9543C870.401 34.834 870.11 34.7424 869.587 34.7507C869.01 34.7598 868.892 34.8456 869.285 34.9693ZM863.428 35.3688C862.43 35.5917 862.38 35.6511 863.176 35.6716C863.721 35.6857 864.614 35.561 865.161 35.3945C866.429 35.0089 865.127 34.9896 863.428 35.3688ZM856.786 35.1251C856.354 35.242 855.995 35.6364 855.99 36.0015C855.981 36.5671 856.292 36.6409 858.087 36.5004C860.366 36.3221 861.86 35.7149 860.085 35.6885C859.502 35.6799 858.889 35.5046 858.724 35.299C858.378 34.8688 857.895 34.8254 856.786 35.1251ZM52.2404 29.6101C52.2374 29.8132 52.6248 29.9826 53.1015 29.9866C53.842 29.9929 53.8609 29.9402 53.2307 29.6248C52.3028 29.1606 52.2471 29.1598 52.2404 29.6101ZM844.203 56.3881C844.559 56.5001 844.986 56.4933 845.152 56.3731C845.319 56.2528 845.028 56.1612 844.505 56.1695C843.928 56.1787 843.81 56.2644 844.203 56.3881ZM848.241 57.5256C848.232 58.1275 849.608 58.2156 851.425 57.7295C853.403 57.2003 852.941 56.8004 850.479 56.9098C848.983 56.9763 848.246 57.179 848.241 57.5256ZM839.047 57.1228C839.533 57.7267 841.301 57.9051 841.31 57.351C841.314 57.04 840.809 56.8241 840.05 56.8129C839.353 56.8025 838.902 56.942 839.047 57.1228ZM842.792 57.5922C842.236 57.8503 842.52 57.9477 843.901 57.9724C844.922 57.9909 845.76 57.8394 845.763 57.6363C845.77 57.166 843.775 57.1364 842.792 57.5922ZM16.6959 88.5462C16.6929 88.7493 16.9134 88.9187 17.1858 88.9228C17.4581 88.9268 17.6833 88.764 17.6863 88.5609C17.6893 88.3578 17.4691 88.1883 17.1968 88.1843C16.9244 88.1802 16.6989 88.3431 16.6959 88.5462ZM13.0038 95.3841C13.3427 95.4916 13.8996 95.4998 14.2415 95.4025C14.5834 95.3051 14.3061 95.2171 13.6254 95.207C12.9444 95.1969 12.6648 95.2766 13.0038 95.3841ZM20.3653 99.9415C20.9767 100.039 21.9794 100.053 22.5935 99.9745C23.2076 99.8956 22.7073 99.8162 21.4818 99.798C20.2562 99.7798 19.7538 99.8443 20.3653 99.9415ZM43.2229 103.262C43.2205 103.42 45.054 103.774 47.2973 104.048C49.5406 104.322 51.9104 104.67 52.5637 104.82C53.3013 104.99 53.6388 104.954 53.4541 104.724C53.2905 104.521 51.2002 104.114 48.8088 103.82C46.4173 103.526 44.2387 103.23 43.9673 103.161C43.6959 103.093 43.4183 103.023 43.3504 103.006C43.2825 102.989 43.2252 103.104 43.2229 103.262ZM765.383 117.384C764.495 117.655 764.531 117.692 765.721 117.733C766.453 117.758 767.193 117.614 767.364 117.414C767.736 116.978 766.766 116.964 765.383 117.384ZM46.6063 108.882C46.6037 109.057 48.8352 109.422 51.565 109.694C57.7136 110.308 58.8189 110.335 58.1964 109.856C57.9352 109.655 55.277 109.307 52.2893 109.081C49.3016 108.856 46.8017 108.648 46.734 108.618C46.6664 108.589 46.6089 108.708 46.6063 108.882ZM793.066 124.382C792.924 124.549 793.131 124.691 793.528 124.696C793.924 124.702 794.251 124.569 794.253 124.399C794.256 124.23 794.048 124.089 793.792 124.085C793.536 124.081 793.209 124.215 793.066 124.382ZM726.807 124.082C727.163 124.194 727.59 124.187 727.756 124.067C727.923 123.946 727.632 123.855 727.109 123.863C726.532 123.872 726.414 123.958 726.807 124.082ZM803.644 125.708C803.641 125.911 804.029 126.081 804.506 126.085C805.246 126.091 805.265 126.038 804.635 125.723C803.707 125.259 803.651 125.258 803.644 125.708ZM801.655 126.255C801.654 126.344 801.876 126.421 802.148 126.425C802.42 126.429 802.646 126.256 802.649 126.041C802.652 125.826 802.43 125.749 802.156 125.871C801.882 125.992 801.656 126.165 801.655 126.255ZM773.392 128.407C772.709 128.539 770.588 128.762 768.68 128.903C766.771 129.044 764.426 129.324 763.47 129.525C762.513 129.725 761.731 129.875 761.731 129.858C761.733 129.717 758.33 130.457 756.638 130.965C754.072 131.737 753.901 132.357 756.246 132.392C757.456 132.41 757.976 132.584 757.971 132.971C757.962 133.539 755.743 133.731 752.067 133.481C750.465 133.372 745.883 133.941 744.83 134.379C744.043 134.706 746.536 135.126 749.795 135.214C751.915 135.272 753.726 135.038 755.968 134.419C757.713 133.937 759.6 133.547 760.161 133.552C760.974 133.56 761.036 133.49 760.467 133.212C760.074 133.019 759.574 132.941 759.355 133.038C759.137 133.135 758.96 133.057 758.963 132.865C758.968 132.534 760.055 132.317 763.844 131.889C764.752 131.787 765.619 131.471 765.77 131.187C765.995 130.766 766.185 130.76 766.816 131.154C767.461 131.558 767.54 131.541 767.303 131.051C767.096 130.622 767.306 130.485 768.085 130.542C768.67 130.584 769.891 130.48 770.797 130.309C771.94 130.093 772.661 130.136 773.148 130.447C773.543 130.7 773.853 130.737 773.856 130.532C773.862 130.125 777.652 129.016 778.971 129.036C779.439 129.042 779.825 128.821 779.829 128.543C779.834 128.167 779.172 128.055 777.235 128.103C775.804 128.138 774.075 128.275 773.392 128.407ZM752.824 141.496C753.179 141.59 753.709 141.495 754 141.285C754.371 141.016 754.179 140.965 753.352 141.114C752.681 141.234 752.454 141.398 752.824 141.496ZM154.7 134.084C154.698 134.236 155.373 134.406 156.198 134.461C157.058 134.519 157.576 134.408 157.41 134.202C157.071 133.781 154.705 133.677 154.7 134.084ZM751.349 145.264L750.111 145.274L751.261 145.637C752.56 146.046 754.809 145.779 754.817 145.214C754.82 145.008 754.323 144.934 753.705 145.048C753.091 145.161 752.031 145.259 751.349 145.264ZM158.627 136.389C158.625 136.558 158.957 136.701 159.366 136.708C159.774 136.714 160.11 136.58 160.113 136.411C160.115 136.242 159.783 136.098 159.375 136.092C158.966 136.086 158.63 136.22 158.627 136.389ZM156.555 136.303C156.911 136.415 157.338 136.408 157.504 136.288C157.671 136.167 157.379 136.076 156.857 136.084C156.28 136.093 156.161 136.179 156.555 136.303ZM742.83 145.741C743.186 145.853 743.613 145.846 743.779 145.726C743.946 145.606 743.654 145.514 743.132 145.523C742.555 145.532 742.436 145.617 742.83 145.741ZM798.375 147.052C798.372 147.255 798.592 147.424 798.865 147.428C799.137 147.432 799.362 147.27 799.365 147.066C799.368 146.863 799.148 146.694 798.875 146.69C798.603 146.686 798.378 146.849 798.375 147.052ZM785.486 147.829C785.48 148.243 786.415 147.894 786.689 147.38C786.957 146.877 786.885 146.853 786.249 147.234C785.83 147.485 785.487 147.752 785.486 147.829ZM780.535 147.71C780.53 148.015 780.614 148.266 780.721 148.267C780.828 148.269 781.048 148.023 781.209 147.72C781.37 147.418 781.287 147.168 781.023 147.164C780.759 147.16 780.539 147.406 780.535 147.71ZM132.072 150.713C132.428 150.825 132.855 150.818 133.022 150.698C133.188 150.578 132.897 150.486 132.375 150.494C131.797 150.503 131.679 150.589 132.072 150.713ZM587.883 164.955C587.723 165.142 587.794 165.391 588.041 165.509C588.288 165.627 588.621 165.478 588.781 165.176C589.098 164.583 588.357 164.4 587.883 164.955ZM825.272 9.96463C825.553 10.2227 825.588 10.4361 825.351 10.4387C825.113 10.4412 825.332 10.6302 825.838 10.8584C827.137 11.4438 825.972 11.9119 823.412 11.8336C822.075 11.7927 821.755 11.6998 822.426 11.5476C823.373 11.3328 824.09 10.4032 823.309 10.4022C821.855 10.4005 820.798 10.8674 821.017 11.4152C821.23 11.9501 821.171 11.9445 820.557 11.372C819.722 10.594 815.956 10.3972 815.62 11.1141C815.449 11.4782 815.248 11.4727 814.642 11.0874C813.687 10.48 813.139 9.0303 813.955 9.26768C814.273 9.36017 814.457 9.6586 814.365 9.93085C814.247 10.277 814.475 10.244 815.122 9.82097C815.862 9.33798 816.925 9.24427 820.404 9.35572C823.17 9.44434 824.947 9.66663 825.272 9.96463ZM832.057 10.8794C832.712 11.1932 832.383 12.0092 831.606 11.9976C831.041 11.9893 830.56 10.9392 831.027 10.7326C831.233 10.641 831.697 10.7071 832.057 10.8794ZM821.536 13.6949C822.074 14.357 822.015 14.4471 821.024 14.4823C820.409 14.504 819.571 14.5441 819.161 14.5712C817.839 14.6589 817.595 14.3178 818.477 13.6129C819.591 12.7224 820.771 12.754 821.536 13.6949ZM521.535 11.9913C521.533 12.0809 521.308 12.2536 521.034 12.3751C520.76 12.4965 520.538 12.4199 520.541 12.2049C520.544 11.9898 520.77 11.8171 521.042 11.8212C521.314 11.8252 521.536 11.9018 521.535 11.9913ZM515.721 12.1574C515.381 12.4048 514.98 12.5123 514.829 12.3963C514.679 12.2804 514.956 12.078 515.447 11.9466C516.156 11.7566 516.212 11.7999 515.721 12.1574ZM781.482 17.1181C781.48 17.2963 781.131 17.6497 780.707 17.9034C780.107 18.2621 779.805 18.2642 779.349 17.9131C778.892 17.562 778.927 17.3864 779.505 17.1242C780.445 16.6978 781.488 16.6946 781.482 17.1181ZM222.381 12.1907C222.378 12.3938 222.054 12.5551 221.662 12.5493C221.269 12.5435 220.813 12.3705 220.648 12.1649C220.483 11.9593 220.806 11.7979 221.367 11.8063C221.928 11.8146 222.384 11.9876 222.381 12.1907ZM230.793 12.7078C230.787 13.1281 229.456 13.1512 229.123 12.7367C228.992 12.5738 229.315 12.4227 229.841 12.401C230.368 12.3792 230.796 12.5173 230.793 12.7078ZM721.851 20.5907C722.284 21.4632 721.603 21.5802 719.901 20.9258C719.013 20.5844 718.51 20.2834 718.782 20.2569C720.873 20.0538 721.625 20.1357 721.851 20.5907ZM293.659 15.0951C293.656 15.2982 293.555 15.4629 293.435 15.4611C293.315 15.4593 293.081 15.2896 292.916 15.084C292.75 14.8784 292.851 14.7137 293.14 14.718C293.428 14.7223 293.662 14.892 293.659 15.0951ZM300.793 15.5207C301.002 15.7812 301.038 16.0921 300.873 16.2116C300.425 16.5355 299.949 16.0423 300.196 15.5103C300.37 15.1376 300.486 15.1391 300.793 15.5207ZM298.978 15.4186C299.987 15.7387 299.668 16.2392 298.598 16.014C298.055 15.8997 297.612 15.6594 297.615 15.48C297.62 15.128 298.007 15.1106 298.978 15.4186ZM61.556 13.7437C62.1194 14.1771 61.9038 14.6107 61.1305 14.5992C60.722 14.5931 60.3914 14.3389 60.3959 14.0343C60.4045 13.4577 60.9925 13.3104 61.556 13.7437ZM676.052 25.1249C676.183 25.2878 675.855 25.4391 675.323 25.4611C674.791 25.483 674.487 25.3468 674.648 25.1584C675.005 24.7402 675.729 24.723 676.052 25.1249ZM671.579 25.6929C671.419 25.9932 670.922 26.2463 670.474 26.2553C670.026 26.2643 668.656 26.3316 667.429 26.4049C665.82 26.501 665.407 26.437 665.947 26.1754C666.564 25.8762 666.572 25.8099 665.994 25.7966C665.608 25.7876 665.433 25.6791 665.604 25.5551C665.776 25.431 667.256 25.2884 668.893 25.2382C671.374 25.1622 671.822 25.2381 671.579 25.6929ZM873.646 29.5856C874.006 30.0328 873.068 30.4568 872.413 30.1431C871.863 29.8796 872.236 29.2208 872.93 29.2311C873.17 29.2347 873.492 29.3942 873.646 29.5856ZM868.821 39.1205C868.818 39.3116 868.594 39.5662 868.323 39.6863C868.04 39.8115 867.959 39.662 868.133 39.3359C868.472 38.7011 868.829 38.5893 868.821 39.1205ZM865.187 39.2568C865.182 39.5525 864.991 39.7044 864.761 39.5943C864.531 39.4842 864.473 39.2414 864.633 39.0546C865.041 38.5774 865.196 38.6341 865.187 39.2568ZM1.54819 74.6559C1.95382 74.8589 2.06283 75.0216 1.79044 75.0176C1.51813 75.0135 0.963506 74.8442 0.557969 74.6412C0.152343 74.4383 0.0433558 74.2756 0.315661 74.2796C0.587966 74.2837 1.14257 74.453 1.54819 74.6559ZM814.712 114.132C814.71 114.292 814.262 114.416 813.718 114.408C813.173 114.4 812.73 114.238 812.733 114.047C812.735 113.857 813.183 113.733 813.727 113.771C814.271 113.81 814.715 113.973 814.712 114.132ZM793.896 119.248L795.046 119.966L792.079 120.215C790.447 120.352 787.942 120.457 786.512 120.447C785.082 120.437 783.911 120.543 783.908 120.681C783.904 120.968 780.963 120.352 780.508 119.968C780.343 119.829 780.893 119.822 781.732 119.953C782.67 120.1 783.814 119.982 784.708 119.645C785.507 119.344 787.33 119.098 788.76 119.1C790.19 119.102 791.362 118.969 791.365 118.806C791.373 118.276 792.716 118.511 793.896 119.248ZM800.139 119.231C799.973 119.352 799.546 119.358 799.19 119.246C798.797 119.123 798.915 119.037 799.492 119.028C800.015 119.02 800.306 119.111 800.139 119.231ZM809.072 124.465C809.087 124.855 808.967 125.071 808.805 124.946C808.642 124.821 808.629 124.502 808.776 124.238C808.938 123.946 809.054 124.035 809.072 124.465ZM795.502 127.368C795.361 127.533 795.698 127.966 796.25 128.33C797.238 128.981 797.204 129.009 794.174 130.027C790.524 131.254 790.189 131.278 790.203 130.31C790.21 129.855 790.547 129.575 791.081 129.579C791.783 129.585 791.816 129.522 791.252 129.245C790.869 129.058 790.147 128.957 789.646 129.021C789.145 129.085 788.738 128.969 788.741 128.762C788.744 128.555 789.47 128.426 790.354 128.475C791.239 128.524 792.409 128.552 792.954 128.536C793.779 128.513 793.822 128.446 793.207 128.139C792.577 127.823 792.596 127.771 793.337 127.777C793.813 127.781 794.206 127.618 794.209 127.415C794.212 127.212 794.562 127.051 794.986 127.057C795.411 127.063 795.643 127.204 795.502 127.368ZM789.126 130.254C789.621 130.491 789.599 130.645 789.023 130.99C788.214 131.474 787.582 131.031 788.143 130.374C788.343 130.14 788.777 130.087 789.126 130.254ZM806.066 146.058C806.232 146.264 806.033 146.427 805.624 146.421C805.216 146.415 804.746 146.242 804.581 146.036C804.416 145.83 804.615 145.667 805.023 145.673C805.432 145.679 805.901 145.852 806.066 146.058ZM795.9 147.561C795.178 148.191 794.89 148.253 794.897 147.778C794.9 147.597 795.269 147.349 795.718 147.228C796.401 147.044 796.431 147.098 795.9 147.561ZM95.9822 143.135C95.3954 143.559 92.2199 143.851 91.5847 143.539C91.2192 143.36 91.1432 143.197 91.4158 143.178C94.0844 142.99 96.2106 142.97 95.9822 143.135ZM98.9817 143.635C99.3904 143.836 99.0809 143.938 98.1106 143.924C97.2828 143.912 96.6077 143.763 96.6102 143.594C96.616 143.201 98.1527 143.227 98.9817 143.635ZM111.706 144.295C113.82 144.681 118.963 145.011 128.574 145.378C131.866 145.504 135.033 145.804 135.612 146.045C136.242 146.308 138.458 146.469 141.133 146.448C143.59 146.428 145.601 146.45 145.6 146.496C145.598 146.625 142.701 147.664 142.359 147.659C142.193 147.656 142.198 147.49 142.369 147.29C142.551 147.077 142.049 146.915 141.166 146.902C140.333 146.89 139.648 147.046 139.645 147.249C139.642 147.452 139.404 147.615 139.116 147.611C138.827 147.606 138.762 147.398 138.97 147.147C139.25 146.81 139.161 146.785 138.629 147.054C138.233 147.254 137.464 147.392 136.92 147.36C136.375 147.329 134.747 147.261 133.302 147.21C131.856 147.158 130.779 146.993 130.908 146.843C131.037 146.692 129.77 146.573 128.093 146.578C126.416 146.583 124.657 146.426 124.183 146.23C123.608 145.992 123.32 146.007 123.316 146.277C123.312 146.499 123.042 146.553 122.715 146.396C122.388 146.24 120.218 146.038 117.893 145.948C115.567 145.858 113.665 145.765 113.665 145.741C113.666 145.717 112.553 145.627 111.192 145.541C109.831 145.455 108.663 145.347 108.595 145.3C108.48 145.222 107.972 145.103 107.115 144.953C106.722 144.884 109.062 143.846 109.483 143.902C109.619 143.921 110.619 144.097 111.706 144.295ZM131.733 146.439C131.73 146.617 132.161 146.768 132.689 146.776C133.218 146.784 133.773 146.647 133.923 146.471C134.073 146.296 133.643 146.144 132.967 146.134C132.291 146.124 131.736 146.261 131.733 146.439ZM105.23 147.114C105.398 147.322 105.745 147.401 106 147.288C106.255 147.175 106.462 147.248 106.459 147.452C106.448 148.166 105.649 148.166 105.068 147.45C104.744 147.053 104.58 146.728 104.702 146.73C104.825 146.732 105.062 146.905 105.23 147.114ZM115.809 148.711C116.325 149.108 116.852 149.357 116.98 149.265C117.107 149.173 118.298 149.058 119.625 149.009C121.924 148.925 124.761 149.728 124.031 150.256C123.446 150.679 120.028 150.527 119.288 150.046C118.531 149.553 117.137 149.516 116.506 149.973C115.975 150.357 113.45 150.234 113.107 149.807C112.64 149.226 113.366 147.967 114.161 147.979C114.551 147.985 115.293 148.314 115.809 148.711ZM110.702 148.354C110.909 148.611 110.834 148.682 110.516 148.53C110.222 148.389 109.839 148.441 109.665 148.645C109.196 149.195 108.581 149.083 108.59 148.45C108.6 147.8 110.198 147.727 110.702 148.354ZM689.586 159.695C689.42 159.816 688.992 159.823 688.637 159.71C688.243 159.587 688.362 159.501 688.939 159.492C689.461 159.484 689.752 159.575 689.586 159.695ZM589.539 168.699C589.536 168.902 589.436 169.066 589.316 169.065C589.196 169.063 588.962 168.893 588.797 168.688C588.631 168.482 588.732 168.317 589.021 168.322C589.309 168.326 589.542 168.495 589.539 168.699ZM577.993 168.49C578.786 168.94 578.586 169.566 577.708 169.381C577.148 169.264 576.786 169.409 576.729 169.774C576.679 170.093 576.597 170.602 576.547 170.906C576.497 171.21 576.047 171.474 575.548 171.492C575.048 171.51 574.471 171.556 574.267 171.595C574.062 171.634 573.224 171.79 572.404 171.942C570.582 172.279 569.587 172.808 569.943 173.251C570.09 173.433 569.769 173.576 569.231 173.568C568.693 173.56 568.143 173.344 568.009 173.088C567.839 172.765 567.638 172.742 567.349 173.013C566.612 173.706 565.092 173.903 564.3 173.409C563.664 173.012 563.603 173.02 563.948 173.46C564.264 173.863 564.157 173.928 563.503 173.73C563.03 173.587 562.341 173.466 561.973 173.46C561.606 173.455 561.175 173.133 561.017 172.745C560.832 172.292 560.41 172.098 559.836 172.201C558.568 172.428 558.685 173.343 559.962 173.187C560.971 173.064 560.972 173.069 560 173.397C559.453 173.582 558.25 173.734 557.328 173.735C556.406 173.735 554.287 173.879 552.619 174.053C548.294 174.505 537.43 175.249 532.482 175.431C530.165 175.517 527.266 175.637 526.039 175.7C523.455 175.831 518.354 176.026 511.668 176.247C509.079 176.333 505.511 176.474 503.739 176.559C499.48 176.765 492.782 176.686 491.854 176.418C491.447 176.301 490.169 176.064 489.014 175.891C487.859 175.718 486.916 175.454 486.918 175.304C486.92 175.155 487.479 174.63 488.16 174.138C489.167 173.409 489.86 173.257 491.889 173.316C493.37 173.36 494.314 173.237 494.218 173.013C494.129 172.806 492.341 172.598 490.245 172.55C486.952 172.475 484.766 171.965 485.522 171.448C485.861 171.217 492.429 171.081 492.424 171.305C492.422 171.415 493.925 171.475 495.765 171.439C497.605 171.403 500.387 171.543 501.946 171.751C503.506 171.959 504.889 172.051 505.02 171.957C505.15 171.863 506.213 171.764 507.382 171.739C508.551 171.713 510.124 171.573 510.879 171.428C511.695 171.27 512.504 171.324 512.875 171.561C513.217 171.78 515.652 172.03 518.284 172.116C521.543 172.222 522.967 172.398 522.746 172.665C522.568 172.881 522.803 172.835 523.269 172.562C523.853 172.221 524.745 172.15 526.128 172.336C527.449 172.513 528.034 172.475 527.832 172.223C527.487 171.795 527.553 171.788 532.041 171.765C533.812 171.756 535.764 171.625 536.379 171.474C536.994 171.324 537.496 171.336 537.493 171.502C537.491 171.668 538.046 171.812 538.727 171.822C539.407 171.833 539.966 171.716 539.969 171.564C539.971 171.412 540.32 171.292 540.745 171.298C541.169 171.305 541.398 171.448 541.254 171.618C540.904 172.027 546 171.494 546.375 171.082C547.062 170.327 556.341 169.69 556.33 170.398C556.327 170.614 556.56 170.794 556.849 170.799C557.137 170.803 557.247 170.65 557.094 170.458C556.654 169.911 557.798 169.595 558.528 170.062C559.018 170.376 559.25 170.36 559.441 170.003C559.606 169.694 560.423 169.564 561.733 169.638C562.853 169.701 563.771 169.598 563.774 169.408C563.783 168.797 566.321 169.236 566.805 169.932C567.063 170.302 567.49 170.509 567.755 170.391C568.02 170.274 568.125 170.039 567.988 169.869C567.852 169.699 568.067 169.472 568.467 169.364C568.867 169.256 569.326 169.331 569.486 169.531C569.665 169.752 570.3 169.687 571.114 169.362C572.647 168.752 577.394 168.15 577.993 168.49ZM585.059 170.272C585.049 170.921 584.75 171.012 584.334 170.493C584.18 170.302 584.282 170.044 584.56 169.921C584.839 169.798 585.063 169.955 585.059 170.272ZM583.183 170.882C582.892 171.093 582.363 171.188 582.007 171.094C581.637 170.996 581.864 170.832 582.536 170.711C583.362 170.563 583.555 170.614 583.183 170.882ZM412.591 169.288C413.202 169.385 413.701 169.591 413.698 169.746C413.692 170.198 411.543 169.921 411.337 169.441C411.235 169.202 411.224 169.03 411.315 169.059C411.405 169.088 411.979 169.191 412.591 169.288ZM422.853 170.288C421.485 170.704 420.704 170.692 421.615 170.269C422.027 170.079 422.697 169.937 423.106 169.954C423.595 169.974 423.509 170.088 422.853 170.288ZM419.854 170.209C420.004 170.395 419.682 170.454 419.138 170.34C417.986 170.097 417.843 169.844 418.868 169.859C419.26 169.865 419.704 170.022 419.854 170.209ZM483.588 171.99C484.359 172.586 484.005 172.621 477.884 172.558C474.295 172.521 470.86 172.555 470.252 172.633C469.644 172.712 469.033 172.635 468.894 172.462C468.755 172.29 467.959 172.174 467.125 172.205C464.87 172.287 464.868 171.75 467.122 171.623C468.188 171.563 468.953 171.64 468.821 171.794C468.407 172.279 469.173 172.108 469.957 171.541C470.809 170.925 472.902 170.843 473.356 171.408C473.556 171.656 473.986 171.657 474.634 171.41C475.737 170.988 476.764 171.301 476.251 171.902C476.027 172.164 476.149 172.191 476.614 171.982C476.999 171.809 478.541 171.597 480.04 171.511C482.186 171.388 482.942 171.49 483.588 171.99ZM443.893 170.969C443.89 171.172 443.789 171.337 443.669 171.335C443.549 171.334 443.315 171.164 443.15 170.958C442.985 170.753 443.085 170.588 443.374 170.592C443.662 170.597 443.896 170.766 443.893 170.969ZM463.689 172.002C464.132 172.224 464.191 172.37 463.836 172.368C463.512 172.366 463.111 172.196 462.946 171.991C462.573 171.527 462.744 171.529 463.689 172.002ZM270.281 169.182C270.02 169.488 271.901 169.879 272.287 169.6C272.826 169.211 275.028 169.168 275.022 169.547C275.019 169.782 276.427 169.859 278.858 169.758C281.837 169.634 283.085 169.739 284.423 170.227C285.371 170.573 285.772 170.774 285.315 170.674C284.857 170.574 284.41 170.636 284.322 170.811C284.234 170.986 283.826 171.178 283.417 171.238C283.007 171.298 282.506 171.511 282.303 171.711C282.1 171.911 281.936 171.711 281.938 171.266C281.942 170.501 281.868 170.485 280.573 170.967C279.344 171.425 279.134 171.41 278.527 170.822C277.884 170.2 277.866 170.199 278.141 170.817C278.364 171.319 278.156 171.463 277.232 171.449C276.573 171.44 275.811 171.138 275.539 170.778C275.264 170.415 275.034 170.33 275.022 170.586C274.999 171.069 273.511 171.23 273.519 170.748C273.521 170.596 271.838 170.456 269.779 170.437C267.72 170.418 265.926 170.267 265.792 170.101C265.659 169.935 265.073 169.792 264.489 169.783C263.641 169.77 263.554 169.677 264.055 169.315C264.682 168.862 270.663 168.733 270.281 169.181L270.281 169.182ZM262.152 169.073C262.149 169.242 261.98 169.389 261.776 169.4C261.571 169.41 260.69 169.478 259.817 169.55C257.855 169.712 257.167 169.068 259.056 168.838C260.923 168.609 262.157 168.703 262.152 169.073ZM297.786 170.833C297.783 171.036 298.616 171.214 299.637 171.229C300.659 171.245 301.661 171.093 301.864 170.893C302.11 170.651 302.234 170.652 302.236 170.899C302.24 171.361 305.205 171.515 305.212 171.053C305.215 170.867 305.418 170.811 305.664 170.929C306.132 171.153 310.483 171.567 315.106 171.826C316.603 171.91 317.828 172.017 317.827 172.062C317.823 172.31 324.338 172.41 324.759 172.169C325.51 171.739 330.465 171.504 330.459 171.899C330.456 172.087 330.788 172.246 331.197 172.252C331.605 172.258 331.942 172.102 331.945 171.906C331.948 171.684 335.437 171.667 341.232 171.863C346.337 172.034 351.051 172.181 351.708 172.189C352.365 172.195 353.644 172.367 354.551 172.568C355.542 172.787 356.2 172.798 356.203 172.596C356.208 172.26 357.939 172.34 358.404 172.697C358.538 172.8 360.791 172.857 363.411 172.824C366.568 172.784 368.407 172.913 368.867 173.207C369.407 173.552 369.564 173.538 369.575 173.144C369.586 172.824 369.722 172.781 369.949 173.028C370.164 173.263 372.978 173.477 376.991 173.564C380.667 173.644 391.807 173.925 401.746 174.189C411.685 174.453 424.44 174.759 430.091 174.87C435.741 174.981 440.364 175.176 440.362 175.303C440.361 175.43 441.585 175.552 443.083 175.574C444.58 175.596 445.807 175.49 445.809 175.338C445.811 175.185 446.049 175.064 446.337 175.068C446.626 175.073 446.722 175.24 446.55 175.441C446.379 175.642 446.586 175.811 447.011 175.817C447.435 175.823 447.78 175.995 447.777 176.198C447.774 176.401 448.008 176.57 448.296 176.575C448.585 176.579 448.685 176.414 448.52 176.209C448.343 175.988 448.89 175.847 449.858 175.865C451.098 175.888 451.315 175.979 450.748 176.242C450.196 176.498 450.171 176.593 450.654 176.604C451.158 176.616 451.136 176.744 450.558 177.162C450.145 177.461 449.345 177.698 448.781 177.69C448.217 177.682 447.753 177.852 447.75 178.069C447.746 178.303 447.317 178.355 446.695 178.198C445.989 178.02 445.755 178.069 445.979 178.347C446.162 178.575 446.18 178.759 446.019 178.757C445.858 178.755 445.562 178.408 445.361 177.988L444.995 177.223L443.678 177.969C442.775 178.481 442.255 178.584 442.023 178.295C441.784 177.997 441.562 178.019 441.263 178.37C440.919 178.772 437.52 178.813 423.12 178.588C413.373 178.436 401.39 178.145 396.49 177.942C391.589 177.739 383.459 177.415 378.422 177.222C360.236 176.527 355.551 176.303 355.146 176.109C354.242 175.676 350.257 175.244 349.649 175.514C349.274 175.68 348.841 175.612 348.622 175.353C348.34 175.019 348.119 175.044 347.749 175.452C347.476 175.753 347.252 175.832 347.25 175.629C347.248 175.396 344.188 175.231 338.953 175.181C330.681 175.103 316.556 174.297 316.561 173.904C316.562 173.79 314.836 173.69 312.726 173.681C309.108 173.667 300.785 173.038 299.313 172.668C298.77 172.531 298.762 172.393 299.27 171.95C299.782 171.503 299.77 171.429 299.207 171.553C298.827 171.637 297.893 171.798 297.131 171.911C296.277 172.038 295.853 172.291 296.025 172.572C296.179 172.822 296.049 172.763 295.736 172.44C295.276 171.966 294.641 171.899 292.414 172.091C290.848 172.226 289.288 172.173 288.797 171.969C288.322 171.771 287.307 171.578 286.54 171.539C285.257 171.473 285.241 171.456 286.344 171.318C287.27 171.201 287.384 171.09 286.846 170.827C286.086 170.454 286.73 170.419 293.706 170.447C296.139 170.457 297.789 170.613 297.786 170.833ZM441.652 176.289C441.804 176.595 442.129 176.756 442.374 176.648C443.078 176.336 442.905 175.756 442.104 175.744C441.662 175.738 441.485 175.952 441.652 176.289ZM470.551 175.456C470.031 176.158 470.06 176.239 470.764 176.049C471.466 175.859 471.496 175.941 470.982 176.635L470.385 177.441L469.905 176.611C469.354 175.658 468.333 175.505 467.903 176.312C467.742 176.614 467.789 176.864 468.007 176.867C468.225 176.871 468.4 177.124 468.396 177.432C468.389 177.886 467.941 177.939 465.998 177.718C464.365 177.532 463.606 177.578 463.602 177.862C463.598 178.094 462.812 178.268 461.833 178.253C460.678 178.236 460.189 178.089 460.413 177.826C460.657 177.541 460.454 177.54 459.711 177.824C458.843 178.156 458.716 178.129 458.963 177.665C459.127 177.358 459.46 177.11 459.703 177.113C459.947 177.117 460.148 176.954 460.151 176.751C460.163 175.981 459.261 176.413 458.655 177.467C457.947 178.697 457.93 178.704 456.696 178.19C456.073 177.931 455.885 177.538 456.066 176.872C456.208 176.351 456.129 175.97 455.89 176.026C455.651 176.081 455.346 175.963 455.213 175.762C455.07 175.547 456.249 175.391 458.1 175.382C460.962 175.367 461.275 175.442 461.758 176.259C462.278 177.139 464.102 177.549 464.113 176.788C464.116 176.573 463.897 176.495 463.626 176.615C463.348 176.738 463.26 176.595 463.424 176.288C463.594 175.969 464.039 175.84 464.495 175.978C465.002 176.131 465.154 176.064 464.932 175.787C464.54 175.301 466.191 174.97 468.099 175.153C468.779 175.218 469.745 175.13 470.245 174.957C471.059 174.675 471.091 174.727 470.551 175.456ZM456.984 176.642C456.842 176.809 457.039 176.951 457.424 176.956C457.809 176.962 458.011 176.827 457.873 176.655C457.735 176.484 457.537 176.343 457.433 176.341C457.329 176.339 457.127 176.475 456.984 176.642ZM477.222 175.485C477.369 175.667 477.043 175.896 476.499 175.994C475.84 176.112 475.608 176.369 475.803 176.764C475.965 177.09 475.888 177.354 475.632 177.35C474.952 177.34 475.08 176.135 475.817 175.603C476.564 175.062 476.863 175.037 477.222 175.485ZM474.171 176.466C474.027 176.735 473.846 176.954 473.768 176.953C473.691 176.952 473.516 176.727 473.381 176.455C473.245 176.182 473.426 175.963 473.783 175.968C474.14 175.973 474.314 176.198 474.171 176.466ZM472.246 177.472C471.713 177.763 470.788 177.998 470.191 177.996C469.01 177.991 468.266 177.42 469.011 177.09C469.266 176.977 469.557 177.077 469.658 177.312C469.796 177.633 470.106 177.638 470.906 177.334C472.437 176.749 473.393 176.849 472.246 177.473L472.246 177.472ZM478.825 177.62C478.658 177.741 478.231 177.747 477.875 177.635C477.482 177.512 477.601 177.426 478.178 177.417C478.7 177.408 478.991 177.5 478.825 177.62ZM452.713 177.379C453.343 177.694 453.324 177.747 452.583 177.741C452.107 177.737 451.719 177.567 451.722 177.364C451.729 176.914 451.785 176.915 452.713 177.379ZM455.364 177.981C455.593 178.443 455.465 178.473 454.671 178.142C453.53 177.667 453.426 177.39 454.393 177.404C454.772 177.41 455.209 177.669 455.364 177.981Z" fill="#3660D3" fill-opacity="0.67"/>
</svg>
