<svg width="512" height="512" viewBox="0 0 512 512" fill="none" xmlns="http://www.w3.org/2000/svg">
<g clip-path="url(#clip0_46_25)">
<path d="M256 512C397.385 512 512 397.385 512 256C512 114.615 397.385 0 256 0C114.615 0 0 114.615 0 256C0 397.385 114.615 512 256 512Z" fill="#3660D3" fill-opacity="0.67"/>
<path d="M399.36 167.08C388.626 171.837 377.239 174.958 365.58 176.34C377.862 168.989 387.052 157.424 391.44 143.8C379.894 150.651 367.262 155.477 354.09 158.07C345.22 148.643 333.491 142.401 320.717 140.311C307.943 138.221 294.836 140.398 283.423 146.506C272.011 152.614 262.93 162.312 257.584 174.101C252.238 185.889 250.926 199.111 253.85 211.72C230.46 210.55 207.577 204.474 186.689 193.885C165.8 183.297 147.371 168.434 132.6 150.26C125.077 163.211 122.772 178.542 126.153 193.133C129.534 207.723 138.348 220.478 150.8 228.8C141.46 228.507 132.326 225.983 124.16 221.44C124.16 221.69 124.16 221.93 124.16 222.18C124.163 235.763 128.863 248.927 137.464 259.44C146.065 269.952 158.037 277.167 171.35 279.86C162.685 282.211 153.597 282.553 144.78 280.86C148.541 292.555 155.866 302.781 165.728 310.106C175.591 317.431 187.497 321.489 199.78 321.71C178.943 338.066 153.209 346.935 126.72 346.89C122.041 346.891 117.367 346.617 112.72 346.07C139.615 363.355 170.919 372.531 202.89 372.5C311.09 372.5 370.26 282.87 370.26 205.13C370.26 202.577 370.203 200.04 370.09 197.52C381.577 189.192 391.488 178.884 399.36 167.08Z" fill="white"/>
</g>
<defs>
<clipPath id="clip0_46_25">
<rect width="512" height="512" fill="white"/>
</clipPath>
</defs>
</svg>
