<svg width="2082" height="856" viewBox="0 0 2082 856" fill="none" xmlns="http://www.w3.org/2000/svg">
<path d="M543.136 851.482C543.136 848.995 542.634 847.436 542.021 848.019C541.408 848.601 540.141 846.263 539.206 842.822C538.22 839.193 536.698 836.567 535.582 836.567C534.062 836.567 533.939 836.047 534.997 834.088C536.025 832.184 535.991 831.432 534.85 830.842C533.682 830.238 533.734 829.386 535.09 826.849C536.404 824.391 536.472 823.447 535.377 822.881C534.587 822.472 533.94 821.362 533.94 820.413C533.94 819.465 534.452 819.175 535.077 819.769C535.728 820.388 535.921 819.679 535.528 818.106C535.152 816.598 535.435 815.364 536.157 815.364C537.113 815.364 537.136 814.405 536.239 811.83C535.251 808.992 535.365 808.297 536.819 808.297C538.281 808.297 538.352 807.842 537.189 805.928C535.701 803.479 532.811 805.669 533.188 808.959C533.286 809.81 532.76 810.849 532.019 811.269C531.134 811.771 530.901 810.694 531.338 808.121C531.704 805.97 531.534 804.633 530.96 805.149C530.387 805.665 528.883 805.503 527.618 804.788C525.795 803.757 526.331 803.222 530.205 802.203C533.251 801.402 535.09 799.979 535.09 798.423C535.09 797.051 536.095 795.928 537.323 795.928C538.552 795.928 540.265 794.375 541.129 792.478C542.68 789.075 548.535 784.431 550.432 785.099C550.969 785.288 554.331 784.308 557.904 782.922C561.477 781.536 567.634 779.842 571.586 779.157C575.539 778.472 579.061 777.195 579.413 776.318C579.765 775.442 581.187 774.708 582.572 774.686C583.957 774.663 588.194 772.296 591.987 769.425C595.78 766.553 599.758 764.185 600.827 764.164C601.896 764.141 603.09 763.329 603.481 762.357C603.872 761.385 603.608 760.59 602.894 760.59C601.301 760.59 601.876 752.688 603.481 752.516C604.113 752.449 606.898 751.395 609.67 750.176C612.442 748.956 615.972 748.445 617.514 749.04C619.057 749.635 621.962 749.343 623.969 748.392C625.977 747.44 630.505 745.793 634.033 744.732C643.714 741.819 648.884 739.386 648.884 737.743C648.884 736.04 589.919 737.228 575.32 739.226C567.628 740.278 564.694 739.99 561.527 737.874C559.314 736.395 557.245 735.07 556.929 734.929C556.613 734.789 554.843 733.714 552.995 732.541C551.148 731.368 548.82 730.897 547.823 731.494C546.825 732.091 531.526 732.865 513.825 733.214C496.124 733.562 479.313 734.64 476.469 735.607C473.624 736.575 465.098 738.29 457.523 739.418C449.948 740.546 442.76 742.284 441.551 743.279C440.341 744.274 436.825 744.715 433.737 744.259C430.65 743.803 427.845 744.123 427.504 744.971C427.163 745.819 426.403 746.055 425.814 745.496C425.226 744.937 424.744 745.321 424.744 746.351C424.744 747.38 424.356 748.064 423.882 747.871C421.97 747.093 412.1 750.308 412.1 751.709C412.1 753.433 403.417 756.3 400.134 755.659C398.927 755.424 396.967 756.834 395.779 758.794C394.592 760.754 392.735 762.451 391.653 762.566C390.571 762.68 386.583 762.946 382.79 763.156C378.996 763.365 373.824 764.455 371.295 765.576C368.767 766.698 364.744 768.063 362.355 768.61C359.967 769.156 358.293 770.301 358.636 771.154C359.706 773.815 357.152 774.512 337.182 777.008C336.121 777.141 335.345 778.003 335.458 778.923C335.57 779.844 334.628 781.065 333.364 781.637C332.1 782.208 329.759 784.042 328.163 785.711C326.075 787.894 321.722 789.064 312.646 789.882C305.707 790.507 298.835 790.936 297.373 790.834C295.912 790.732 293.128 791.912 291.186 793.455C289.181 795.049 287.35 795.561 286.947 794.641C285.957 792.381 281.911 790.21 282.797 792.415C283.731 794.738 282.613 794.619 279.552 792.069C273.375 786.923 244.133 790.835 241.082 797.216C240.138 799.192 240.034 800.524 240.795 800.914C241.449 801.249 241.984 802.227 241.984 803.088C241.984 803.948 241.26 804.225 240.376 803.703C239.492 803.182 238.427 803.604 238.009 804.642C236.895 807.414 243.783 807.012 247.501 804.088C249.208 802.745 252.932 801.061 255.777 800.346C258.622 799.631 261.855 798.787 262.961 798.472C264.067 798.156 264.973 798.94 264.973 800.212C264.973 801.85 266.402 802.355 269.858 801.939C273.634 801.484 274.281 801.762 272.707 803.165C271.587 804.163 270.93 805.624 271.247 806.41C271.929 808.107 265.502 809.814 253.061 811.24C246.075 812.04 243.795 811.723 243.021 809.844C242.294 808.081 242.014 808.02 242.002 809.622C241.975 812.875 235.067 812.349 232.592 808.906C231.435 807.298 230.49 806.734 230.49 807.654C230.49 808.667 226.759 808.847 221.007 808.11C215.791 807.442 207.645 806.458 202.903 805.922C198.162 805.387 192.583 804.025 190.507 802.895C188.43 801.765 185.444 801.219 183.87 801.681C182.296 802.144 180.683 801.71 180.284 800.719C179.838 799.611 180.139 799.467 181.064 800.346C182 801.235 182.29 801.081 181.83 799.939C180.965 797.786 175.483 795.836 168.995 795.373C165.168 795.1 164.376 794.409 164.272 791.248C164.161 787.855 164.953 787.308 171.744 786.099C175.921 785.354 180.633 784.917 182.213 785.127L185.087 785.51L182.037 782.961C176.748 778.542 171.591 776.678 161.524 775.544C156.15 774.939 148.391 773.145 144.282 771.558C134.831 767.908 102.036 767.628 100.606 771.185C100.114 772.41 99.1027 772.833 98.359 772.127C96.4386 770.302 75.2861 769.688 76.0056 771.478C76.6786 773.152 76.5074 773.18 61.4709 773.882C50.8582 774.377 46.3786 774.98 30.488 778.057C23.2422 779.46 19.0058 778.656 14.8646 775.093C13.1303 773.601 13.504 772.753 17.6807 768.7C21.0495 765.431 25.1652 763.508 31.3774 762.301C41.979 760.241 52.0941 757.646 59.3817 755.116C63.7409 753.603 64.6104 752.668 64.1536 749.983C63.8257 748.055 62.9298 747.092 61.9842 747.65C61.0982 748.172 60.3733 747.72 60.3733 746.644C60.3733 745.568 61.2785 744.676 62.3848 744.661C64.1038 744.639 64.1456 744.385 62.6722 742.921C61.5817 741.838 61.4628 741.198 62.3487 741.181C63.1213 741.165 63.4517 739.961 63.0854 738.494C62.6233 736.643 63.7702 734.913 66.8572 732.804L71.2929 729.774L60.0622 728.709C53.8854 728.123 45.7387 727.724 41.9586 727.822C38.1785 727.921 35.0857 727.902 35.0857 727.78C35.0857 727.659 36.1202 725.726 37.3846 723.485C38.649 721.244 39.6835 719.948 39.6835 720.605C39.6835 721.262 40.8482 720.627 42.2719 719.193C43.6955 717.759 48.6948 715.671 53.3814 714.553C58.068 713.435 63.9511 711.41 66.4549 710.052C68.9587 708.694 72.8819 707.555 75.1731 707.52C81.5744 707.423 97.699 700.978 93.0364 700.38C92.4569 700.306 90.9482 699.879 89.6838 699.432C88.4195 698.985 86.7534 698.406 85.9815 698.146C83.3516 697.26 83.1837 695.54 85.6113 694.355C86.9437 693.705 89.3858 691.247 91.0382 688.893C92.6906 686.539 95.1968 684.613 96.6076 684.613C98.0183 684.613 99.7627 683.52 100.484 682.184C101.562 680.188 100.614 679.549 95.1648 678.595C91.5181 677.956 86.9827 677.049 85.0861 676.578C80.5741 675.458 62.6196 675.62 61.3864 676.792C59.7227 678.372 46.5801 679.118 46.5801 677.631C46.5801 676.85 47.3559 675.222 48.3042 674.012C49.2525 672.802 50.0284 670.982 50.0284 669.967C50.0284 668.952 49.688 668.645 49.2721 669.285C48.8561 669.924 47.8216 669.562 46.9732 668.479C46.1191 667.39 45.4307 667.265 45.4307 668.2C45.4307 669.129 44.6548 669.889 43.7065 669.889C40.946 669.889 41.7032 667.997 45.4967 665.416C49.7627 662.513 49.1518 661.295 42.2744 658.993C36.0005 656.893 34.8046 653.601 39.3027 650.814C43.9578 647.93 65.8286 644.187 78.331 644.134C84.1912 644.109 90.3581 643.56 92.0352 642.913L95.0844 641.736L91.8094 637.618C90.0082 635.353 87.6598 633.472 86.5908 633.437C83.8662 633.348 83.0381 630.537 84.4995 626.34C86.0427 621.907 96.0411 613.937 100.058 613.937C101.752 613.937 102.731 613.175 102.328 612.17C101.937 611.198 100.669 610.403 99.5092 610.403C97.5618 610.403 95.3966 605.992 95.8233 602.894C96.257 599.745 78.0199 603.267 76.4936 606.627C75.328 609.194 45.9765 615.901 43.0911 614.26L40.3433 612.697L43.0162 610.498C44.4862 609.289 54.0361 606.161 64.2382 603.546C82.9066 598.762 87.4501 595.385 75.2172 595.385C71.4584 595.385 68.0005 594.375 66.8764 592.95C65.2797 590.926 63.069 590.87 53.7566 592.618C36.6331 595.833 26.6816 598.041 24.3478 599.143C22.8016 599.873 22.3366 599.35 22.6237 597.201C23.042 594.07 26.5981 590.396 32.1732 587.336C36.9719 584.701 33.989 582.378 27.8533 583.972C25.1931 584.662 20.6891 585.788 17.8442 586.472L12.6718 587.717L16.9821 581.367C19.3529 577.875 21.2925 574.734 21.2925 574.386C21.2925 574.039 18.0851 573.197 14.1648 572.515C4.89594 570.903 -0.0635932 566.909 0.000615681 561.108C0.0343441 558.048 7.47036 553.944 14.3894 553.166C17.2378 552.845 23.7063 551.32 28.7638 549.776C33.8214 548.232 41.5807 546.611 46.0068 546.174C50.4329 545.736 57.157 544.541 60.9494 543.518C84.502 537.16 89.803 535.595 90.8182 534.701C91.442 534.151 89.6317 532.832 86.7951 531.771C83.9407 530.702 81.6378 528.804 81.6378 527.52C81.6378 524.547 93.2229 518.088 103.737 515.2C108.852 513.794 112.636 511.704 113.875 509.599C114.984 507.716 118.832 505.34 122.639 504.189C131.276 501.577 131.043 499.099 121.658 493.769C119.646 492.626 118.233 490.771 118.518 489.647C119.166 487.089 124.494 483.186 127.337 483.186C128.513 483.186 129.155 482.391 128.765 481.419C128.374 480.448 124.205 479.652 119.501 479.652C111.751 479.652 108.638 477.846 112.385 475.522C115.733 473.445 98.9583 474.57 90.6729 476.977C80.3551 479.975 74.7412 478.72 74.7412 473.416C74.7412 470.971 77.7436 467.76 86.0236 461.351C93.8236 455.313 96.8392 452.154 95.7938 451.116C93.808 449.145 95.768 447.13 103.477 443.216C114.359 437.691 122.991 428.43 121.858 423.497C121.084 420.127 125.325 418.29 142.847 414.402C151.557 412.469 160.279 409.664 162.23 408.168C164.181 406.672 168.312 404.98 171.409 404.41C179.95 402.836 196.292 396.481 198.849 393.739C200.096 392.402 202.682 391.252 204.596 391.183C206.51 391.115 209.11 390.376 210.374 389.54C212.205 388.331 211.737 387.969 208.076 387.762C198.278 387.207 193.08 385.722 191.781 383.108C190.894 381.323 189.509 380.774 187.758 381.514C185.459 382.484 185.37 382.369 187.119 380.685C188.237 379.608 190.047 378.954 191.142 379.231C192.237 379.508 193.829 379.064 194.679 378.245C195.594 377.364 197.383 377.708 199.061 379.088C201.27 380.905 202.375 380.959 204.07 379.332C205.446 378.012 206.5 377.88 206.941 378.975C207.323 379.927 210.58 380.734 214.178 380.769C217.776 380.803 222.012 381.968 223.593 383.357C227.036 386.382 228.191 386.604 228.191 384.24C228.191 383.268 227.384 382.473 226.399 382.473C225.413 382.473 224.89 381.768 225.236 380.907C225.583 380.046 224.783 378.906 223.459 378.373C222.135 377.841 221.277 376.359 221.551 375.081C222.058 372.72 227.207 371.338 243.133 369.284C257.522 367.429 261.524 366.43 261.524 364.696C261.524 363.784 260.748 363.037 259.8 363.037C258.842 363.037 258.076 361.467 258.076 359.503C258.076 356.912 258.842 355.97 260.95 355.97C264.256 355.97 264.82 353.249 261.768 352.022C260.637 351.567 254.818 351.62 248.837 352.139C231.415 353.65 224.446 353.147 220.802 350.116C218.951 348.576 217.104 347.631 216.699 348.015C216.294 348.4 216.177 346.477 216.438 343.741C217.008 337.772 215.391 336.841 203.589 336.342C196.526 336.043 195.977 335.775 198.432 333.819C202.471 330.602 217.284 325.985 226.118 325.19C230.633 324.783 234.897 323.332 236.431 321.681C239.697 318.165 241.665 318.121 243.872 321.515C244.865 323.041 247.633 324.149 250.399 324.127C258.919 324.059 290.704 319.09 295.02 317.151C299.05 315.34 299.172 315.048 298.322 309.253C297.786 305.601 297.907 302.516 298.628 301.407C299.448 300.147 299.413 298.828 298.515 297.164C295.769 292.078 299.262 291.025 316.036 291.882C329.07 292.549 333.136 292.184 335.781 290.11C338.579 287.917 351.194 284.891 359.801 284.35C361.065 284.27 364.686 283.494 367.847 282.625L373.594 281.046L368.422 279.761C365.577 279.054 357.042 278.881 349.456 279.376C341.87 279.872 331.008 280.172 325.318 280.042C319.628 279.913 308.507 281.102 300.605 282.685C284.969 285.817 268.844 288.008 261.902 287.944C259.482 287.921 257.176 288.597 256.779 289.446C256.382 290.295 254.443 291.09 252.469 291.214C250.495 291.339 248.881 292.098 248.881 292.903C248.881 293.708 247.717 293.863 246.294 293.248C244.27 292.372 244.083 292.532 245.432 293.985C246.919 295.584 246.879 295.844 245.145 295.868C244.039 295.884 243.133 296.781 243.133 297.865C243.133 299.075 242.04 298.734 240.3 296.981C237.154 293.812 235.774 293.314 236.731 295.694C237.077 296.555 236.332 297.673 235.074 298.179C233.766 298.705 232.788 298.224 232.788 297.054C232.788 295.871 230.973 295.011 228.478 295.011C225.738 295.011 224.266 295.785 224.437 297.135C224.622 298.597 223.383 298.999 220.464 298.425C215.679 297.483 210.958 293.366 210.932 290.111C210.919 288.72 210.515 288.893 209.8 290.594C208.935 292.651 208.682 292.131 208.668 288.269C208.645 281.896 210.539 276.459 212.782 276.459C213.745 276.459 214.213 275.664 213.823 274.692C213.432 273.72 214.048 272.864 215.192 272.79C218.979 272.543 221.385 271.473 223.946 268.893C226.243 266.58 231.639 267.47 231.639 270.162C231.639 270.649 230.946 270.638 230.099 270.137C229.252 269.637 227.83 270.61 226.938 272.298C225.541 274.944 225.543 275.159 226.951 273.856C228.206 272.692 228.396 273.091 227.774 275.584C227.29 277.522 227.558 279.403 228.44 280.264C230.64 282.409 232.491 282.005 230.491 279.817C229.194 278.398 229.86 278.165 233.181 278.876C235.623 279.398 238.535 278.919 239.697 277.803C241.288 276.276 242.208 276.308 243.482 277.933C244.839 279.665 245.338 279.473 246.057 276.944C246.547 275.218 246.866 273.21 246.765 272.481C246.665 271.752 247.316 271.156 248.211 271.156C249.107 271.156 250.037 270.247 250.278 269.135C250.519 268.024 252.234 266.866 254.088 266.562C255.943 266.258 258.038 264.794 258.745 263.309C259.451 261.824 260.448 261.194 260.96 261.907C261.473 262.621 261.567 261.813 261.17 260.113C260.282 256.306 262.48 255.951 263.428 259.747C264.03 262.161 264.357 262.129 266.265 259.473C268.303 256.639 268.423 256.659 268.44 259.839C268.454 262.659 268.638 262.775 269.572 260.554C271.233 256.603 270.996 255.743 267.919 254.556C265.968 253.803 265.173 252.345 265.3 249.755C265.502 245.628 269.506 242.543 274.119 242.96C278.419 243.348 282.215 241.074 282.215 238.11C282.215 236.202 283.358 235.642 286.526 235.998C291.158 236.517 298.952 234.529 301.756 232.111C303.148 230.911 303.038 230.598 301.181 230.487C299.917 230.412 296.296 229.977 293.135 229.522C283.361 228.113 270.36 228.157 265.67 229.615C262.45 230.616 261.418 230.448 261.994 229.015C262.488 227.786 262.177 227.388 261.181 227.976C260.235 228.534 258.709 226.917 257.496 224.071C256.015 220.596 255.821 219.011 256.812 218.503C257.744 218.026 257.519 216.972 256.127 215.293C254.238 213.015 254.359 212.876 257.503 213.715C259.399 214.222 260.304 214.168 259.514 213.595C256.603 211.485 258.206 209.314 262.675 209.314C265.577 209.314 267.279 210.129 267.29 211.523C267.303 213.148 267.569 213.098 268.296 211.335C268.917 209.828 269.553 209.606 270.007 210.735C270.779 212.655 272.242 212.505 275.834 210.141C277.066 209.33 279.774 208.614 281.852 208.549C286.616 208.4 288.163 204.014 283.451 204.014C281.588 204.014 279.875 202.865 279.501 201.363C279.054 199.575 279.556 198.713 281.045 198.713C282.258 198.713 283.664 197.719 284.17 196.504C285.488 193.337 290.172 189.585 291.378 190.731C291.941 191.266 292.726 190.896 293.123 189.907C293.52 188.92 295.273 188.112 297.017 188.112C298.762 188.112 302.998 186.82 306.432 185.242C311.852 182.751 312.339 182.179 310.125 180.902C308.722 180.094 299.124 179.54 288.797 179.671C278.469 179.804 269.343 179.269 268.517 178.484C267.662 177.672 266.677 177.9 266.229 179.014C265.305 181.311 229.574 183.052 228.686 180.843C228.373 180.067 227.315 179.905 226.334 180.484C225.126 181.196 224.967 181.932 225.842 182.762C226.552 183.437 225.561 183.989 223.639 183.989C221.718 183.989 220.146 183.229 220.146 182.3C220.146 181.371 219.357 181.617 218.394 182.846C217.43 184.076 216.274 184.516 215.825 183.825C215.375 183.134 216.293 181.065 217.864 179.227L220.72 175.884L217.847 176.734C215.329 177.478 215.258 177.375 217.272 175.904C220.587 173.483 226.035 173.733 229.229 176.454C232.341 179.105 236.238 178.232 236.238 174.882C236.238 173.339 238.507 172.646 243.709 172.601C248.397 172.56 251.18 173.259 251.18 174.477C251.18 175.545 251.827 175.116 252.617 173.524C253.655 171.432 256.767 170.313 263.824 169.494C269.198 168.871 276.859 167.239 280.85 165.868C284.84 164.497 289.754 163.299 291.769 163.205C293.785 163.112 298.02 161.95 301.181 160.623C306.57 158.361 305.962 158.271 291.411 159.175C282.876 159.705 275.117 160.151 274.169 160.167C273.221 160.183 261.324 162.06 247.732 164.338C234.14 166.616 219.322 168.723 214.802 169.019C210.283 169.316 206.822 170.155 207.111 170.884C207.401 171.613 205.409 172.213 202.685 172.216C199.961 172.216 193.076 173.376 187.387 174.783C177.63 177.198 154.679 179.687 157.796 177.993C158.59 177.562 158.948 176.481 158.59 175.592C158.233 174.704 159.393 173.938 161.169 173.892C162.945 173.846 166.208 172.298 168.421 170.454C170.634 168.61 173.479 166.36 174.743 165.453C178.899 162.474 246.691 145.235 262.675 143.092C267.416 142.457 281.123 140.361 293.135 138.437C305.146 136.512 321 134.165 328.365 133.222C335.731 132.279 344.246 130.356 347.287 128.949C351.283 127.1 353.038 126.937 353.611 128.362C354.337 130.167 366.43 129.673 381.066 127.239C383.279 126.871 390.262 126.073 396.584 125.466C407.928 124.377 425.21 120.712 434.884 117.344C437.616 116.393 440.335 116.075 440.927 116.637C441.518 117.199 449.527 115.907 458.723 113.766C472.33 110.597 475.933 110.275 478.074 112.036C480.226 113.807 482.982 113.51 493.242 110.402C510.32 105.228 532.606 98.5022 543.712 95.1697C548.769 93.652 556.117 91.2825 560.04 89.9044C563.963 88.526 568.877 87.4022 570.959 87.4069C573.042 87.4069 577.074 86.2707 579.919 84.8712C584.713 82.5126 594.529 79.8942 620.724 73.9871C634.181 70.9525 636.891 70.2521 650.609 66.2661C656.931 64.4291 667.276 61.6139 673.598 60.0099C679.919 58.406 686.644 56.6993 688.54 56.2173C701.961 52.8078 704.517 52.8712 707.186 56.68C708.626 58.7351 709.805 61.3192 709.805 62.4225C709.805 63.5258 710.193 64.3342 710.667 64.2192C711.141 64.1053 712.711 64.1053 714.156 64.2192C716.352 64.394 716.594 64.969 715.633 67.7298C714.226 71.7716 715.351 73.9517 717.458 71.2644C719.828 68.2409 719.288 70.9604 716.561 75.781C715.131 78.3097 712.258 80.5768 709.615 81.2633C705.755 82.2658 705.315 82.8183 706.551 85.1074C708.405 88.543 706.838 88.7562 780.495 75.0563C785.552 74.1156 794.604 72.9647 800.61 72.4987C806.616 72.0327 817.478 70.8144 824.748 69.7915C832.018 68.7687 841.587 67.6168 846.013 67.2317C850.438 66.8468 856.104 65.7081 858.604 64.7012C861.104 63.6945 871.022 62.8218 880.644 62.7621C890.266 62.7025 898.824 62.2991 899.662 61.866C901.73 60.7972 928.665 58.6282 935.074 59.0143C937.908 59.1855 941.018 60.425 941.985 61.7698C944.151 64.7834 949.668 65.0854 975.324 63.5957C987.118 62.9106 997.949 61.3532 1001.5 59.8308C1006.15 57.8443 1013.84 57.3005 1034.26 57.5164C1048.95 57.6726 1073.37 57.1986 1088.54 56.4655C1119.29 54.9796 1117.65 54.9627 1149.46 57.0858C1170.06 58.4604 1181.95 58.5174 1200.04 57.3287C1203.2 57.121 1204.88 56.5874 1203.77 56.1429C1202.67 55.6987 1201.76 54.5037 1201.76 53.488C1201.76 52.2695 1204.99 51.9913 1211.25 52.6703C1216.46 53.2364 1232.11 54.5053 1246.02 55.4902C1259.92 56.4752 1277.77 58.0966 1285.67 59.0935C1317.42 63.0987 1329.53 64.5103 1346.02 66.1284C1387.25 70.1755 1408.99 71.788 1431.65 72.4808C1442.08 72.7999 1455.01 73.6026 1460.39 74.2646C1465.76 74.9267 1473.78 75.3971 1478.2 75.3099C1482.63 75.2241 1491.42 75.9333 1497.74 76.8892C1504.06 77.8451 1524.54 78.9772 1543.24 79.4053C1561.94 79.8333 1579.53 80.9584 1582.32 81.9056C1585.11 82.8528 1591.46 84.0585 1596.43 84.5848C1601.4 85.1111 1607.09 85.9508 1609.07 86.4507C1615.87 88.1601 1626.48 89.3224 1642 90.057C1655.66 90.7038 1668.94 92.2564 1688.55 95.5011C1691.71 96.0238 1696.11 96.6736 1698.32 96.9447C1700.53 97.2161 1706.22 97.9481 1710.96 98.5719C1715.7 99.1958 1723.72 100.192 1728.78 100.787C1733.83 101.381 1738.23 102.113 1738.55 102.412C1738.86 102.712 1742.06 103.437 1745.66 104.025C1749.26 104.612 1752.95 105.54 1753.88 106.086C1754.81 106.632 1760.14 107.316 1765.73 107.605C1781.1 108.4 1781.08 108.396 1781.08 111.251C1781.08 112.709 1781.63 113.902 1782.3 113.902C1782.96 113.902 1783.14 112.972 1782.68 111.835C1782.11 110.425 1782.49 110.144 1783.86 110.951C1784.96 111.602 1787 112.135 1788.4 112.135C1790.11 112.135 1790.99 113.284 1791.11 115.669C1791.31 119.893 1790.69 120.095 1788.38 116.552C1785.98 112.854 1783.29 113.131 1784.1 116.994C1784.49 118.897 1784.37 119.326 1783.77 118.111C1783.11 116.766 1779.87 116.513 1773.61 117.318C1762.82 118.704 1754.68 118.323 1739.7 115.73C1733.69 114.69 1725.93 113.412 1722.46 112.889C1718.98 112.367 1715.53 111.636 1714.79 111.265C1714.06 110.894 1713.15 111.797 1712.78 113.271C1712.29 115.255 1711.2 115.64 1708.57 114.755C1704.46 113.365 1701.81 112.836 1690.85 111.214C1686.42 110.56 1682.49 109.731 1682.11 109.374C1681.31 108.612 1665.93 108.487 1644.87 109.071C1631.51 109.441 1622.08 108.429 1615.05 105.87C1611.09 104.428 1583.38 103.805 1583.38 105.158C1583.38 105.853 1586.87 106.997 1591.13 107.699C1595.4 108.401 1599.93 109.289 1601.19 109.673C1610.06 112.362 1633.81 115.376 1652.92 116.236C1657.34 116.435 1661.51 117.136 1662.18 117.794C1663.29 118.888 1698.49 123.107 1700.37 122.373C1700.82 122.198 1705.07 122.611 1709.81 123.291C1717.14 124.342 1735.86 126.457 1740.56 126.765C1742.26 126.876 1742.46 129.157 1740.9 130.638C1739.78 131.7 1731.12 131.946 1723.28 131.137C1720.88 130.889 1718.5 129.641 1717.99 128.362C1717.29 126.631 1715.32 126.343 1710.27 127.233C1706.54 127.892 1703.14 128.747 1702.72 129.133C1702.3 129.52 1701.17 128.63 1700.21 127.156C1699.25 125.682 1698.19 125.157 1697.86 125.989C1697.21 127.604 1674.01 126.916 1667.28 125.083C1665.07 124.48 1661.17 123.822 1658.62 123.622C1656.06 123.421 1652.83 122.317 1651.43 121.168C1649.4 119.497 1648.89 119.551 1648.89 121.438C1648.89 122.826 1647.36 123.987 1645.16 124.26C1636.07 125.388 1623.35 125.281 1613.26 123.992C1606.01 123.066 1602.91 123.182 1604.03 124.338C1608.56 129.002 1600.06 131.302 1586.82 128.994C1575.09 126.948 1572.99 126.84 1567.92 128.024C1565.3 128.634 1561.63 128.504 1559.76 127.734C1554.84 125.707 1529.25 122.116 1517.86 121.854C1512.48 121.73 1504.72 121.085 1500.62 120.421C1496.51 119.757 1488.23 118.805 1482.22 118.306C1476.22 117.807 1461.99 116.23 1450.62 114.802C1439.24 113.373 1422.31 111.669 1413 111.017C1397.83 109.952 1396 110.135 1395.34 112.772C1394.72 115.28 1392.72 115.703 1381.81 115.639C1374.77 115.598 1366.68 116.209 1363.83 116.997L1358.66 118.431L1367.28 120.401C1372.02 121.484 1377.71 122.349 1379.93 122.322C1382.14 122.294 1391.19 123.505 1400.04 125.01C1408.89 126.515 1425.7 128.634 1437.4 129.719C1449.09 130.804 1459.81 132.072 1461.22 132.537C1462.62 133.002 1474.26 134.157 1487.08 135.103C1510.12 136.803 1526.26 138.191 1538.55 139.527C1542.02 139.905 1553.95 141.02 1565.05 142.004C1576.16 142.988 1585.98 144.148 1586.89 144.58C1587.8 145.013 1589.58 145.969 1590.85 146.704C1592.11 147.439 1595.13 148.26 1597.56 148.53C1599.99 148.801 1602.58 150.282 1603.32 151.823C1604.37 154.047 1607.37 154.718 1617.86 155.081C1625.13 155.332 1631.59 156.027 1632.23 156.624C1632.86 157.221 1637.25 158.177 1642 158.747C1664.66 161.473 1687.32 163.688 1697.74 164.195C1704.07 164.503 1717.51 166.143 1727.63 167.84C1737.74 169.537 1750.68 171.189 1756.36 171.512C1795.74 173.744 1827.2 176.556 1843.72 179.321C1849.41 180.273 1859.38 181.563 1865.88 182.188C1872.38 182.813 1877.97 184.004 1878.31 184.835C1878.64 185.666 1877.2 186.41 1875.11 186.489C1873.02 186.569 1869.85 186.795 1868.06 186.995C1866.28 187.194 1864.59 186.797 1864.32 186.114C1864.04 185.43 1861.91 185.682 1859.57 186.673C1857.2 187.68 1852 187.961 1847.8 187.31C1843.66 186.668 1821.65 185.832 1798.89 185.451C1776.14 185.071 1748.98 184.246 1738.55 183.619C1719.96 182.501 1714.69 183.185 1726.88 185.133C1730.27 185.674 1733.29 186.501 1733.59 186.971C1734.41 188.231 1730.21 191.349 1726.72 192.067C1722.66 192.903 1721.38 195.141 1724.85 195.333C1726.38 195.418 1734.35 196.227 1742.57 197.133C1750.79 198.039 1766.95 199.25 1778.49 199.824C1797.46 200.768 1799.47 201.165 1799.47 203.965C1799.47 207.851 1804.1 208.77 1831.98 210.422C1843.23 211.089 1852.7 212.305 1853.03 213.125C1853.36 213.945 1855.89 214.616 1858.66 214.616C1868.11 214.616 1865.46 219.495 1853.86 223.47C1850.59 224.591 1846.19 225.363 1844.09 225.184C1830.09 223.992 1833.76 227.471 1849.47 230.279C1855.79 231.41 1864.58 232.72 1869.01 233.191C1873.43 233.662 1881.45 234.839 1886.83 235.808C1892.2 236.777 1903.06 238.094 1910.96 238.734C1920.7 239.524 1925.7 240.647 1926.48 242.215C1927.12 243.498 1931.22 245.043 1935.68 245.681C1940.1 246.313 1944.24 247.802 1944.87 248.988C1945.5 250.175 1949.8 251.682 1954.42 252.338C1959.03 252.993 1963.97 254.698 1965.39 256.125C1967.01 257.76 1971.98 259.007 1978.83 259.497C1993.6 260.554 2005.17 262.545 2005.81 264.14C2006.49 265.817 1996.42 268.211 1994.88 266.742C1994.24 266.14 1993.72 266.401 1993.72 267.322C1993.72 268.243 1995.53 269.519 1997.75 270.157C2002.11 271.416 2002.94 273.614 1999.76 275.511C1996 277.749 2001.26 281.294 2013.07 284.493C2023 287.179 2029.27 290.499 2024.7 290.646C2020.4 290.785 2027.04 293.899 2033.94 294.985C2038.04 295.63 2042 296.925 2042.73 297.862C2043.47 298.8 2047.34 300.376 2051.34 301.366C2062.45 304.116 2062.33 306.326 2050.99 307.695C2046.76 308.207 2042.89 309.723 2041.72 311.325C2040.09 313.572 2038.09 313.841 2030.8 312.795C2015.98 310.667 2013.05 311.081 2010.82 315.614C2009.74 317.832 2009.07 320.204 2009.34 320.884C2009.62 321.563 2013.33 322.676 2017.59 323.356C2021.85 324.036 2025.85 325.217 2026.48 325.98C2027.11 326.743 2030.09 327.929 2033.09 328.616C2041.33 330.502 2039.64 332.998 2030.12 332.998C2025.49 332.998 2021.3 333.594 2020.82 334.323C2020.34 335.052 2015.52 335.649 2010.11 335.649C2003.26 335.649 2000.11 336.321 1999.77 337.857C1999.43 339.371 2000.67 340.069 2003.68 340.076C2006.11 340.079 2009.9 340.815 2012.11 341.706C2014.33 342.598 2020.52 343.83 2025.87 344.445C2031.22 345.06 2036.18 346.307 2036.89 347.216C2037.6 348.126 2038.49 348.406 2038.86 347.84C2039.23 347.274 2040.73 347.471 2042.2 348.279C2044.26 349.412 2043.04 350.003 2036.83 350.872C2029.5 351.897 2021.13 354.476 2016.71 357.076C2013.91 358.725 2018.27 360.538 2031.37 363.163C2037.85 364.462 2043.15 365.996 2043.15 366.572C2043.15 367.149 2046.51 367.291 2050.62 366.889C2056.62 366.301 2058.09 366.665 2058.09 368.74C2058.09 371.943 2054.45 377.18 2052.25 377.144C2050.9 377.121 2050.92 376.821 2052.34 375.404C2053.81 373.946 2053.76 373.687 2052.02 373.664C2050.89 373.648 2049.66 374.871 2049.29 376.379C2048.7 378.715 2046.63 378.984 2035.24 378.197C2020.98 377.211 2017.47 378.38 2020.1 383.247C2024.5 391.4 2042.45 400.141 2054.79 400.141C2062.24 400.141 2066.14 402.284 2066.14 406.387C2066.14 408.441 2064.3 408.966 2057.23 408.933C2052.33 408.911 2046.25 408.053 2043.72 407.03C2041.19 406.006 2029.28 404.809 2017.25 404.368C1995.97 403.59 1995.36 403.665 1995.19 407.12C1995.03 410.518 1996.43 412.965 1998.89 413.579C1999.53 413.736 2004.49 415.151 2009.91 416.724C2027.68 421.87 2043.45 425.004 2059.6 426.597C2074.56 428.073 2079.66 430.096 2078.11 433.941C2077.76 434.818 2076.98 435.067 2076.37 434.493C2075.77 433.919 2075.42 434.502 2075.59 435.789C2075.77 437.083 2075.01 438.021 2073.91 437.887C2072.81 437.754 2072.16 438.263 2072.46 439.018C2072.76 439.774 2071.26 440.898 2069.11 441.517C2064.47 442.855 2063.37 446.04 2065.75 451.254C2067.01 454.032 2067.15 455.689 2066.25 457.362C2064.77 460.105 2065.73 461.982 2068.63 461.982C2069.79 461.982 2070.73 462.315 2070.73 462.721C2070.73 463.128 2071.08 464.836 2071.5 466.517C2072.2 469.324 2071.43 469.478 2062.01 468.401C2056.38 467.757 2049.83 466.757 2047.46 466.179C2044.03 465.344 2043.15 465.692 2043.15 467.885C2043.15 469.401 2042.31 471.358 2041.29 472.235C2038.66 474.499 2040.24 484.679 2043.54 486.725C2045.9 488.188 2045.91 488.273 2043.72 488.498C2041.42 488.734 2041.42 488.734 2043.72 490.253C2045.96 491.734 2042.83 492.367 2031.08 492.808C2026.18 492.992 2022.46 495.371 2022.46 498.323C2022.46 499.9 2021.27 500.863 2019.3 500.878C2017.56 500.894 2014.96 501.387 2013.52 501.978C2011.07 502.988 2011.04 503.202 2012.95 505.432C2014.07 506.74 2016.4 507.835 2018.13 507.866C2019.86 507.898 2024.69 510.705 2028.86 514.106C2033.07 517.536 2038.12 520.29 2040.2 520.29C2047.17 520.29 2058.03 522.54 2057.5 523.871C2057.2 524.597 2057.85 525.083 2058.92 524.949C2060 524.816 2061.06 526.077 2061.29 527.752C2061.81 531.64 2055.02 538.342 2051.52 537.395C2050.12 537.016 2048.79 537.573 2048.56 538.633C2048.02 541.133 2034.6 541.839 2029.23 539.651C2026.96 538.722 2015.19 537.746 2003.09 537.483C1982.62 537.037 1976.59 537.94 1984.24 540.3C1985.98 540.837 1989.73 542.085 1992.57 543.074C1995.42 544.063 1999.94 544.907 2002.63 544.95C2005.32 544.992 2007.52 545.822 2007.52 546.794C2007.52 547.765 2008.33 548.561 2009.31 548.561C2010.3 548.561 2012.18 549.434 2013.47 550.502C2015.81 552.422 2015.8 552.466 2013.11 554.529C2008.4 558.143 2009.86 561.552 2017.78 565.426C2021.85 567.413 2025.42 570.196 2025.71 571.61C2026.01 573.024 2026.71 574.642 2027.27 575.205C2029.03 576.979 2026.92 582.43 2024.93 581.256C2023.93 580.663 2023.42 580.666 2023.81 581.263C2024.2 581.859 2023.21 584.351 2021.62 586.8C2019.52 590.023 2017.36 591.335 2013.8 591.547C2011.09 591.708 2009.09 592.359 2009.34 592.995C2009.6 593.631 2004.86 593.761 1998.81 593.285C1990.01 592.592 1987.42 592.956 1985.88 595.097C1983.74 598.071 1972.45 599.298 1966.56 597.196C1964.31 596.393 1962.67 596.641 1962.18 597.857C1961.75 598.926 1960.18 599.802 1958.69 599.802C1955.23 599.802 1952.34 601.496 1952.34 603.524C1952.34 604.392 1953.09 605.102 1954.01 605.102C1954.93 605.102 1956.12 606.308 1956.65 607.781C1957.26 609.444 1961.75 611.693 1968.49 613.709C1981.77 617.681 1991.55 623.753 1990.62 627.456C1990.27 628.878 1989.24 629.608 1988.34 629.077C1987.44 628.547 1987 628.831 1987.35 629.709C1987.7 630.588 1986.63 633.784 1984.98 636.812C1982.76 640.864 1981.35 642.019 1979.65 641.189C1978.37 640.564 1977.63 640.779 1977.99 641.671C1978.34 642.556 1976.84 643.358 1974.64 643.454C1972.44 643.55 1967.01 644.996 1962.57 646.668L1954.5 649.707L1957.07 653.908C1958.48 656.219 1960.12 658.109 1960.7 658.109C1961.29 658.109 1963.54 659.404 1965.71 660.987C1969.49 663.746 1969.58 664.033 1967.91 667.962C1966.81 670.544 1966.59 672.466 1967.32 673.158C1967.95 673.762 1968.14 675.081 1967.73 676.089C1967.26 677.272 1966.64 677.072 1965.99 675.525C1965.34 673.97 1964.68 673.761 1964.12 674.931C1963.65 675.923 1961.71 677.884 1959.81 679.29L1956.37 681.847L1960 682.447C1963.94 683.097 1966.05 687.631 1963.19 689.315C1962.23 689.884 1961.15 689.911 1960.8 689.374C1960.45 688.837 1958.45 689.884 1956.34 691.701C1954.24 693.517 1950.55 695.571 1948.15 696.264C1945.74 696.957 1943.08 698.594 1942.23 699.903C1940.22 703.002 1939.43 702.934 1928.75 698.735C1919.16 694.967 1916.46 695.318 1912.53 700.843C1910.31 703.96 1909.41 704.114 1903.41 702.407C1895.53 700.169 1880.69 699.882 1881.53 701.985C1881.86 702.793 1885.9 704.443 1890.51 705.652C1902.26 708.732 1903.58 709.394 1901.65 711.227C1898.31 714.404 1913.28 721.905 1927.92 724.383C1931.87 725.052 1935.36 726.223 1935.66 726.985C1935.97 727.747 1935.13 730.49 1933.81 733.081C1931.58 737.433 1931.54 738.032 1933.25 740.937C1934.27 742.667 1935.1 744.517 1935.1 745.049C1935.1 747.232 1915.64 744.09 1909.24 740.874C1900.04 736.248 1881.41 732.872 1879.69 735.519C1878.78 736.918 1878.77 738.12 1879.66 739.769C1880.86 741.995 1882.7 742.948 1898.03 749.262C1902.81 751.231 1905.22 753.111 1905.22 754.882C1905.22 757.12 1903.86 757.354 1896.69 756.355C1891.22 755.594 1887.89 755.824 1887.42 756.995C1887.02 758 1887.32 758.823 1888.1 758.823C1888.87 758.823 1889.24 759.234 1888.91 759.737C1888.14 760.922 1871.86 755.67 1870.24 753.715C1868.97 752.178 1852.19 748.204 1848.61 748.592C1847.5 748.712 1846.59 749.805 1846.59 751.022C1846.59 752.238 1846.33 754.305 1846 755.615C1845.43 757.878 1859.47 762.452 1883.66 767.889C1887.3 768.706 1892.14 770.578 1894.43 772.049C1896.73 773.521 1900.22 774.729 1902.19 774.735C1907.4 774.751 1914.88 778.248 1913.67 780.105C1913.11 780.965 1906.11 781.895 1898.11 782.172C1890.12 782.449 1883.66 782.811 1883.77 782.976C1883.87 783.141 1886.51 784.819 1889.64 786.705C1895.08 789.99 1895.21 790.225 1892.72 792.27C1890.77 793.872 1888.69 793.933 1884.4 792.516C1877.4 790.21 1876.48 790.179 1876.48 792.253C1876.48 793.148 1878.03 794.402 1879.91 795.04C1886.2 797.161 1884.84 799.461 1877.3 799.461C1872.91 799.461 1868.47 800.582 1866.32 802.235C1864.14 803.907 1861.69 804.515 1860.16 803.767C1856.88 802.167 1802.91 801.557 1803.54 803.127C1804.88 806.453 1789.8 806.436 1776.94 803.095C1750.88 796.334 1728.71 792.49 1714.41 792.255C1706.51 792.125 1694.61 790.926 1687.97 789.591C1681.33 788.256 1669.51 786.343 1661.69 785.341C1653.88 784.339 1647.15 783.214 1646.75 782.84C1646.35 782.466 1642.14 781.653 1637.4 781.033C1632.66 780.412 1626.97 779.568 1624.75 779.157C1620.15 778.301 1599.18 776.504 1583.95 775.66C1572.93 775.049 1556.2 773.424 1544.87 771.865C1541.07 771.343 1526.33 770.577 1512.11 770.163C1497.88 769.748 1481.07 768.757 1474.75 767.961C1468.43 767.164 1450.95 766.591 1435.9 766.688C1413.14 766.834 1408.36 767.302 1407.45 769.468C1406.53 771.678 1406.2 771.699 1405.33 769.607C1404.64 767.965 1403.16 767.491 1400.9 768.186C1399.02 768.762 1396.94 768.363 1396.24 767.297C1395.55 766.233 1393.28 765.195 1391.19 764.99C1389.1 764.785 1386.36 764.146 1385.1 763.571C1378.21 760.435 1371.03 759.524 1368.14 761.417C1365.82 762.936 1360.03 761.141 1360.83 759.15C1361.12 758.417 1355.58 757.603 1348.52 757.342C1329.49 756.639 1327.52 756.317 1325.36 753.57C1323.61 751.337 1323.44 751.44 1323.79 754.498C1324.05 756.829 1323.62 757.735 1322.45 757.309C1321.5 756.964 1319.56 756.666 1318.14 756.647C1316.72 756.628 1315.56 756.001 1315.56 755.255C1315.56 754.509 1314.72 753.406 1313.7 752.805C1312.36 752.012 1312.04 752.469 1312.54 754.475C1313.02 756.378 1312.79 756.805 1311.81 755.847C1311.02 755.082 1305.47 754.206 1299.46 753.901C1286.83 753.26 1288.71 753.268 1229.35 753.59C1204.38 753.725 1180.75 753.262 1176.84 752.56C1172.93 751.858 1168.86 751.797 1167.8 752.423C1165.84 753.577 1128.29 755.856 1116.76 755.521C1107.73 755.258 1097.5 763.412 1103.19 766.328C1104.04 766.763 1103.46 768.013 1101.76 769.39C1100.18 770.67 1098.6 772.389 1098.25 773.209C1096.98 776.174 1087.22 777.828 1084.45 775.548C1082.7 774.111 1078.07 773.595 1070.8 774.025C1064.74 774.384 1044.85 775.096 1026.59 775.609C1008.34 776.122 992.148 777.026 990.613 777.618C989.077 778.21 982.552 778.817 976.112 778.966C969.672 779.114 963.369 780.13 962.104 781.222C959.842 783.176 949.182 786.385 947.398 785.648C945.198 784.74 941.115 784.969 937.391 786.207C935.179 786.943 932.334 787.412 931.069 787.249C929.805 787.086 927.736 786.813 926.472 786.642C925.207 786.47 919.259 787.264 913.253 788.405C907.247 789.546 900.097 790.463 897.364 790.443C894.631 790.424 891.786 791.159 891.043 792.078C890.299 792.998 888.009 794.303 885.954 794.978C882.897 795.983 882.219 795.663 882.219 793.216C882.219 790.567 881.268 790.368 873.885 791.476C869.302 792.164 857.276 792.91 847.161 793.134C837.046 793.358 825.984 794.475 822.578 795.617C819.173 796.758 816.136 797.692 815.828 797.692C815.521 797.692 815.914 798.885 816.701 800.342C817.488 801.8 819.879 802.993 822.014 802.993C824.149 802.993 825.896 803.325 825.896 803.732C825.896 804.138 826.21 805.728 826.594 807.265C827.551 811.099 824.314 810.91 821.76 806.984C820.313 804.759 819.627 804.518 819.281 806.111C819.018 807.323 818.33 807.866 817.752 807.316C817.174 806.768 816.701 806.961 816.701 807.748C816.701 808.534 815.537 809.275 814.115 809.394C812.692 809.513 804.804 810.51 796.586 811.61C788.367 812.71 771.816 813.928 759.804 814.318C747.792 814.707 736.672 815.461 735.091 815.994C729.736 817.799 700.293 821.986 684.516 823.185C655.281 825.408 633.116 831.836 628.546 839.416C627.117 841.787 624.598 843.702 622.789 843.792C607.914 844.535 587.259 846.917 578.193 848.933C574.4 849.777 567.746 850.955 563.406 851.551C559.066 852.147 552.918 853.392 549.743 854.317C546.569 855.243 543.783 856 543.553 856C543.324 856 543.136 853.968 543.136 851.482ZM543.136 835.405C543.136 833.472 542.627 833.328 540.88 834.765C539.532 835.874 538.892 837.695 539.29 839.289C539.803 841.346 540.321 841.493 541.546 839.93C542.42 838.814 543.136 836.778 543.136 835.405ZM736.815 809.125C741.312 806.646 741.199 806.61 731.643 807.471C709.761 809.443 702.907 810.443 702.907 811.661C702.907 813.966 731.979 811.792 736.815 809.125ZM202.903 787.788C202.903 787.406 202.127 787.094 201.179 787.094C200.231 787.094 199.455 787.864 199.455 788.805C199.455 789.746 200.231 790.059 201.179 789.5C202.127 788.94 202.903 788.17 202.903 787.788ZM286.237 781.793C286.638 780.795 285.697 780.026 284.074 780.026C282.494 780.026 280.881 780.821 280.49 781.793C280.089 782.791 281.03 783.56 282.653 783.56C284.234 783.56 285.846 782.765 286.237 781.793ZM231.639 772.752C231.639 770.929 230.263 770.758 227.71 772.264C224.826 773.965 225.6 776.088 228.765 775.158C230.346 774.693 231.639 773.611 231.639 772.752ZM882.03 772.465C885.952 770.785 886.491 770.14 884.559 769.436C881.491 768.319 844.921 770.68 825.322 773.261C819.996 773.963 861.126 775.675 869.575 775.104C873.684 774.826 879.289 773.639 882.03 772.465ZM921.874 767.027C923.139 766.567 920.811 766.256 916.702 766.335C906.894 766.524 903.012 768.147 909.231 769.459C911.759 769.992 915.122 769.851 916.702 769.146C918.282 768.44 920.61 767.487 921.874 767.027ZM188.342 767.546C190.709 767.44 190.693 767.348 188.036 765.715C184.902 763.791 182.213 764.749 182.213 767.792C182.213 768.9 183.03 769.321 184.032 768.731C185.032 768.141 186.971 767.608 188.342 767.546ZM939.142 765.557C939.449 765.084 937.403 764.564 934.595 764.401C931.787 764.238 929.132 764.993 928.695 766.079C928.137 767.468 929.488 767.811 933.242 767.236C936.179 766.785 938.834 766.03 939.142 765.557ZM1837.97 744.688C1838.41 743.594 1836.58 743.001 1833.16 743.13C1828.25 743.316 1828.02 743.491 1831.08 744.688C1836.11 746.656 1837.18 746.656 1837.97 744.688ZM66.336 718.745C65.5063 718.234 64.5149 718.297 64.133 718.884C63.751 719.471 64.4299 719.889 65.6416 719.812C66.9806 719.727 67.253 719.309 66.336 718.745ZM79.9137 716.418C82.2238 715.281 82.3365 714.993 80.4884 714.951C79.224 714.923 77.1551 715.583 75.8907 716.418C72.9617 718.353 75.9836 718.353 79.9137 716.418ZM95.3371 717.112C96.3371 716.522 97.1552 714.61 97.1552 712.863C97.1552 710.157 96.4323 709.825 92.2702 710.625C86.9884 711.64 83.5418 714.651 87.662 714.651C89.0156 714.651 90.4426 715.446 90.8334 716.418C91.651 718.452 92.7732 718.625 95.3371 717.112ZM1962.69 686.38C1962.69 685.409 1961.78 684.626 1960.68 684.641C1958.96 684.663 1958.92 684.917 1960.39 686.38C1962.56 688.535 1962.69 688.535 1962.69 686.38ZM123.808 614.497C122.978 613.987 121.987 614.05 121.605 614.637C121.223 615.224 121.902 615.642 123.113 615.565C124.452 615.48 124.725 615.061 123.808 614.497ZM114.397 609.342C114.397 606.462 111.2 606.139 107 608.593C102.428 611.265 103.513 613.145 109.224 612.447C112.694 612.023 114.397 611.001 114.397 609.342ZM135.747 610.617C134.599 607.762 130.489 607.034 130.489 609.686C130.489 611.174 131.669 612.171 133.43 612.171C135.048 612.171 136.091 611.471 135.747 610.617ZM127.041 608.637C128.323 607.363 127.661 606.917 124.454 606.897C122.084 606.881 120.144 607.665 120.144 608.637C120.144 610.887 124.775 610.887 127.041 608.637ZM2043.15 401.909C2043.15 400.937 2042.63 400.142 2042 400.142C2041.37 400.142 2040.85 400.937 2040.85 401.909C2040.85 402.881 2041.37 403.676 2042 403.676C2042.63 403.676 2043.15 402.881 2043.15 401.909ZM2051.48 368.935C2050.69 368.445 2049.4 368.445 2048.61 368.935C2047.82 369.425 2048.46 369.826 2050.04 369.826C2051.63 369.826 2052.27 369.425 2051.48 368.935ZM2034.24 347.655C2032.82 347.234 2030.49 347.234 2029.07 347.655C2027.64 348.076 2028.81 348.421 2031.65 348.421C2034.5 348.421 2035.66 348.076 2034.24 347.655ZM1981.08 333.391C1981.08 332.635 1976.81 331.073 1971.6 329.921C1966.38 328.768 1960.87 327.274 1959.35 326.6C1957.63 325.84 1956.85 326.038 1957.28 327.124C1957.67 328.085 1962.54 329.883 1968.1 331.12C1973.66 332.356 1978.72 333.62 1979.35 333.928C1979.99 334.236 1980.63 334.551 1980.79 334.627C1980.95 334.704 1981.08 334.148 1981.08 333.391ZM304.628 317.098C306.681 315.742 306.596 315.566 303.834 315.455C302.133 315.387 300.421 316.126 300.03 317.098C299.182 319.207 301.435 319.207 304.628 317.098ZM1973.03 306.746C1973.03 305.911 1967.84 304.321 1961.5 303.212C1947.21 300.714 1944.64 300.664 1946.1 302.909C1946.71 303.852 1952.9 305.331 1959.84 306.196C1966.78 307.061 1972.59 307.881 1972.75 308.016C1972.9 308.152 1973.03 307.58 1973.03 306.746ZM240.141 285.588C240.467 284.778 239.98 284.116 239.06 284.116C238.139 284.116 237.386 284.778 237.386 285.588C237.386 286.398 237.873 287.06 238.468 287.06C239.063 287.06 239.816 286.398 240.141 285.588ZM393.925 282.32C393.095 281.809 392.104 281.872 391.722 282.459C391.34 283.046 392.019 283.464 393.23 283.387C394.569 283.302 394.842 282.884 393.925 282.32ZM215.547 279.993C215.547 279.021 214.642 278.238 213.535 278.253C211.816 278.275 211.775 278.529 213.248 279.993C215.417 282.148 215.547 282.148 215.547 279.993ZM220.145 277.238C220.145 276.81 219.627 276.459 218.995 276.459C218.363 276.459 217.846 277.301 217.846 278.33C217.846 279.359 218.363 279.71 218.995 279.109C219.627 278.509 220.145 277.667 220.145 277.238ZM285.662 264.936C287.243 264.257 292.157 263.037 296.582 262.226C301.007 261.415 306.439 259.911 308.651 258.884C310.864 257.857 312.674 257.083 312.674 257.164C312.674 257.841 320.547 254.061 324.456 251.506C330.386 247.631 330.76 244.655 325.318 244.655C322.508 244.655 321.295 243.855 321.295 242.004C321.295 239.287 326.439 238.213 334.979 239.147C338.699 239.554 349.313 236.509 351.743 234.337C353.559 232.716 347.758 230.887 340.191 230.696C335.269 230.571 331.074 231.815 325.893 234.937C321.86 237.366 317.494 239.366 316.192 239.381C314.306 239.403 314.163 239.738 315.493 241.031C316.411 241.924 317.575 242.262 318.079 241.783C318.583 241.304 318.996 241.665 318.996 242.583C318.996 244.165 316.48 245.282 307.701 247.598C305.598 248.153 303.598 249.726 303.256 251.093C302.749 253.126 302.306 253.168 300.83 251.326C299.319 249.438 299.135 249.524 299.702 251.856C300.197 253.893 299.715 254.561 297.906 254.345C296.546 254.183 293.716 254.771 291.619 255.653C288.974 256.764 287.3 256.612 286.159 255.156C285.233 253.975 284.513 253.819 284.513 254.8C284.513 256.749 275.755 262.324 272.693 262.324C271.608 262.324 270.72 263.411 270.72 264.739C270.72 266.538 272.261 267.029 276.754 266.663C280.073 266.392 284.082 265.615 285.662 264.936ZM332.946 200.857C332.117 200.432 330.892 200.924 330.224 201.951C329.371 203.262 329.82 203.492 331.732 202.724C333.286 202.099 333.807 201.298 332.946 200.857ZM1721.3 193.856C1721.3 193.127 1719.73 192.362 1717.81 192.156C1715.82 191.94 1714.62 192.507 1715.01 193.481C1715.81 195.474 1721.31 195.802 1721.3 193.856ZM336.238 182.725L339.111 182.589L336.43 180.937C333.401 179.071 328.192 180.509 328.192 183.211C328.192 184.196 329.348 184.516 330.778 183.927C332.2 183.341 334.657 182.8 336.238 182.725ZM1712.11 183.108C1712.11 182.298 1711.33 181.635 1710.39 181.635C1709.44 181.635 1708.66 182.298 1708.66 183.108C1708.66 183.917 1709.44 184.58 1710.39 184.58C1711.33 184.58 1712.11 183.917 1712.11 183.108ZM1716.92 183.373C1716.09 182.862 1715.1 182.925 1714.72 183.512C1714.34 184.099 1715.02 184.517 1716.23 184.44C1717.57 184.356 1717.84 183.937 1716.92 183.373ZM355.994 179.839C355.164 179.329 354.172 179.392 353.79 179.978C353.408 180.565 354.087 180.983 355.299 180.906C356.638 180.822 356.91 180.403 355.994 179.839ZM227.041 177.512C227.041 176.54 226.524 175.745 225.892 175.745C225.26 175.745 224.742 176.54 224.742 177.512C224.742 178.484 225.26 179.279 225.892 179.279C226.524 179.279 227.041 178.484 227.041 177.512ZM256.927 172.879C256.927 170.899 254.768 172.635 254.15 175.112C253.544 177.537 253.712 177.646 255.176 175.779C256.139 174.551 256.927 173.246 256.927 172.879ZM268.421 173.095C268.421 171.637 268.218 170.445 267.969 170.445C267.721 170.445 267.22 171.637 266.856 173.095C266.492 174.553 266.695 175.745 267.308 175.745C267.92 175.745 268.421 174.553 268.421 173.095ZM1773.25 112.697C1772.42 112.186 1771.43 112.249 1771.04 112.836C1770.66 113.423 1771.34 113.841 1772.55 113.764C1773.89 113.68 1774.16 113.261 1773.25 112.697ZM714.927 76.9206C715.291 76.016 715.117 74.8279 714.541 74.2805C713.964 73.733 713.196 74.4732 712.834 75.9253C712.119 78.7879 713.846 79.6091 714.927 76.9206ZM169.341 835.242C168.68 834.027 168.59 833.009 169.142 832.979C169.693 832.951 169.177 832.062 167.995 831.006C164.962 828.298 167.649 825.976 173.593 826.169C176.697 826.269 177.444 826.691 175.892 827.467C173.701 828.562 172.069 833.06 173.88 833.009C177.255 832.914 179.692 830.605 179.166 828C178.653 825.457 178.79 825.479 180.235 828.174C182.198 831.837 190.945 832.511 191.701 829.058C192.085 827.304 192.552 827.316 193.971 829.116C196.209 831.954 197.529 838.85 195.629 837.773C194.888 837.353 194.45 835.938 194.655 834.629C194.915 832.965 194.388 833.139 192.9 835.209C191.201 837.572 188.736 838.095 180.659 837.809C174.235 837.582 170.105 836.644 169.341 835.242ZM153.563 831.347C152.032 829.893 152.768 825.966 154.572 825.966C155.883 825.966 157.034 830.955 155.959 831.977C155.482 832.429 154.404 832.146 153.563 831.347ZM177.882 817.131C176.611 814.002 176.744 813.566 179.043 813.328C180.47 813.18 182.415 812.929 183.363 812.77C186.429 812.257 187.006 813.872 184.984 817.306C182.429 821.646 179.689 821.578 177.882 817.131ZM874.173 803.984C874.173 803.555 874.69 802.713 875.322 802.112C875.955 801.512 876.472 801.862 876.472 802.892C876.472 803.921 875.955 804.763 875.322 804.763C874.69 804.763 874.173 804.412 874.173 803.984ZM887.66 802.777C888.439 801.569 889.367 801.026 889.721 801.57C890.075 802.114 889.437 803.102 888.303 803.766C886.665 804.724 886.533 804.522 887.66 802.777ZM270.72 797.911C270.72 797.059 271.518 795.343 272.493 794.099C273.871 792.341 274.572 792.309 275.644 793.956C276.716 795.604 276.641 796.446 275.308 797.742C273.14 799.848 270.72 799.938 270.72 797.911ZM1568.43 781.793C1568.43 780.821 1569.18 780.026 1570.09 780.026C1571 780.026 1572.06 780.821 1572.45 781.793C1572.84 782.765 1572.1 783.56 1570.8 783.56C1569.5 783.56 1568.43 782.765 1568.43 781.793ZM1548.89 779.916C1548.89 777.905 1551.98 777.7 1552.77 779.659C1553.08 780.429 1552.33 781.175 1551.11 781.316C1549.89 781.458 1548.89 780.828 1548.89 779.916ZM408.99 777.065C407.956 772.922 409.532 772.314 413.505 775.324C415.577 776.894 416.756 778.298 416.123 778.444C411.279 779.564 409.53 779.226 408.99 777.065ZM1402.91 772.958C1402.91 771.987 1403.14 771.192 1403.42 771.192C1403.7 771.192 1404.25 771.987 1404.64 772.958C1405.03 773.93 1404.8 774.725 1404.13 774.725C1403.46 774.725 1402.91 773.93 1402.91 772.958ZM1386.34 771.429C1385.85 770.197 1385.75 768.712 1386.13 768.129C1387.16 766.548 1388.28 768.874 1387.73 771.436C1387.34 773.231 1387.07 773.232 1386.34 771.429ZM1390.56 771.788C1388.2 770.329 1388.93 767.912 1391.42 768.913C1392.68 769.421 1393.72 770.539 1393.72 771.398C1393.72 773.082 1392.82 773.193 1390.56 771.788ZM1941.61 762.946C1940.29 760.913 1940.78 758.823 1942.57 758.823C1943.52 758.823 1944.3 760.016 1944.3 761.474C1944.3 764.233 1942.94 764.979 1941.61 762.946ZM515.122 752.122C514.813 751.352 515.569 750.605 516.803 750.462C518.038 750.32 518.747 750.95 518.38 751.863C517.566 753.888 515.886 754.022 515.122 752.122ZM525.483 749.087C525.845 747.64 526.99 746.394 528.029 746.319C529.067 746.244 532.245 745.825 535.09 745.387C538.82 744.813 539.782 745.09 538.538 746.379C537.116 747.855 537.099 748.172 538.442 748.195C539.338 748.211 539.748 748.717 539.354 749.323C538.96 749.929 535.53 750.716 531.732 751.072C525.979 751.612 524.936 751.28 525.483 749.087ZM56.3994 744.81C55.5493 742.696 57.7116 740.601 59.2427 742.055C60.5281 743.277 59.6842 746.455 58.0745 746.455C57.5169 746.455 56.7631 745.715 56.3994 744.81ZM67.2699 698.853C67.2699 697.938 67.7813 696.704 68.4062 696.111C69.0578 695.492 69.2505 696.201 68.858 697.773C68.0938 700.834 67.2699 701.394 67.2699 698.853ZM75.6991 697.943C75.6991 696.528 76.1386 695.788 76.6757 696.298C77.2129 696.808 77.3548 697.966 76.9911 698.871C76.0616 701.182 75.6991 700.922 75.6991 697.943ZM2078.78 467.284C2077.83 466.342 2077.57 465.571 2078.21 465.571C2078.84 465.571 2080.13 466.342 2081.08 467.284C2082.03 468.226 2082.29 468.997 2081.65 468.997C2081.02 468.997 2079.73 468.226 2078.78 467.284ZM190.259 336.157C190.259 335.392 191.294 334.766 192.558 334.766C193.823 334.766 194.857 335.512 194.857 336.424C194.857 337.335 193.823 337.961 192.558 337.814C191.294 337.668 190.259 336.922 190.259 336.157ZM238.394 310.209L235.699 306.854L242.577 305.45C246.36 304.678 252.17 304.001 255.488 303.946C258.807 303.891 261.522 303.305 261.523 302.644C261.524 301.268 268.371 304.008 269.439 305.812C269.827 306.467 268.549 306.538 266.599 305.969C264.416 305.332 261.765 305.982 259.703 307.657C257.86 309.154 253.636 310.456 250.317 310.55C246.998 310.644 244.283 311.361 244.283 312.143C244.283 314.675 241.158 313.649 238.394 310.209ZM223.904 310.729C224.286 310.142 225.278 310.079 226.107 310.59C227.024 311.154 226.752 311.573 225.413 311.657C224.201 311.734 223.522 311.316 223.904 310.729ZM202.994 286.324C202.944 284.461 203.216 283.418 203.598 284.005C203.98 284.592 204.02 286.116 203.688 287.391C203.321 288.801 203.049 288.382 202.994 286.324ZM234.386 271.473C234.707 270.675 233.911 268.628 232.617 266.926C230.303 263.879 230.379 263.747 237.377 258.659C245.806 252.532 246.582 252.394 246.582 257.023C246.582 259.2 245.81 260.567 244.57 260.584C242.94 260.606 242.867 260.911 244.185 262.193C245.079 263.063 246.76 263.494 247.921 263.151C249.081 262.807 250.03 263.336 250.03 264.327C250.03 265.318 248.349 265.986 246.294 265.814C244.24 265.641 241.524 265.592 240.26 265.706C238.345 265.877 238.249 266.198 239.685 267.625C241.159 269.088 241.117 269.341 239.398 269.364C238.291 269.38 237.386 270.187 237.386 271.158C237.386 272.13 236.58 272.925 235.594 272.925C234.609 272.925 234.065 272.272 234.386 271.473ZM249.083 257.215C247.928 256.117 247.973 255.38 249.299 253.689C251.158 251.316 252.641 253.389 251.361 256.572C250.904 257.707 249.9 257.991 249.083 257.215ZM209.225 182.813C208.834 181.841 209.291 181.046 210.239 181.046C211.187 181.046 212.283 181.841 212.673 182.813C213.064 183.785 212.608 184.58 211.66 184.58C210.711 184.58 209.616 183.785 209.225 182.813ZM232.767 174.902C234.422 171.836 235.087 171.517 235.087 173.789C235.087 174.657 234.238 175.868 233.201 176.48C231.623 177.411 231.552 177.152 232.767 174.902ZM1857.26 146.388C1858.61 144.317 1865.97 142.694 1867.45 144.14C1868.31 144.973 1868.49 145.745 1867.86 145.856C1861.67 146.946 1856.74 147.194 1857.26 146.388ZM1850.28 144.208C1849.33 143.277 1850.04 142.763 1852.3 142.763C1854.22 142.763 1855.79 143.426 1855.79 144.235C1855.79 146.116 1852.22 146.1 1850.28 144.208ZM1820.73 141.953C1815.81 140.259 1803.87 139.045 1781.55 137.969C1773.9 137.6 1766.54 136.389 1765.19 135.277C1763.72 134.067 1758.57 133.452 1752.37 133.744C1746.66 134.013 1742 134.052 1742 133.83C1742 133.215 1748.68 128.037 1749.48 128.037C1749.86 128.037 1749.86 128.833 1749.47 129.804C1749.05 130.835 1750.22 131.571 1752.27 131.571C1754.21 131.571 1755.79 130.776 1755.79 129.804C1755.79 128.833 1756.34 128.037 1757.01 128.037C1757.68 128.037 1757.84 129.031 1757.36 130.246C1756.72 131.879 1756.93 131.989 1758.16 130.665C1759.07 129.681 1760.85 128.967 1762.11 129.079C1763.38 129.19 1767.16 129.399 1770.51 129.543C1773.87 129.687 1776.37 130.401 1776.08 131.13C1775.79 131.858 1778.73 132.338 1782.62 132.196C1786.51 132.052 1790.6 132.678 1791.71 133.583C1793.05 134.682 1793.72 134.587 1793.72 133.296C1793.72 132.233 1794.35 131.957 1795.11 132.683C1795.87 133.409 1800.92 134.22 1806.32 134.485C1811.72 134.75 1816.13 135.061 1816.13 135.176C1816.13 135.292 1818.72 135.643 1821.88 135.958C1825.04 136.273 1827.76 136.707 1827.92 136.922C1828.19 137.29 1829.37 137.825 1831.36 138.481C1832.28 138.782 1826.88 143.913 1825.9 143.674C1825.59 143.596 1823.26 142.823 1820.73 141.953ZM1774.18 133.119C1774.18 132.268 1773.18 131.573 1771.95 131.573C1770.72 131.573 1769.44 132.268 1769.1 133.119C1768.75 133.969 1769.76 134.665 1771.33 134.665C1772.9 134.665 1774.18 133.969 1774.18 133.119ZM1835.66 128.01C1835.27 127.022 1834.46 126.672 1833.87 127.231C1833.28 127.79 1832.8 127.452 1832.8 126.48C1832.8 123.059 1834.66 123.005 1836.03 126.387C1836.79 128.267 1837.19 129.806 1836.9 129.806C1836.62 129.806 1836.06 128.997 1835.66 128.01ZM1811.06 121.118C1809.85 119.256 1808.61 118.101 1808.32 118.551C1808.03 119.002 1805.27 119.637 1802.19 119.963C1796.86 120.527 1790.25 116.887 1791.92 114.31C1793.27 112.247 1801.2 112.73 1802.94 114.98C1804.71 117.283 1807.95 117.36 1809.4 115.132C1810.62 113.257 1816.48 113.668 1817.29 115.685C1818.39 118.431 1816.75 124.504 1814.91 124.504C1814 124.504 1812.27 122.981 1811.06 121.118ZM1822.92 122.465C1822.43 121.247 1822.6 120.903 1823.35 121.61C1824.04 122.262 1824.92 121.988 1825.32 121C1826.39 118.336 1827.82 118.825 1827.82 121.855C1827.82 124.967 1824.11 125.429 1822.92 122.465ZM479.079 109.302C479.461 108.715 480.452 108.652 481.282 109.163C482.199 109.727 481.926 110.146 480.587 110.231C479.376 110.307 478.697 109.89 479.079 109.302ZM710.953 59.1295C710.953 58.1578 711.181 57.3626 711.46 57.3626C711.739 57.3626 712.287 58.1578 712.677 59.1295C713.068 60.1013 712.84 60.8964 712.171 60.8964C711.501 60.8964 710.953 60.1013 710.953 59.1295ZM737.756 59.3083C735.9 57.2127 736.344 54.2013 738.387 55.0225C739.69 55.5465 740.526 54.8257 740.647 53.0746C740.752 51.5458 740.925 49.1024 741.03 47.6447C741.135 46.187 742.17 44.8951 743.329 44.7735C744.488 44.6516 745.824 44.3885 746.298 44.1879C746.772 43.9869 748.712 43.1818 750.609 42.3981C754.826 40.6557 757.117 38.0528 756.275 35.9597C755.929 35.098 756.667 34.3931 757.916 34.3931C759.165 34.3931 760.45 35.3868 760.77 36.6017C761.175 38.1362 761.643 38.2315 762.303 36.9146C763.99 33.5456 767.51 32.4941 769.366 34.8046C770.856 36.659 770.996 36.6127 770.181 34.5344C769.434 32.6287 769.68 32.31 771.204 33.2092C772.308 33.8604 773.909 34.393 774.763 34.393C775.617 34.393 776.628 35.9015 777.008 37.7454C777.453 39.9003 778.439 40.8007 779.768 40.2666C782.702 39.0872 782.398 34.7184 779.44 35.5551C777.103 36.2162 777.101 36.192 779.345 34.5533C780.609 33.63 783.394 32.8186 785.534 32.7503C787.674 32.6815 792.588 31.8462 796.454 30.893C806.474 28.4228 831.662 24.094 843.138 22.87C848.512 22.2971 855.236 21.5131 858.081 21.1278C864.074 20.3161 875.907 19.024 891.415 17.4879C897.42 16.8929 905.696 15.9683 909.805 15.4332C919.681 14.1471 935.228 14.0512 937.392 15.2636C938.34 15.7949 941.314 16.84 944.001 17.5864C946.688 18.3326 948.886 19.5282 948.886 20.2433C948.886 20.9582 947.607 23.5091 946.045 25.9114C943.731 29.4677 942.128 30.2474 937.419 30.1058C933.98 30.0011 931.792 30.6572 932.023 31.7211C932.236 32.705 936.393 33.5756 941.26 33.6555C948.904 33.7806 953.995 36.0668 952.258 38.5926C951.481 39.7227 936.242 40.8394 936.245 39.7662C936.246 39.2406 932.755 39.0594 928.486 39.3634C924.218 39.6674 917.758 39.1941 914.131 38.3095C910.504 37.4258 907.291 37.08 906.992 37.5412C906.692 38.002 904.228 38.5469 901.517 38.752C898.805 38.9571 895.158 39.739 893.411 40.4901C891.522 41.3022 889.644 41.101 888.775 39.9933C887.972 38.9691 882.314 37.9473 876.202 37.7226C868.635 37.4448 865.325 36.7072 865.828 35.4121C866.235 34.3662 865.69 34.6049 864.617 35.9431C863.275 37.6166 861.207 38.0173 857.99 37.2266C854.919 36.4718 853.564 36.6981 854.041 37.8857C854.855 39.9101 854.704 39.9488 844.288 40.379C840.178 40.5487 835.653 41.3128 834.23 42.0769C832.808 42.8411 831.644 42.8164 831.644 42.0221C831.644 41.2278 830.351 40.5779 828.77 40.5779C827.19 40.5779 825.897 41.1742 825.897 41.9031C825.897 42.6319 825.09 43.2283 824.105 43.2283C823.119 43.2283 822.583 42.5568 822.913 41.7356C823.711 39.7514 811.903 42.6654 811.046 44.6643C809.477 48.3235 787.965 52.0317 787.965 48.643C787.965 47.6088 787.418 46.762 786.748 46.762C786.079 46.762 785.828 47.5024 786.192 48.407C787.232 50.9931 784.587 52.5854 782.877 50.4031C781.729 48.9391 781.19 49.0286 780.759 50.7542C780.387 52.2441 778.496 52.9246 775.452 52.663C772.852 52.4397 770.724 52.9993 770.724 53.907C770.724 56.8289 764.818 54.9101 763.671 51.6155C763.061 49.8636 762.063 48.9048 761.452 49.4851C760.841 50.0653 760.605 51.197 760.928 51.9998C761.251 52.8025 760.759 53.9057 759.834 54.4509C758.91 54.9963 757.843 54.6695 757.463 53.7246C757.042 52.6773 755.57 53.0371 753.691 54.6464C750.155 57.675 739.158 60.8919 737.756 59.3083ZM721.298 51.2829C721.298 48.1793 721.988 47.7224 722.973 50.1731C723.337 51.0777 723.109 52.3174 722.466 52.9276C721.824 53.538 721.298 52.7996 721.298 51.2829ZM725.63 48.2307C726.298 47.2039 727.523 46.7114 728.352 47.1363C729.213 47.5775 728.692 48.3784 727.138 49.0032C725.226 49.7717 724.777 49.5417 725.63 48.2307ZM1121.59 43.7475C1120.17 43.3263 1119 42.3748 1119 41.6331C1119 39.4708 1124 40.6462 1124.49 42.9248C1124.74 44.0631 1124.77 44.886 1124.56 44.7537C1124.35 44.6208 1123.01 44.1686 1121.59 43.7475ZM1097.74 39.6936C1100.9 37.6065 1102.71 37.6065 1100.61 39.6936C1099.66 40.6358 1098.11 41.363 1097.16 41.3093C1096.03 41.2453 1096.22 40.695 1097.74 39.6936ZM1104.7 39.8581C1104.35 38.9769 1105.09 38.6722 1106.36 39.1808C1109.04 40.2597 1109.38 41.4603 1107 41.4603C1106.09 41.4603 1105.06 40.7393 1104.7 39.8581ZM956.727 35.8596C954.918 33.0642 955.739 32.8703 969.946 32.7387C978.277 32.6607 986.246 32.2558 987.655 31.8372C989.065 31.4185 990.486 31.7434 990.814 32.5586C991.141 33.374 992.992 33.8728 994.927 33.6668C1000.16 33.1103 1000.18 35.6827 994.954 36.4492C992.482 36.8116 990.705 36.4962 991.005 35.7504C991.949 33.4035 990.178 34.2742 988.377 37.043C986.422 40.0489 981.566 40.5901 980.494 37.9218C980.021 36.7454 979.024 36.7727 977.528 38.003C974.984 40.0966 972.588 38.6739 973.758 35.764C974.269 34.4915 973.986 34.3705 972.914 35.404C972.027 36.2609 968.455 37.3845 964.978 37.901C960.003 38.6398 958.246 38.2056 956.727 35.8596ZM1048.89 37.9263C1048.89 36.9545 1049.11 36.1595 1049.39 36.1595C1049.67 36.1595 1050.22 36.9545 1050.61 37.9263C1051 38.8981 1050.77 39.6932 1050.1 39.6932C1049.43 39.6932 1048.89 38.8981 1048.89 37.9263ZM1002.91 34.3925C1001.87 33.3634 1001.73 32.6688 1002.55 32.6526C1003.31 32.6366 1004.24 33.4206 1004.63 34.3925C1005.52 36.5862 1005.12 36.5862 1002.91 34.3925ZM1451.86 34.1515C1452.46 32.6723 1448.08 30.9323 1447.19 32.2957C1445.95 34.1954 1440.84 34.5542 1440.84 32.7412C1440.84 31.6198 1437.57 31.3496 1431.94 32.0054C1425.02 32.8096 1422.13 32.3952 1419 30.1572C1416.79 28.5709 1415.85 27.6375 1416.92 28.083C1417.98 28.5286 1419.02 28.2018 1419.22 27.3579C1419.42 26.5137 1420.36 25.5646 1421.3 25.2487C1422.25 24.9331 1423.41 23.8794 1423.87 22.9075C1424.34 21.9357 1424.72 22.8819 1424.73 25.0114C1424.75 28.6705 1424.92 28.7434 1427.91 26.3438C1430.75 24.0668 1431.24 24.123 1432.67 26.8903C1434.18 29.8243 1434.22 29.824 1433.56 26.8903C1433.03 24.504 1433.5 23.7983 1435.65 23.7983C1437.18 23.7983 1438.96 25.1897 1439.6 26.8903C1440.25 28.6063 1440.79 28.9994 1440.81 27.7738C1440.85 25.46 1444.29 24.5857 1444.29 26.8903C1444.29 27.6191 1448.2 28.1695 1452.98 28.1134C1457.76 28.0571 1461.93 28.6534 1462.25 29.4386C1462.56 30.2235 1463.93 30.8657 1465.28 30.8657C1467.25 30.8657 1467.45 31.3075 1466.3 33.0743C1464.87 35.2857 1450.99 36.3277 1451.86 34.1588V34.1515ZM1470.73 34.0984C1470.73 33.2885 1471.12 32.5723 1471.59 32.5067C1472.07 32.4411 1474.11 32.0546 1476.13 31.648C1480.68 30.7333 1482.3 33.7645 1477.92 35.0029C1473.6 36.2273 1470.73 35.8668 1470.73 34.0984ZM1387.97 28.2085C1387.97 27.2368 1386.03 26.4418 1383.66 26.4418C1381.29 26.4418 1378.97 27.2368 1378.5 28.2085C1377.94 29.3865 1377.65 29.3865 1377.64 28.2085C1377.61 25.995 1370.73 25.4713 1370.73 27.6832C1370.73 28.5728 1370.26 28.8541 1369.68 28.3083C1368.59 27.2683 1358.48 25.5985 1347.74 24.6841C1344.26 24.3881 1341.42 23.9674 1341.42 23.749C1341.42 22.5648 1326.29 22.5465 1325.33 23.7298C1323.6 25.8418 1312.11 27.3153 1312.11 25.4246C1312.11 24.5263 1311.33 23.7915 1310.38 23.7915C1309.43 23.7915 1308.66 24.5587 1308.66 25.4966C1308.66 26.5612 1300.56 26.8874 1287.11 26.3655C1275.25 25.9058 1264.31 25.5378 1262.78 25.548C1261.26 25.564 1258.28 24.8334 1256.17 23.9378C1253.87 22.9587 1252.34 22.9525 1252.34 23.9218C1252.34 25.5275 1248.32 25.2674 1247.23 23.5911C1246.91 23.1076 1241.68 22.9946 1235.6 23.3402C1228.28 23.7567 1224 23.2699 1222.93 21.8963C1221.66 20.2824 1221.3 20.3605 1221.28 22.2491C1221.27 23.7812 1220.96 23.9946 1220.42 22.8283C1219.92 21.7205 1213.38 20.8947 1204.06 20.7627C1195.53 20.6424 1169.66 20.0875 1146.59 19.5319C1123.51 18.9763 1093.9 18.4157 1080.78 18.2863C1067.67 18.1583 1056.93 17.5535 1056.93 16.9455C1056.93 16.3371 1054.08 15.8395 1050.61 15.8395C1047.13 15.8395 1044.29 16.4359 1044.29 17.1647C1044.29 17.8936 1043.74 18.4899 1043.07 18.4899C1042.4 18.4899 1042.17 17.6948 1042.57 16.7229C1042.96 15.7512 1042.47 14.9561 1041.48 14.9561C1040.5 14.9569 1039.69 14.1618 1039.69 13.1901C1039.69 12.2183 1039.14 11.4231 1038.47 11.4231C1037.8 11.4231 1037.58 12.2183 1037.97 13.1901C1038.39 14.2337 1037.12 14.946 1034.87 14.9299C1032 14.9075 1031.49 14.4864 1032.79 13.1901C1034.07 11.9251 1034.12 11.4702 1033 11.4502C1031.83 11.4278 1031.88 10.8139 1033.21 8.77277C1034.15 7.3151 1036 6.12241 1037.31 6.12241C1038.62 6.12241 1039.69 5.27369 1039.69 4.23636C1039.69 3.11762 1040.69 2.83528 1042.13 3.54242C1043.78 4.34438 1044.32 4.09433 1043.79 2.77806C1043.36 1.70197 1043.31 0.821687 1043.68 0.821687C1044.06 0.821687 1044.76 2.45693 1045.24 4.45563L1046.11 8.08972L1049.14 4.42452C1051.22 1.91231 1052.43 1.38425 1052.97 2.74617C1053.54 4.15478 1054.05 4.03541 1054.74 2.33566C1055.52 0.387429 1063.41 -0.0493663 1096.83 0.00424106C1119.46 0.0416862 1147.28 0.580749 1158.66 1.20519C1170.04 1.8295 1188.92 2.80132 1200.61 3.36486C1242.84 5.39918 1253.72 6.13854 1254.67 7.03757C1256.78 9.04642 1266.05 10.8284 1267.45 9.49602C1268.31 8.67498 1269.32 8.96813 1269.84 10.1913C1270.5 11.7698 1271.02 11.634 1271.86 9.65619C1272.48 8.19849 1273 7.80093 1273.01 8.77277C1273.02 9.88793 1280.13 10.4609 1292.28 10.3262C1311.48 10.113 1344.29 12.9652 1344.29 14.848C1344.29 15.3939 1348.3 15.7509 1353.2 15.6418C1361.6 15.4546 1380.94 17.8726 1384.36 19.5385C1385.63 20.1531 1385.65 20.8136 1384.49 22.9695C1383.32 25.1422 1383.35 25.4948 1384.65 24.863C1385.53 24.436 1387.69 23.5994 1389.45 23.0038C1391.43 22.3365 1392.41 21.093 1392 19.7641C1391.63 18.5779 1391.94 18.8519 1392.67 20.3728C1393.76 22.6095 1395.23 22.8838 1400.39 21.8071C1404.02 21.0499 1407.65 21.1907 1408.79 22.1335C1409.9 23.0455 1412.26 23.8997 1414.04 24.0321C1417.03 24.2536 1417.06 24.3361 1414.51 25.076C1412.36 25.6976 1412.1 26.2366 1413.36 27.4586C1415.14 29.1878 1413.64 29.4043 1397.45 29.7647C1391.81 29.8898 1387.97 29.2609 1387.97 28.2085ZM1053.9 12.3167C1053.54 10.8644 1052.78 10.1164 1052.21 10.6541C1050.59 12.1959 1051.01 14.9568 1052.87 14.9568C1053.9 14.9568 1054.3 13.9203 1053.9 12.3167ZM986.864 18.3566C988.047 14.9588 987.977 14.5729 986.35 15.5326C984.727 16.4899 984.654 16.103 985.823 12.7447L987.181 8.84529L988.324 12.7846C989.636 17.3041 992.01 17.9612 992.98 14.0733C993.344 12.6156 993.227 11.423 992.72 11.423C992.213 11.423 991.798 10.2206 991.798 8.75089C991.798 6.57844 992.837 6.29054 997.354 7.21162C1001.15 7.98545 1002.91 7.71249 1002.91 6.35013C1002.91 5.24217 1004.73 4.35547 1007 4.35547C1009.68 4.35547 1010.82 5.02475 1010.31 6.29866C1009.75 7.68009 1010.23 7.66839 1011.94 6.25802C1013.94 4.60951 1014.24 4.72907 1013.68 6.96515C1013.31 8.44523 1012.55 9.65629 1011.98 9.65629C1011.42 9.65629 1010.96 10.4514 1010.96 11.4231C1010.96 15.1062 1013.03 12.9775 1014.4 7.8893C1016 1.95521 1016.04 1.92259 1018.93 4.29306C1020.38 5.48887 1020.83 7.35599 1020.43 10.5505C1020.12 13.0548 1020.32 14.872 1020.87 14.5886C1021.42 14.3053 1022.13 14.8503 1022.45 15.8002C1022.79 16.8216 1020.06 17.6494 1015.76 17.8268C1009.12 18.1007 1008.39 17.7628 1007.24 13.8914C1006.01 9.71709 1001.76 7.88656 1001.76 11.5273C1001.76 12.5567 1002.27 12.9128 1002.9 12.3192C1003.54 11.7098 1003.75 12.3864 1003.38 13.8701C1002.99 15.4073 1001.96 16.0552 1000.9 15.4285C999.72 14.7317 999.368 15.0617 999.894 16.3719C1000.82 18.6718 996.999 20.3699 992.565 19.6303C990.984 19.3669 988.747 19.8579 987.593 20.7216C985.712 22.1288 985.636 21.8832 986.864 18.3566ZM1018.31 11.7176C1018.63 10.9078 1018.17 10.2452 1017.28 10.2452C1016.38 10.2452 1015.92 10.9078 1016.25 11.7176C1016.57 12.5273 1017.04 13.19 1017.28 13.19C1017.52 13.19 1017.98 12.5273 1018.31 11.7176ZM971.381 18.6915C971.035 17.8301 971.782 16.7112 973.042 16.2047C974.568 15.5914 975.098 14.3442 974.63 12.4702C974.244 10.9225 974.414 9.65614 975.009 9.65614C976.585 9.65614 976.33 15.4279 974.639 18.0279C972.923 20.6652 972.231 20.8061 971.381 18.6915ZM978.429 13.7789C978.753 12.4831 979.165 11.423 979.346 11.423C979.527 11.423 979.94 12.4831 980.263 13.7789C980.587 15.0747 980.174 16.1349 979.346 16.1349C978.518 16.1349 978.106 15.0747 978.429 13.7789ZM982.862 8.82888C984.089 7.40213 986.227 6.20947 987.612 6.17852C990.354 6.11611 992.1 8.79668 990.383 10.4286C989.794 10.9876 989.115 10.5317 988.872 9.41378C988.541 7.88733 987.821 7.88439 985.976 9.39781C982.443 12.3046 980.221 11.895 982.862 8.82395V8.82888ZM967.588 8.58852C967.97 8.0014 968.962 7.9386 969.792 8.44929C970.708 9.01327 970.436 9.43199 969.097 9.51667C967.885 9.59316 967.206 9.17564 967.588 8.58852ZM1028.2 7.88906C1026.72 6.4254 1026.77 6.17226 1028.48 6.14912C1029.59 6.13312 1030.5 6.91718 1030.5 7.88906C1030.5 10.044 1030.37 10.044 1028.2 7.88906ZM1022.02 5.19792C1021.48 3.00213 1021.77 2.85089 1023.63 4.37657C1026.29 6.56858 1026.54 7.88906 1024.3 7.88906C1023.42 7.88906 1022.39 6.67796 1022.02 5.19792Z" fill="#3660D3" fill-opacity="0.67"/>
<path d="M1095.02 389.219L1306.46 172H1256.34L1072.8 360.601L926.135 172H757L978.754 457.228L757 685H807.114L1000.97 485.809L1155.87 685H1325L1095.02 389.219ZM1026.4 459.72L1003.94 431.321L825.155 205.345H902.122L1046.37 387.717L1068.83 416.115L1256.39 653.194H1179.42L1026.4 459.72Z" fill="white"/>
</svg>
